{
copyright = "Copyright (c) 2022 by Thanos Poulakidas. All rights reserved.";
familyName = "Geom ";
customParameters = (
{
name = glyphOrder;
value = (
.notdef,
null,
nonmarkingreturn,
space,
exclam,
quotedbl,
numbersign,
dollar,
percent,
ampersand,
quotesingle,
parenleft,
parenright,
asterisk,
plus,
comma,
hyphen,
period,
slash,
zero,
one,
two,
three,
four,
five,
six,
seven,
eight,
nine,
colon,
semicolon,
less,
equal,
greater,
question,
at,
A,
B,
C,
D,
E,
F,
G,
H,
J,
K,
L,
M,
N,
O,
P,
Q,
R,
S,
T,
U,
V,
W,
X,
Y,
Z,
bracketleft,
backslash,
bracketright,
asciicircum,
underscore,
grave,
a,
b,
c,
d,
e,
f,
g,
h,
i,
j,
k,
l,
m,
n,
o,
p,
q,
r,
s,
t,
u,
v,
w,
x,
y,
z,
braceleft,
bar,
braceright,
asciitilde,
uni00A0,
exclamdown,
cent,
sterling,
currency,
yen,
brokenbar,
section,
dieresis,
copyright,
ordfeminine,
guillemotleft,
logicalnot,
uni00AD,
registered,
degree,
plusminus,
twosuperior,
threesuperior,
acute,
uni00B5,
paragraph,
periodcentered,
cedilla,
onesuperior,
ordmasculine,
guillemotright,
onequarter,
onehalf,
threequarters,
questiondown,
Agrave,
Aacute,
Acircumflex,
Atilde,
Adieresis,
Aring,
AE,
Ccedilla,
Egrave,
Eacute,
Ecircumflex,
Edieresis,
Eth,
Ntilde,
Ograve,
Oacute,
Ocircumflex,
Otilde,
Odieresis,
multiply,
Oslash,
Ugrave,
Uacute,
Ucircumflex,
Udieresis,
Yacute,
Thorn,
germandbls,
agrave,
aacute,
acircumflex,
atilde,
adieresis,
aring,
ae,
ccedilla,
egrave,
eacute,
ecircumflex,
edieresis,
igrave,
iacute,
icircumflex,
idieresis,
eth,
ntilde,
ograve,
oacute,
ocircumflex,
otilde,
odieresis,
divide,
oslash,
ugrave,
uacute,
ucircumflex,
udieresis,
yacute,
thorn,
ydieresis,
Amacron,
amacron,
Abreve,
abreve,
Aogonek,
aogonek,
Cacute,
cacute,
Ccircumflex,
ccircumflex,
Cdotaccent,
cdotaccent,
Ccaron,
ccaron,
Dcaron,
dcaron,
Dcroat,
dcroat,
Emacron,
emacron,
Ebreve,
ebreve,
Edotaccent,
edotaccent,
Eogonek,
eogonek,
Ecaron,
ecaron,
Gcircumflex,
gcircumflex,
Gbreve,
gbreve,
Gdotaccent,
gdotaccent,
uni0122,
uni0123,
Hcircumflex,
hcircumflex,
itilde,
imacron,
ibreve,

glyphs = (
{
glyphname = .notdef;
layers = (
{
hints = (
{
horizontal = 1;
place = "{0, 57}";
type = Stem;
},
{
horizontal = 1;
place = "{663, 57}";
type = Stem;
},
{
place = "{18, 68}";
type = Stem;
},
{
place = "{478, 67}";
type = Stem;
}
);
layerId = "05A2C769-842B-415C-86A7-244CC7525BC2";
paths = (
{
closed = 1;
nodes = (
"18 0 LINE",
"545 0 LINE",
"545 720 LINE",
"18 720 LINE"
);
},
{
closed = 1;
nodes = (
"282 420 LINE",
"118 663 LINE",
"445 663 LINE"
);
},
{
closed = 1;
nodes = (
"86 597 LINE",
"243 360 LINE",
"86 126 LINE"
);
},
{
closed = 1;
nodes = (
"320 360 LINE",
"478 596 LINE",
"478 126 LINE"
);
},
{
closed = 1;
nodes = (
"118 57 LINE",
"282 302 LINE",
"445 57 LINE"
);
}
);
width = 558;
}
);
},
{
glyphname = exclam;
layers = (
{
hints = (
{
place = "{74, 167}";
type = Stem;
},
{
place = "{80, 155}";
type = Stem;
},
{
horizontal = 1;
place = "{-12, 157}";
type = Stem;
},
{
horizontal = 1;
place = "{703, -20}";
target = down;
type = TopGhost;
}
);
layerId = "05A2C769-842B-415C-86A7-244CC7525BC2";
paths = (
{
closed = 1;
nodes = (
"79 703 LINE",
"81 618 LINE",
"119 216 LINE",
"197 216 LINE",
"234 618 LINE",
"236 703 LINE"
);
},
{
closed = 1;
nodes = (
"74 17 OFFCURVE",
"111 -12 OFFCURVE",
"158 -12 CURVE SMOOTH",
"204 -12 OFFCURVE",
"241 17 OFFCURVE",
"241 67 CURVE SMOOTH",
"241 115 OFFCURVE",
"204 145 OFFCURVE",
"158 145 CURVE SMOOTH",
"112 145 OFFCURVE",
"74 115 OFFCURVE",
"74 67 CURVE SMOOTH"
);
}
);
width = 316;
}
);
unicode = 0021;
},
{
glyphname = quotedbl;
layers = (
{
hints = (
{
place = "{81, 389}";
type = Stem;
},
{
horizontal = 1;
place = "{392, 312}";
type = Stem;
},
{
horizontal = 1;
place = "{704, -20}";
target = down;
type = TopGhost;
}
);
layerId = "05A2C769-842B-415C-86A7-244CC7525BC2";
paths = (
{
closed = 1;
nodes = (
"158 392 LINE",
"246 676 LINE",
"252 704 LINE",
"105 704 LINE",
"81 392 LINE"
);
},
{
closed = 1;
nodes = (
"298 392 LINE",
"376 392 LINE",
"464 676 LINE",
"470 704 LINE",
"323 704 LINE"
);
}
);
width = 549;
}
);
unicode = 0022;
},
{
glyphname = numbersign;
layers = (
{
hints = (
{
horizontal = 1;
place = "{0, 21}";
target = up;
type = BottomGhost;
},
{
horizontal = 1;
place = "{165, 116}";
type = Stem;
},
{
horizontal = 1;
place = "{427, 117}";
type = Stem;
},
{
horizontal = 1;
place = "{703, -20}";
target = down;
type = TopGhost;
},
{
place = "{28, 605}";
type = Stem;
}
);
layerId = "05A2C769-842B-415C-86A7-244CC7525BC2";
paths = (
{
closed = 1;
nodes = (
"93 0 LINE",
"202 0 LINE",
"228 165 LINE",
"373 165 LINE",
"347 0 LINE",
"456 0 LINE",
"482 165 LINE",
"600 165 LINE",
"600 281 LINE",
"501 281 LINE",
"525 427 LINE",
"633 427 LINE",
"633 544 LINE",
"545 544 LINE",
"569 703 LINE",
"460 703 LINE",
"436 544 LINE",
"291 544 LINE",
"316 703 LINE",
"207 703 LINE",
"182 544 LINE",
"61 544 LINE",
"61 427 LINE",
"163 427 LINE",
"139 281 LINE",
"28 281 LINE",
"28 165 LINE",
"120 165 LINE"
);
},
{
closed = 1;
nodes = (
"418 429 LINE",
"394 279 LINE",
"245 279 LINE",
"270 429 LINE"
);
}
);
width = 660;
}
);
unicode = 0023;
},
{
glyphname = dollar;
layers = (
{
hints = (
{
place = "{51, 129}";
type = Stem;
},
{
place = "{266, 85}";
type = Stem;
},
{
place = "{269, 80}";
type = Stem;
},
{
place = "{441, 128}";
type = Stem;
},
{
horizontal = 1;
place = "{-1, 106}";
type = Stem;
},
{
horizontal = 1;
place = "{-2, 21}";
target = up;
type = BottomGhost;
},
{
horizontal = 1;
place = "{-1, 21}";
target = up;
type = BottomGhost;
},
{
horizontal = 1;
place = "{598, 170}";
type = Stem;
},
{
horizontal = 1;
place = "{705, -20}";
target = down;
type = TopGhost;
},
{
horizontal = 1;
place = "{706, -20}";
target = down;
type = TopGhost;
}
);
layerId = "05A2C769-842B-415C-86A7-244CC7525BC2";
paths = (
{
closed = 1;
nodes = (
"266 -97 LINE",
"351 -97 LINE",
"351 -2 LINE",
"479 11 OFFCURVE",
"569 88 OFFCURVE",
"569 202 CURVE SMOOTH",
"569 309 OFFCURVE",
"498 367 OFFCURVE",
"349 410 CURVE",
"349 597 LINE",
"395 590 OFFCURVE",
"435 569 OFFCURVE",
"463 532 CURVE",
"537 612 LINE",
"499 658 OFFCURVE",
"437 696 OFFCURVE",
"352 705 CURVE",
"352 768 LINE",
"267 768 LINE",
"267 706 LINE",
"137 695 OFFCURVE",
"51 618 OFFCURVE",
"51 508 CURVE SMOOTH",
"51 395 OFFCURVE",
"129 337 OFFCURVE",
"269 297 CURVE",
"269 105 LINE",
"204 111 OFFCURVE",
"145 147 OFFCURVE",
"104 193 CURVE",
"25 107 LINE",
"88 41 OFFCURVE",
"174 -1 OFFCURVE",
"266 -1 CURVE"
);
},
{
closed = 1;
nodes = (
"180 561 OFFCURVE",
"209 592 OFFCURVE",
"270 598 CURVE",
"270 430 LINE",
"208 453 OFFCURVE",
"180 478 OFFCURVE",
"180 520 CURVE SMOOTH"
);
},
{
closed = 1;
nodes = (
"441 147 OFFCURVE",
"413 115 OFFCURVE",
"349 106 CURVE",
"349 279 LINE",
"424 255 OFFCURVE",
"441 221 OFFCURVE",
"441 189 CURVE SMOOTH"
);
}
);
width = 605;
}
);
unicode = 0024;
},
{
glyphname = percent;
layers = (
{
hints = (
{
place = "{41, 95}";
type = Stem;
},
{
place = "{293, 94}";
type = Stem;
},
{
place = "{485, 95}";
type = Stem;
},
{
place = "{736, 95}";
type = Stem;
},
{
horizontal = 1;
place = "{-11, 86}";
type = Stem;
},
{
horizontal = 1;
place = "{-2, 21}";
target = up;
type = BottomGhost;
},
{
horizontal = 1;
place = "{273, 85}";
type = Stem;
},
{
horizontal = 1;
place = "{347, 85}";
type = Stem;
},
{
horizontal = 1;
place = "{632, 85}";
type = Stem;
},
{
horizontal = 1;
place = "{712, -20}";
target = down;
type = TopGhost;
}
);
layerId = "05A2C769-842B-415C-86A7-244CC7525BC2";
paths = (
{
closed = 1;
nodes = (
"387 634 OFFCURVE",
"319 717 OFFCURVE",
"215 717 CURVE SMOOTH",
"112 717 OFFCURVE",
"41 634 OFFCURVE",
"41 533 CURVE SMOOTH",
"41 430 OFFCURVE",
"111 347 OFFCURVE",
"214 347 CURVE SMOOTH",
"317 347 OFFCURVE",
"387 431 OFFCURVE",
"387 534 CURVE SMOOTH"
);
},
{
closed = 1;
nodes = (
"740 705 LINE",
"640 712 LINE",
"129 -2 LINE",
"229 -10 LINE"
);
},
{
closed = 1;
nodes = (
"293 475 OFFCURVE",
"264 432 OFFCURVE",
"215 432 CURVE SMOOTH",
"168 432 OFFCURVE",
"136 474 OFFCURVE",
"136 533 CURVE SMOOTH",
"136 590 OFFCURVE",
"166 632 OFFCURVE",
"214 632 CURVE SMOOTH",
"259 632 OFFCURVE",
"293 591 OFFCURVE",
"293 531 CURVE SMOOTH"
);
},
{
closed = 1;
nodes = (
"831 277 OFFCURVE",
"762 358 OFFCURVE",
"658 358 CURVE SMOOTH",
"556 358 OFFCURVE",
"485 276 OFFCURVE",
"485 174 CURVE SMOOTH",
"485 73 OFFCURVE",
"553 -11 OFFCURVE",
"657 -11 CURVE SMOOTH",
"761 -11 OFFCURVE",
"831 74 OFFCURVE",
"831 175 CURVE SMOOTH"
);
},
{
closed = 1;
nodes = (
"736 118 OFFCURVE",
"706 75 OFFCURVE",
"658 75 CURVE SMOOTH",
"614 75 OFFCURVE",
"580 115 OFFCURVE",
"580 174 CURVE SMOOTH",
"580 233 OFFCURVE",
"609 273 OFFCURVE",
"657 273 CURVE SMOOTH",
"704 273 OFFCURVE",
"736 232 OFFCURVE",
"736 174 CURVE SMOOTH"
);
}
);
width = 871;
}
);
unicode = 0025;
},
{
glyphname = ampersand;
layers = (
{
hints = (
{
place = "{49, 140}";
type = Stem;
},
{
place = "{147, 122}";
type = Stem;
},
{
place = "{416, 117}";
type = Stem;
},
{
horizontal = 1;
place = "{-12, 106}";
type = Stem;
},
{
horizontal = 1;
place = "{-5, 21}";
target = up;
type = BottomGhost;
},
{
horizontal = 1;
place = "{619, 100}";
type = Stem;
}
);
layerId = "05A2C769-842B-415C-86A7-244CC7525BC2";
paths = (
{
closed = 1;
nodes = (
"577 378 LINE",
"554 330 OFFCURVE",
"530 288 OFFCURVE",
"502 246 CURVE",
"386 372 LINE",
"474 411 OFFCURVE",
"533 466 OFFCURVE",
"533 553 CURVE SMOOTH",
"533 646 OFFCURVE",
"458 719 OFFCURVE",
"344 719 CURVE SMOOTH",
"226 719 OFFCURVE",
"147 643 OFFCURVE",
"147 545 CURVE SMOOTH",
"147 494 OFFCURVE",
"168 446 OFFCURVE",
"205 397 CURVE",
"103 356 OFFCURVE",
"49 288 OFFCURVE",
"49 192 CURVE SMOOTH",
"49 66 OFFCURVE",
"151 -12 OFFCURVE",
"285 -12 CURVE SMOOTH",
"370 -12 OFFCURVE",
"436 21 OFFCURVE",
"497 75 CURVE",
"573 -5 LINE",
"707 23 LINE",
"577 166 LINE",
"614 218 OFFCURVE",
"650 284 OFFCURVE",
"681 344 CURVE"
);
},
{
closed = 1;
nodes = (
"385 619 OFFCURVE",
"416 591 OFFCURVE",
"416 547 CURVE SMOOTH",
"416 502 OFFCURVE",
"379 465 OFFCURVE",
"320 440 CURVE",
"288 479 OFFCURVE",
"269 509 OFFCURVE",
"269 542 CURVE SMOOTH",
"269 588 OFFCURVE",
"301 619 OFFCURVE",
"344 619 CURVE SMOOTH"
);
},
{
closed = 1;
nodes = (
"423 156 LINE",
"388 120 OFFCURVE",
"348 94 OFFCURVE",
"300 94 CURVE SMOOTH",
"234 94 OFFCURVE",
"189 139 OFFCURVE",
"189 198 CURVE SMOOTH",
"189 250 OFFCURVE",
"219 287 OFFCURVE",
"277 315 CURVE"
);
}
);
width = 716;
}
);
unicode = 0026;
},
{
glyphname = quotesingle;
layers = (
{
hints = (
{
horizontal = 1;
place = "{704, -20}";
target = down;
type = TopGhost;
},
{
place = "{81, 173}";
type = Stem;
}
);
layerId = "05A2C769-842B-415C-86A7-244CC7525BC2";
paths = (
{
closed = 1;
nodes = (
"81 392 LINE",
"160 392 LINE",
"248 676 LINE",
"254 704 LINE",
"104 704 LINE"
);
}
);
width = 334;
}
);
unicode = 0027;
},
{
glyphname = parenleft;
layers = (
{
hints = (
{
horizontal = 1;
place = "{-147, 869}";
type = Stem;
},
{
place = "{73, 134}";
type = Stem;
}
);
layerId = "05A2C769-842B-415C-86A7-244CC7525BC2";
paths = (
{
closed = 1;
nodes = (
"207 431 OFFCURVE",
"266 537 OFFCURVE",
"393 642 CURVE",
"324 722 LINE",
"168 611 OFFCURVE",
"73 478 OFFCURVE",
"73 286 CURVE SMOOTH",
"73 92 OFFCURVE",
"166 -46 OFFCURVE",
"323 -147 CURVE",
"393 -69 LINE",
"266 37 OFFCURVE",
"207 142 OFFCURVE",
"207 286 CURVE SMOOTH"
);
}
);
width = 435;
}
);
unicode = 0028;
},
{
glyphname = parenright;
layers = (
{
hints = (
{
horizontal = 1;
place = "{-147, 869}";
type = Stem;
},
{
place = "{230, 134}";
type = Stem;
}
);
layerId = "05A2C769-842B-415C-86A7-244CC7525BC2";
paths = (
{
closed = 1;
nodes = (
"230 144 OFFCURVE",
"173 37 OFFCURVE",
"43 -69 CURVE",
"114 -147 LINE",
"273 -42 OFFCURVE",
"364 94 OFFCURVE",
"364 286 CURVE SMOOTH",
"364 476 OFFCURVE",
"274 610 OFFCURVE",
"113 722 CURVE",
"43 642 LINE",
"174 537 OFFCURVE",
"230 429 OFFCURVE",
"230 286 CURVE SMOOTH"
);
}
);
width = 436;
}
);
unicode = 0029;
},
{
glyphname = asterisk;
layers = (
{
hints = (
{
horizontal = 1;
place = "{718, -20}";
target = down;
type = TopGhost;
},
{
place = "{158, 72}";
type = Stem;
}
);
layerId = "05A2C769-842B-415C-86A7-244CC7525BC2";
paths = (
{
closed = 1;
nodes = (
"136 581 LINE",
"23 542 LINE",
"45 475 LINE",
"158 514 LINE",
"158 390 LINE",
"230 390 LINE",
"230 512 LINE",
"341 475 LINE",
"363 542 LINE",
"253 580 LINE",
"321 678 LINE",
"263 718 LINE",
"194 623 LINE",
"124 718 LINE",
"66 677 LINE"
);
}
);
width = 385;
}
);
unicode = 002A;
},
{
glyphname = plus;
layers = (
{
hints = (
{
horizontal = 1;
place = "{288, 121}";
type = Stem;
},
{
place = "{252, 125}";
type = Stem;
}
);
layerId = "05A2C769-842B-415C-86A7-244CC7525BC2";
paths = (
{
closed = 1;
nodes = (
"377 599 LINE",
"252 599 LINE",
"252 409 LINE",
"64 409 LINE",
"64 288 LINE",
"252 288 LINE",
"252 98 LINE",
"377 98 LINE",
"377 288 LINE",
"566 288 LINE",
"566 409 LINE",
"377 409 LINE"
);
}
);
width = 630;
}
);
unicode = 002B;
},
{
glyphname = comma;
layers = (
{
hints = (
{
horizontal = 1;
place = "{-152, 311}";
type = Stem;
},
{
place = "{21, 188}";
type = Stem;
}
);
layerId = "05A2C769-842B-415C-86A7-244CC7525BC2";
paths = (
{
closed = 1;
nodes = (
"209 159 LINE",
"74 159 LINE",
"21 -152 LINE",
"121 -152 LINE"
);
}
);
width = 266;
}
);
unicode = 002C;
},
{
glyphname = hyphen;
layers = (
{
hints = (
{
horizontal = 1;
place = "{212, 122}";
type = Stem;
},
{
place = "{27, 299}";
type = Stem;
}
);
layerId = "05A2C769-842B-415C-86A7-244CC7525BC2";
paths = (
{
closed = 1;
nodes = (
"326 334 LINE",
"27 334 LINE",
"27 212 LINE",
"326 212 LINE"
);
}
);
width = 352;
}
);
unicode = 002D;
},
{
glyphname = period;
layers = (
{
hints = (
{
horizontal = 1;
place = "{-12, 170}";
type = Stem;
},
{
place = "{74, 172}";
type = Stem;
}
);
layerId = "05A2C769-842B-415C-86A7-244CC7525BC2";
paths = (
{
closed = 1;
nodes = (
"74 22 OFFCURVE",
"112 -12 OFFCURVE",
"160 -12 CURVE SMOOTH",
"208 -12 OFFCURVE",
"246 22 OFFCURVE",
"246 74 CURVE SMOOTH",
"246 126 OFFCURVE",
"208 158 OFFCURVE",
"160 158 CURVE SMOOTH",
"112 158 OFFCURVE",
"74 126 OFFCURVE",
"74 74 CURVE SMOOTH"
);
}
);
width = 320;
}
);
unicode = 002E;
},
{
glyphname = slash;
layers = (
{
hints = (
{
horizontal = 1;
place = "{-109, 900}";
type = Stem;
},
{
place = "{1, 547}";
type = Stem;
}
);
layerId = "05A2C769-842B-415C-86A7-244CC7525BC2";
paths = (
{
closed = 1;
nodes = (
"548 783 LINE",
"437 791 LINE",
"1 -103 LINE",
"112 -109 LINE"
);
}
);
width = 549;
}
);
unicode = 002F;
},
{
glyphname = zero;
layers = (
{
hints = (
{
horizontal = 1;
place = "{-14, 124}";
type = Stem;
},
{
horizontal = 1;
place = "{593, 124}";
type = Stem;
},
{
place = "{41, 141}";
type = Stem;
},
{
place = "{490, 141}";
type = Stem;
}
);
layerId = "05A2C769-842B-415C-86A7-244CC7525BC2";
paths = (
{
closed = 1;
nodes = (
"150 717 OFFCURVE",
"41 558 OFFCURVE",
"41 352 CURVE SMOOTH",
"41 141 OFFCURVE",
"149 -14 OFFCURVE",
"335 -14 CURVE SMOOTH",
"523 -14 OFFCURVE",
"631 147 OFFCURVE",
"631 352 CURVE SMOOTH",
"631 561 OFFCURVE",
"523 717 OFFCURVE",
"337 717 CURVE SMOOTH"
);
},
{
closed = 1;
nodes = (
"431 593 OFFCURVE",
"490 493 OFFCURVE",
"490 351 CURVE SMOOTH",
"490 212 OFFCURVE",
"433 110 OFFCURVE",
"337 110 CURVE SMOOTH",
"240 110 OFFCURVE",
"182 209 OFFCURVE",
"182 355 CURVE SMOOTH",
"182 493 OFFCURVE",
"240 593 OFFCURVE",
"335 593 CURVE SMOOTH"
);
}
);
width = 671;
}
);
unicode = 0030;
},
{
glyphname = one;
layers = (
{
hints = (
{
horizontal = 1;
place = "{0, 21}";
target = up;
type = BottomGhost;
},
{
horizontal = 1;
place = "{577, 130}";
type = Stem;
},
{
place = "{143, 137}";
type = Stem;
}
);
layerId = "05A2C769-842B-415C-86A7-244CC7525BC2";
paths = (
{
closed = 1;
nodes = (
"280 707 LINE",
"11 707 LINE",
"11 577 LINE",
"143 577 LINE",
"143 0 LINE",
"280 0 LINE"
);
}
);
width = 372;
}
);
unicode = 0031;
},
{
glyphname = two;
layers = (
{
hints = (
{
horizontal = 1;
place = "{0, 117}";
type = Stem;
},
{
horizontal = 1;
place = "{593, 122}";
type = Stem;
},
{
place = "{381, 142}";
type = Stem;
}
);
layerId = "05A2C769-842B-415C-86A7-244CC7525BC2";
paths = (
{
closed = 1;
nodes = (
"143 715 OFFCURVE",
"38 639 OFFCURVE",
"26 483 CURVE",
"161 483 LINE",
"167 553 OFFCURVE",
"215 593 OFFCURVE",
"280 593 CURVE SMOOTH",
"349 593 OFFCURVE",
"381 553 OFFCURVE",
"381 504 CURVE SMOOTH",
"381 459 OFFCURVE",
"353 402 OFFCURVE",
"285 319 CURVE",
"18 0 LINE",
"533 0 LINE",
"533 117 LINE",
"281 117 LINE",
"392 254 LINE SMOOTH",
"481 364 OFFCURVE",
"523 432 OFFCURVE",
"523 509 CURVE SMOOTH",
"523 629 OFFCURVE",
"424 715 OFFCURVE",
"282 715 CURVE SMOOTH"
);
}
);
width = 590;
}
);
unicode = 0032;
},
{
glyphname = three;
layers = (
{
hints = (
{
horizontal = 1;
place = "{-14, 122}";
type = Stem;
},
{
horizontal = 1;
place = "{593, 116}";
type = Stem;
},
{
place = "{432, 137}";
type = Stem;
}
);
layerId = "05A2C769-842B-415C-86A7-244CC7525BC2";
paths = (
{
closed = 1;
nodes = (
"548 603 LINE",
"548 709 LINE",
"89 709 LINE",
"89 593 LINE",
"376 593 LINE",
"189 407 LINE",
"209 334 LINE",
"228 336 OFFCURVE",
"267 337 OFFCURVE",
"286 337 CURVE SMOOTH",
"372 337 OFFCURVE",
"432 302 OFFCURVE",
"432 223 CURVE SMOOTH",
"432 153 OFFCURVE",
"380 108 OFFCURVE",
"307 108 CURVE SMOOTH",
"237 108 OFFCURVE",
"184 145 OFFCURVE",
"146 213 CURVE",
"44 133 LINE",
"96 45 OFFCURVE",
"188 -14 OFFCURVE",
"312 -14 CURVE SMOOTH",
"464 -14 OFFCURVE",
"569 87 OFFCURVE",
"569 223 CURVE SMOOTH",
"569 350 OFFCURVE",
"481 418 OFFCURVE",
"367 430 CURVE"
);
}
);
width = 626;
}
);
unicode = 0033;
},
{
glyphname = four;
layers = (
{
hints = (
{
horizontal = 1;
place = "{0, 21}";
target = up;
type = BottomGhost;
},
{
horizontal = 1;
place = "{145, 109}";
type = Stem;
},
{
horizontal = 1;
place = "{709, -20}";
target = down;
type = TopGhost;
},
{
place = "{398, 135}";
type = Stem;
}
);
layerId = "05A2C769-842B-415C-86A7-244CC7525BC2";
paths = (
{
closed = 1;
nodes = (
"372 709 LINE",
"18 252 LINE",
"42 145 LINE",
"398 145 LINE",
"398 0 LINE",
"533 0 LINE",
"533 145 LINE",
"627 145 LINE",
"627 254 LINE",
"533 254 LINE",
"533 709 LINE"
);
},
{
closed = 1;
nodes = (
"398 254 LINE",
"168 254 LINE",
"398 558 LINE"
);
}
);
width = 657;
}
);
unicode = 0034;
},
{
glyphname = five;
layers = (
{
hints = (
{
horizontal = 1;
place = "{-14, 121}";
type = Stem;
},
{
horizontal = 1;
place = "{343, 109}";
type = Stem;
},
{
horizontal = 1;
place = "{585, 118}";
type = Stem;
},
{
place = "{411, 137}";
type = Stem;
}
);
layerId = "05A2C769-842B-415C-86A7-244CC7525BC2";
paths = (
{
closed = 1;
nodes = (
"165 316 LINE",
"198 332 OFFCURVE",
"231 343 OFFCURVE",
"270 343 CURVE SMOOTH",
"351 343 OFFCURVE",
"411 296 OFFCURVE",
"411 227 CURVE SMOOTH",
"411 155 OFFCURVE",
"360 107 OFFCURVE",
"276 107 CURVE SMOOTH",
"212 107 OFFCURVE",
"157 135 OFFCURVE",
"104 183 CURVE",
"24 90 LINE",
"93 26 OFFCURVE",
"167 -14 OFFCURVE",
"277 -14 CURVE SMOOTH",
"439 -14 OFFCURVE",
"548 81 OFFCURVE",
"548 230 CURVE SMOOTH",
"548 374 OFFCURVE",
"436 452 OFFCURVE",
"307 452 CURVE SMOOTH",
"265 452 OFFCURVE",
"233 443 OFFCURVE",
"198 429 CURVE",
"212 585 LINE",
"517 585 LINE",
"521 703 LINE",
"101 703 LINE",
"75 363 LINE"
);
}
);
width = 599;
}
);
unicode = 0035;
},
{
glyphname = six;
layers = (
{
hints = (
{
horizontal = 1;
place = "{-14, 112}";
type = Stem;
},
{
horizontal = 1;
place = "{340, 103}";
type = Stem;
},
{
horizontal = 1;
place = "{706, -20}";
target = down;
type = TopGhost;
},
{
place = "{42, 141}";
type = Stem;
},
{
place = "{439, 138}";
type = Stem;
}
);
layerId = "05A2C769-842B-415C-86A7-244CC7525BC2";
paths = (
{
closed = 1;
nodes = (
"305 706 LINE",
"155 481 LINE SMOOTH",
"73 358 OFFCURVE",
"42 296 OFFCURVE",
"42 223 CURVE SMOOTH",
"42 80 OFFCURVE",
"154 -14 OFFCURVE",
"315 -14 CURVE SMOOTH",
"463 -14 OFFCURVE",
"577 83 OFFCURVE",
"577 228 CURVE SMOOTH",
"577 363 OFFCURVE",
"488 443 OFFCURVE",
"365 443 CURVE SMOOTH",
"310 443 OFFCURVE",
"282 434 OFFCURVE",
"246 407 CURVE",
"454 706 LINE"
);
},
{
closed = 1;
nodes = (
"183 286 OFFCURVE",
"233 340 OFFCURVE",
"311 340 CURVE SMOOTH",
"388 340 OFFCURVE",
"439 289 OFFCURVE",
"439 221 CURVE SMOOTH",
"439 150 OFFCURVE",
"389 98 OFFCURVE",
"312 98 CURVE SMOOTH",
"237 98 OFFCURVE",
"183 152 OFFCURVE",
"183 220 CURVE SMOOTH"
);
}
);
width = 620;
}
);
unicode = 0036;
},
{
glyphname = seven;
layers = (
{
hints = (
{
horizontal = 1;
place = "{0, 21}";
target = up;
type = BottomGhost;
},
{
horizontal = 1;
place = "{584, 119}";
type = Stem;
},
{
place = "{34, 509}";
type = Stem;
}
);
layerId = "05A2C769-842B-415C-86A7-244CC7525BC2";
paths = (
{
closed = 1;
nodes = (
"543 592 LINE",
"543 703 LINE",
"34 703 LINE",
"34 584 LINE",
"391 584 LINE",
"65 0 LINE",
"218 0 LINE"
);
}
);
width = 536;
}
);
unicode = 0037;
},
{
glyphname = eight;
layers = (
{
hints = (
{
place = "{57, 136}";
type = Stem;
},
{
place = "{82, 131}";
type = Stem;
},
{
place = "{437, 130}";
type = Stem;
},
{
place = "{456, 136}";
type = Stem;
},
{
horizontal = 1;
place = "{-12, 109}";
type = Stem;
},
{
horizontal = 1;
place = "{311, 99}";
type = Stem;
},
{
horizontal = 1;
place = "{607, 108}";
type = Stem;
}
);
layerId = "05A2C769-842B-415C-86A7-244CC7525BC2";
paths = (
{
closed = 1;
nodes = (
"567 634 OFFCURVE",
"462 715 OFFCURVE",
"324 715 CURVE SMOOTH",
"186 715 OFFCURVE",
"82 634 OFFCURVE",
"82 524 CURVE SMOOTH",
"82 450 OFFCURVE",
"122 398 OFFCURVE",
"185 367 CURVE",
"104 332 OFFCURVE",
"57 274 OFFCURVE",
"57 193 CURVE SMOOTH",
"57 74 OFFCURVE",
"170 -12 OFFCURVE",
"324 -12 CURVE SMOOTH",
"478 -12 OFFCURVE",
"592 70 OFFCURVE",
"592 194 CURVE SMOOTH",
"592 274 OFFCURVE",
"543 333 OFFCURVE",
"463 366 CURVE",
"525 399 OFFCURVE",
"567 448 OFFCURVE",
"567 522 CURVE SMOOTH"
);
},
{
closed = 1;
nodes = (
"213 565 OFFCURVE",
"259 607 OFFCURVE",
"324 607 CURVE SMOOTH",
"390 607 OFFCURVE",
"437 564 OFFCURVE",
"437 510 CURVE SMOOTH",
"437 453 OFFCURVE",
"389 410 OFFCURVE",
"324 410 CURVE SMOOTH",
"261 410 OFFCURVE",
"213 454 OFFCURVE",
"213 510 CURVE SMOOTH"
);
},
{
closed = 1;
nodes = (
"193 267 OFFCURVE",
"248 311 OFFCURVE",
"324 311 CURVE SMOOTH",
"401 311 OFFCURVE",
"456 267 OFFCURVE",
"456 205 CURVE SMOOTH",
"456 146 OFFCURVE",
"405 97 OFFCURVE",
"324 97 CURVE SMOOTH",
"243 97 OFFCURVE",
"193 146 OFFCURVE",
"193 205 CURVE SMOOTH"
);
}
);
width = 649;
}
);
unicode = 0038;
},
{
glyphname = nine;
layers = (
{
hints = (
{
horizontal = 1;
place = "{-1, 21}";
target = up;
type = BottomGhost;
},
{
horizontal = 1;
place = "{260, 106}";
type = Stem;
},
{
horizontal = 1;
place = "{608, 112}";
type = Stem;
},
{
place = "{42, 137}";
type = Stem;
},
{
place = "{435, 141}";
type = Stem;
}
);
layerId = "05A2C769-842B-415C-86A7-244CC7525BC2";
paths = (
{
closed = 1;
nodes = (
"313 -1 LINE",
"487 263 LINE SMOOTH",
"543 348 OFFCURVE",
"576 412 OFFCURVE",
"576 482 CURVE SMOOTH",
"576 625 OFFCURVE",
"467 720 OFFCURVE",
"301 720 CURVE SMOOTH",
"157 720 OFFCURVE",
"42 623 OFFCURVE",
"42 479 CURVE SMOOTH",
"42 345 OFFCURVE",
"132 260 OFFCURVE",
"255 260 CURVE SMOOTH",
"306 260 OFFCURVE",
"336 272 OFFCURVE",
"372 299 CURVE",
"165 -1 LINE"
);
},
{
closed = 1;
nodes = (
"435 420 OFFCURVE",
"384 366 OFFCURVE",
"307 366 CURVE SMOOTH",
"231 366 OFFCURVE",
"179 419 OFFCURVE",
"179 487 CURVE SMOOTH",
"179 555 OFFCURVE",
"229 608 OFFCURVE",
"306 608 CURVE SMOOTH",
"380 608 OFFCURVE",
"435 554 OFFCURVE",
"435 487 CURVE SMOOTH"
);
}
);
width = 618;
}
);
unicode = 0039;
},
{
glyphname = colon;
layers = (
{
hints = (
{
horizontal = 1;
place = "{-12, 171}";
type = Stem;
},
{
horizontal = 1;
place = "{352, 170}";
type = Stem;
},
{
place = "{74, 172}";
type = Stem;
}
);
layerId = "05A2C769-842B-415C-86A7-244CC7525BC2";
paths = (
{
closed = 1;
nodes = (
"74 384 OFFCURVE",
"110 352 OFFCURVE",
"160 352 CURVE SMOOTH",
"208 352 OFFCURVE",
"246 384 OFFCURVE",
"246 437 CURVE SMOOTH",
"246 490 OFFCURVE",
"208 522 OFFCURVE",
"160 522 CURVE SMOOTH",
"110 522 OFFCURVE",
"74 490 OFFCURVE",
"74 437 CURVE SMOOTH"
);
},
{
closed = 1;
nodes = (
"74 22 OFFCURVE",
"110 -12 OFFCURVE",
"160 -12 CURVE SMOOTH",
"208 -12 OFFCURVE",
"246 22 OFFCURVE",
"246 74 CURVE SMOOTH",
"246 127 OFFCURVE",
"208 159 OFFCURVE",
"160 159 CURVE SMOOTH",
"110 159 OFFCURVE",
"74 127 OFFCURVE",
"74 74 CURVE SMOOTH"
);
}
);
width = 321;
}
);
unicode = 003A;
},
{
glyphname = semicolon;
layers = (
{
hints = (
{
horizontal = 1;
place = "{352, 170}";
type = Stem;
},
{
place = "{47, 173}";
type = Stem;
}
);
layerId = "05A2C769-842B-415C-86A7-244CC7525BC2";
paths = (
{
closed = 1;
nodes = (
"47 384 OFFCURVE",
"84 352 OFFCURVE",
"134 352 CURVE SMOOTH",
"181 352 OFFCURVE",
"220 384 OFFCURVE",
"220 437 CURVE SMOOTH",
"220 490 OFFCURVE",
"181 522 OFFCURVE",
"134 522 CURVE SMOOTH",
"84 522 OFFCURVE",
"47 490 OFFCURVE",
"47 437 CURVE SMOOTH"
);
},
{
closed = 1;
nodes = (
"210 159 LINE",
"74 159 LINE",
"21 -152 LINE",
"121 -152 LINE"
);
}
);
width = 276;
}
);
unicode = 003B;
},
{
glyphname = less;
layers = (
{
hints = (
{
horizontal = 1;
place = "{72, 550}";
type = Stem;
},
{
place = "{72, 488}";
type = Stem;
}
);
layerId = "05A2C769-842B-415C-86A7-244CC7525BC2";
paths = (
{
closed = 1;
nodes = (
"560 622 LINE",
"72 409 LINE",
"72 285 LINE",
"560 72 LINE",
"560 201 LINE",
"203 348 LINE",
"560 494 LINE"
);
}
);
width = 630;
}
);
unicode = 003C;
},
{
glyphname = equal;
layers = (
{
hints = (
{
horizontal = 1;
place = "{165, 121}";
type = Stem;
},
{
horizontal = 1;
place = "{421, 121}";
type = Stem;
},
{
place = "{64, 483}";
type = Stem;
}
);
layerId = "05A2C769-842B-415C-86A7-244CC7525BC2";
paths = (
{
closed = 1;
nodes = (
"64 542 LINE",
"64 421 LINE",
"547 421 LINE",
"547 542 LINE"
);
},
{
closed = 1;
nodes = (
"64 286 LINE",
"64 165 LINE",
"547 165 LINE",
"547 286 LINE"
);
}
);
width = 611;
}
);
unicode = 003D;
},
{
glyphname = greater;
layers = (
{
hints = (
{
horizontal = 1;
place = "{73, 549}";
type = Stem;
},
{
place = "{72, 487}";
type = Stem;
}
);
layerId = "05A2C769-842B-415C-86A7-244CC7525BC2";
paths = (
{
closed = 1;
nodes = (
"72 493 LINE",
"429 347 LINE",
"72 201 LINE",
"72 73 LINE",
"559 285 LINE",
"559 410 LINE",
"72 622 LINE"
);
}
);
width = 630;
}
);
unicode = 003E;
},
{
glyphname = question;
layers = (
{
hints = (
{
place = "{136, 168}";
type = Stem;
},
{
place = "{149, 128}";
type = Stem;
},
{
place = "{301, 137}";
type = Stem;
},
{
horizontal = 1;
place = "{-11, 156}";
type = Stem;
},
{
horizontal = 1;
place = "{594, 119}";
type = Stem;
}
);
layerId = "05A2C769-842B-415C-86A7-244CC7525BC2";
paths = (
{
closed = 1;
nodes = (
"263 594 OFFCURVE",
"301 562 OFFCURVE",
"301 519 CURVE SMOOTH",
"301 481 OFFCURVE",
"272 451 OFFCURVE",
"240 423 CURVE SMOOTH",
"196 385 OFFCURVE",
"149 340 OFFCURVE",
"149 257 CURVE SMOOTH",
"149 204 LINE",
"277 204 LINE",
"277 236 LINE SMOOTH",
"277 290 OFFCURVE",
"294 313 OFFCURVE",
"336 350 CURVE",
"395 397 OFFCURVE",
"438 446 OFFCURVE",
"438 529 CURVE SMOOTH",
"438 644 OFFCURVE",
"347 713 OFFCURVE",
"231 713 CURVE SMOOTH",
"155 713 OFFCURVE",
"87 685 OFFCURVE",
"46 631 CURVE",
"46 504 LINE",
"90 557 OFFCURVE",
"149 594 OFFCURVE",
"209 594 CURVE SMOOTH"
);
},
{
closed = 1;
nodes = (
"136 17 OFFCURVE",
"173 -11 OFFCURVE",
"219 -11 CURVE SMOOTH",
"266 -11 OFFCURVE",
"304 17 OFFCURVE",
"304 67 CURVE SMOOTH",
"304 115 OFFCURVE",
"266 145 OFFCURVE",
"219 145 CURVE SMOOTH",
"173 145 OFFCURVE",
"136 115 OFFCURVE",
"136 67 CURVE SMOOTH"
);
}
);
width = 483;
}
);
unicode = 003F;
},
{
glyphname = at;
layers = (
{
hints = (
{
place = "{44, 52}";
type = Stem;
},
{
place = "{225, 119}";
type = Stem;
},
{
place = "{553, 105}";
type = Stem;
},
{
place = "{832, 51}";
type = Stem;
},
{
horizontal = 1;
place = "{-128, 47}";
type = Stem;
},
{
horizontal = 1;
place = "{83, 57}";
type = Stem;
},
{
horizontal = 1;
place = "{85, 100}";
type = Stem;
},
{
horizontal = 1;
place = "{421, 101}";
type = Stem;
},
{
horizontal = 1;
place = "{671, 46}";
type = Stem;
}
);
layerId = "05A2C769-842B-415C-86A7-244CC7525BC2";
paths = (
{
closed = 1;
nodes = (
"724 -15 LINE",
"648 -61 OFFCURVE",
"575 -81 OFFCURVE",
"481 -81 CURVE SMOOTH",
"248 -81 OFFCURVE",
"96 80 OFFCURVE",
"96 293 CURVE SMOOTH",
"96 506 OFFCURVE",
"252 671 OFFCURVE",
"471 671 CURVE SMOOTH",
"683 671 OFFCURVE",
"832 524 OFFCURVE",
"832 336 CURVE SMOOTH",
"832 213 OFFCURVE",
"783 140 OFFCURVE",
"719 140 CURVE SMOOTH",
"672 140 OFFCURVE",
"654 183 OFFCURVE",
"658 232 CURVE",
"700 494 LINE",
"587 509 LINE",
"576 446 LINE",
"550 489 OFFCURVE",
"510 522 OFFCURVE",
"443 522 CURVE SMOOTH",
"325 522 OFFCURVE",
"225 412 OFFCURVE",
"225 278 CURVE SMOOTH",
"225 163 OFFCURVE",
"302 85 OFFCURVE",
"404 85 CURVE SMOOTH",
"469 85 OFFCURVE",
"516 118 OFFCURVE",
"552 164 CURVE",
"574 115 OFFCURVE",
"613 83 OFFCURVE",
"685 83 CURVE SMOOTH",
"791 83 OFFCURVE",
"883 172 OFFCURVE",
"883 341 CURVE SMOOTH",
"883 549 OFFCURVE",
"704 717 OFFCURVE",
"471 717 CURVE SMOOTH",
"229 717 OFFCURVE",
"44 527 OFFCURVE",
"44 292 CURVE SMOOTH",
"44 57 OFFCURVE",
"225 -128 OFFCURVE",
"476 -128 CURVE SMOOTH",
"580 -128 OFFCURVE",
"667 -99 OFFCURVE",
"746 -48 CURVE"
);
},
{
closed = 1;
nodes = (
"518 421 OFFCURVE",
"553 382 OFFCURVE",
"553 324 CURVE SMOOTH",
"553 251 OFFCURVE",
"500 185 OFFCURVE",
"433 185 CURVE SMOOTH",
"379 185 OFFCURVE",
"344 224 OFFCURVE",
"344 286 CURVE SMOOTH",
"344 360 OFFCURVE",
"396 421 OFFCURVE",
"463 421 CURVE SMOOTH"
);
}
);
width = 927;
}
);
unicode = 0040;
},
{
glyphname = A;
layers = (
{
hints = (
{
horizontal = 1;
place = "{0, 21}";
target = up;
type = BottomGhost;
},
{
horizontal = 1;
place = "{161, 113}";
type = Stem;
},
{
horizontal = 1;
place = "{705, -20}";
target = down;
type = TopGhost;
},
{
place = "{-7, 736}";
type = Stem;
}
);
layerId = "05A2C769-842B-415C-86A7-244CC7525BC2";
paths = (
{
closed = 1;
nodes = (
"511 161 LINE",
"578 0 LINE",
"729 0 LINE",
"425 705 LINE",
"297 705 LINE",
"-7 0 LINE",
"141 0 LINE",
"209 161 LINE"
);
},
{
closed = 1;
nodes = (
"360 541 LINE",
"467 274 LINE",
"253 274 LINE"
);
}
);
width = 722;
}
);
unicode = 0041;
},
{
glyphname = B;
layers = (
{
hints = (
{
place = "{69, 137}";
type = Stem;
},
{
place = "{451, 139}";
type = Stem;
},
{
place = "{499, 139}";
type = Stem;
},
{
horizontal = 1;
place = "{0, 115}";
type = Stem;
},
{
horizontal = 1;
place = "{304, 105}";
type = Stem;
},
{
horizontal = 1;
place = "{588, 115}";
type = Stem;
}
);
layerId = "05A2C769-842B-415C-86A7-244CC7525BC2";
paths = (
{
closed = 1;
nodes = (
"69 0 LINE",
"363 0 LINE SMOOTH",
"549 0 OFFCURVE",
"638 82 OFFCURVE",
"638 195 CURVE SMOOTH",
"638 284 OFFCURVE",
"586 345 OFFCURVE",
"485 366 CURVE",
"551 392 OFFCURVE",
"590 448 OFFCURVE",
"590 526 CURVE SMOOTH",
"590 648 OFFCURVE",
"484 703 OFFCURVE",
"348 703 CURVE SMOOTH",
"69 703 LINE"
);
},
{
closed = 1;
nodes = (
"206 588 LINE",
"332 588 LINE SMOOTH",
"406 588 OFFCURVE",
"451 559 OFFCURVE",
"451 500 CURVE SMOOTH",
"451 446 OFFCURVE",
"412 409 OFFCURVE",
"330 409 CURVE SMOOTH",
"206 409 LINE"
);
},
{
closed = 1;
nodes = (
"206 304 LINE",
"342 304 LINE SMOOTH",
"454 304 OFFCURVE",
"499 269 OFFCURVE",
"499 210 CURVE SMOOTH",
"499 150 OFFCURVE",
"453 115 OFFCURVE",
"360 115 CURVE SMOOTH",
"206 115 LINE"
);
}
);
width = 678;
}
);
unicode = 0042;
},
{
glyphname = C;
layers = (
{
hints = (
{
horizontal = 1;
place = "{-14, 127}";
type = Stem;
},
{
horizontal = 1;
place = "{590, 127}";
type = Stem;
},
{
place = "{44, 144}";
type = Stem;
}
);
layerId = "05A2C769-842B-415C-86A7-244CC7525BC2";
paths = (
{
closed = 1;
nodes = (
"635 212 LINE",
"571 154 OFFCURVE",
"505 113 OFFCURVE",
"417 113 CURVE SMOOTH",
"278 113 OFFCURVE",
"188 219 OFFCURVE",
"188 352 CURVE SMOOTH",
"188 483 OFFCURVE",
"278 590 OFFCURVE",
"417 590 CURVE SMOOTH",
"511 590 OFFCURVE",
"577 553 OFFCURVE",
"625 501 CURVE",
"625 648 LINE",
"569 689 OFFCURVE",
"502 717 OFFCURVE",
"411 717 CURVE SMOOTH",
"200 717 OFFCURVE",
"44 556 OFFCURVE",
"44 351 CURVE SMOOTH",
"44 143 OFFCURVE",
"203 -14 OFFCURVE",
"405 -14 CURVE SMOOTH",
"499 -14 OFFCURVE",
"570 16 OFFCURVE",
"635 66 CURVE"
);
}
);
width = 686;
}
);
unicode = 0043;
},
{
glyphname = D;
layers = (
{
hints = (
{
horizontal = 1;
place = "{0, 124}";
type = Stem;
},
{
horizontal = 1;
place = "{578, 125}";
type = Stem;
},
{
place = "{69, 139}";
type = Stem;
},
{
place = "{555, 145}";
type = Stem;
}
);
layerId = "05A2C769-842B-415C-86A7-244CC7525BC2";
paths = (
{
closed = 1;
nodes = (
"69 0 LINE",
"312 0 LINE SMOOTH",
"551 0 OFFCURVE",
"700 149 OFFCURVE",
"700 354 CURVE SMOOTH",
"700 562 OFFCURVE",
"547 703 OFFCURVE",
"314 703 CURVE SMOOTH",
"69 703 LINE"
);
},
{
closed = 1;
nodes = (
"208 578 LINE",
"337 578 LINE SMOOTH",
"474 578 OFFCURVE",
"555 473 OFFCURVE",
"555 351 CURVE SMOOTH",
"555 215 OFFCURVE",
"465 124 OFFCURVE",
"313 124 CURVE SMOOTH",
"208 124 LINE"
);
}
);
width = 745;
}
);
unicode = 0044;
},
{
glyphname = E;
layers = (
{
hints = (
{
horizontal = 1;
place = "{0, 121}";
type = Stem;
},
{
horizontal = 1;
place = "{299, 114}";
type = Stem;
},
{
horizontal = 1;
place = "{582, 121}";
type = Stem;
},
{
place = "{69, 139}";
type = Stem;
}
);
layerId = "05A2C769-842B-415C-86A7-244CC7525BC2";
paths = (
{
closed = 1;
nodes = (
"208 299 LINE",
"548 299 LINE",
"548 413 LINE",
"208 413 LINE",
"208 582 LINE",
"580 582 LINE",
"580 703 LINE",
"69 703 LINE",
"69 0 LINE",
"588 0 LINE",
"588 121 LINE",
"208 121 LINE"
);
}
);
width = 647;
}
);
unicode = 0045;
},
{
glyphname = F;
layers = (
{
hints = (
{
horizontal = 1;
place = "{-1, 21}";
target = up;
type = BottomGhost;
},
{
horizontal = 1;
place = "{282, 118}";
type = Stem;
},
{
horizontal = 1;
place = "{580, 123}";
type = Stem;
},
{
place = "{69, 140}";
type = Stem;
}
);
layerId = "05A2C769-842B-415C-86A7-244CC7525BC2";
paths = (
{
closed = 1;
nodes = (
"209 282 LINE",
"545 282 LINE",
"545 400 LINE",
"209 400 LINE",
"209 580 LINE",
"578 580 LINE",
"578 703 LINE",
"69 703 LINE",
"69 -1 LINE",
"209 -1 LINE"
);
}
);
width = 624;
}
);
unicode = 0046;
},
{
glyphname = G;
layers = (
{
hints = (
{
place = "{44, 142}";
type = Stem;
},
{
place = "{445, 189}";
type = Stem;
},
{
place = "{619, 132}";
type = Stem;
},
{
horizontal = 1;
place = "{-15, 123}";
type = Stem;
},
{
horizontal = 1;
place = "{294, 110}";
type = Stem;
},
{
horizontal = 1;
place = "{592, 125}";
type = Stem;
}
);
layerId = "05A2C769-842B-415C-86A7-244CC7525BC2";
paths = (
{
closed = 1;
nodes = (
"619 294 LINE",
"619 174 OFFCURVE",
"522 108 OFFCURVE",
"417 108 CURVE SMOOTH",
"287 108 OFFCURVE",
"186 211 OFFCURVE",
"186 351 CURVE SMOOTH",
"186 483 OFFCURVE",
"295 592 OFFCURVE",
"432 592 CURVE SMOOTH",
"513 592 OFFCURVE",
"583 561 OFFCURVE",
"634 514 CURVE",
"634 664 LINE",
"573 700 OFFCURVE",
"497 717 OFFCURVE",
"424 717 CURVE SMOOTH",
"210 717 OFFCURVE",
"44 556 OFFCURVE",
"44 351 CURVE SMOOTH",
"44 144 OFFCURVE",
"203 -15 OFFCURVE",
"409 -15 CURVE SMOOTH",
"610 -15 OFFCURVE",
"751 116 OFFCURVE",
"751 371 CURVE SMOOTH",
"751 404 LINE",
"445 404 LINE",
"445 294 LINE"
);
}
);
width = 795;
}
);
unicode = 0047;
},
{
glyphname = H;
layers = (
{
hints = (
{
horizontal = 1;
place = "{0, 21}";
target = up;
type = BottomGhost;
},
{
horizontal = 1;
place = "{293, 125}";
type = Stem;
},
{
horizontal = 1;
place = "{703, -20}";
target = down;
type = TopGhost;
},
{
place = "{69, 139}";
type = Stem;
},
{
place = "{523, 139}";
type = Stem;
}
);
layerId = "05A2C769-842B-415C-86A7-244CC7525BC2";
paths = (
{
closed = 1;
nodes = (
"69 0 LINE",
"208 0 LINE",
"208 293 LINE",
"523 293 LINE",
"523 0 LINE",
"662 0 LINE",
"662 703 LINE",
"523 703 LINE",
"523 418 LINE",
"208 418 LINE",
"208 703 LINE",
"69 703 LINE"
);
}
);
width = 732;
}
);
unicode = 0048;
},
{
glyphname = J;
layers = (
{
hints = (
{
horizontal = 1;
place = "{-12, 124}";
type = Stem;
},
{
horizontal = 1;
place = "{703, -20}";
target = down;
type = TopGhost;
},
{
place = "{219, 140}";
type = Stem;
}
);
layerId = "05A2C769-842B-415C-86A7-244CC7525BC2";
paths = (
{
closed = 1;
nodes = (
"-1 32 LINE",
"39 5 OFFCURVE",
"84 -12 OFFCURVE",
"132 -12 CURVE SMOOTH",
"274 -12 OFFCURVE",
"359 80 OFFCURVE",
"359 233 CURVE SMOOTH",
"359 703 LINE",
"219 703 LINE",
"219 232 LINE SMOOTH",
"219 147 OFFCURVE",
"183 112 OFFCURVE",
"125 112 CURVE SMOOTH",
"76 112 OFFCURVE",
"37 140 OFFCURVE",
"-1 169 CURVE"
);
}
);
width = 422;
}
);
unicode = 004A;
},
{
glyphname = K;
layers = (
{
hints = (
{
horizontal = 1;
place = "{0, 21}";
target = up;
type = BottomGhost;
},
{
horizontal = 1;
place = "{703, -20}";
target = down;
type = TopGhost;
},
{
place = "{69, 139}";
type = Stem;
}
);
layerId = "05A2C769-842B-415C-86A7-244CC7525BC2";
paths = (
{
closed = 1;
nodes = (
"208 703 LINE",
"69 703 LINE",
"69 0 LINE",
"208 0 LINE",
"208 349 LINE",
"479 0 LINE",
"649 0 LINE",
"347 387 LINE",
"631 703 LINE",
"462 703 LINE",
"208 413 LINE"
);
}
);
width = 646;
}
);
unicode = 004B;
},
{
glyphname = L;
layers = (
{
hints = (
{
horizontal = 1;
place = "{0, 123}";
type = Stem;
},
{
horizontal = 1;
place = "{703, -20}";
target = down;
type = TopGhost;
},
{
place = "{69, 139}";
type = Stem;
}
);
layerId = "05A2C769-842B-415C-86A7-244CC7525BC2";
paths = (
{
closed = 1;
nodes = (
"208 703 LINE",
"69 703 LINE",
"69 0 LINE",
"550 0 LINE",
"550 123 LINE",
"208 123 LINE"
);
}
);
width = 567;
}
);
unicode = 004C;
},
{
glyphname = M;
layers = (
{
hints = (
{
horizontal = 1;
place = "{0, 21}";
target = up;
type = BottomGhost;
},
{
place = "{23, 137}";
type = Stem;
},
{
place = "{614, 138}";
type = Stem;
}
);
layerId = "05A2C769-842B-415C-86A7-244CC7525BC2";
paths = (
{
closed = 1;
nodes = (
"387 141 LINE",
"614 484 LINE",
"614 0 LINE",
"752 0 LINE",
"752 700 LINE",
"609 700 LINE",
"388 354 LINE",
"167 700 LINE",
"23 700 LINE",
"23 0 LINE",
"160 0 LINE",
"160 483 LINE"
);
}
);
width = 776;
}
);
unicode = 004D;
},
{
glyphname = N;
layers = (
{
hints = (
{
horizontal = 1;
place = "{0, 21}";
target = up;
type = BottomGhost;
},
{
horizontal = 1;
place = "{703, -20}";
target = down;
type = TopGhost;
},
{
place = "{69, 137}";
type = Stem;
},
{
place = "{555, 137}";
type = Stem;
}
);
layerId = "05A2C769-842B-415C-86A7-244CC7525BC2";
paths = (
{
closed = 1;
nodes = (
"202 700 LINE",
"69 700 LINE",
"69 0 LINE",
"206 0 LINE",
"206 481 LINE",
"565 0 LINE",
"692 0 LINE",
"692 703 LINE",
"555 703 LINE",
"555 228 LINE"
);
}
);
width = 762;
}
);
unicode = 004E;
},
{
glyphname = O;
layers = (
{
hints = (
{
horizontal = 1;
place = "{-14, 126}";
type = Stem;
},
{
horizontal = 1;
place = "{591, 126}";
type = Stem;
},
{
place = "{44, 143}";
type = Stem;
},
{
place = "{644, 143}";
type = Stem;
}
);
layerId = "05A2C769-842B-415C-86A7-244CC7525BC2";
paths = (
{
closed = 1;
nodes = (
"787 553 OFFCURVE",
"630 717 OFFCURVE",
"417 717 CURVE SMOOTH",
"202 717 OFFCURVE",
"44 553 OFFCURVE",
"44 351 CURVE SMOOTH",
"44 149 OFFCURVE",
"201 -14 OFFCURVE",
"415 -14 CURVE SMOOTH",
"628 -14 OFFCURVE",
"787 151 OFFCURVE",
"787 353 CURVE SMOOTH"
);
},
{
closed = 1;
nodes = (
"644 221 OFFCURVE",
"550 112 OFFCURVE",
"416 112 CURVE SMOOTH",
"281 112 OFFCURVE",
"187 221 OFFCURVE",
"187 353 CURVE SMOOTH",
"187 484 OFFCURVE",
"280 591 OFFCURVE",
"416 591 CURVE SMOOTH",
"550 591 OFFCURVE",
"644 481 OFFCURVE",
"644 350 CURVE SMOOTH"
);
}
);
width = 831;
}
);
unicode = 004F;
},
{
glyphname = P;
layers = (
{
hints = (
{
horizontal = 1;
place = "{-1, 21}";
target = up;
type = BottomGhost;
},
{
horizontal = 1;
place = "{240, 114}";
type = Stem;
},
{
horizontal = 1;
place = "{583, 120}";
type = Stem;
},
{
place = "{69, 140}";
type = Stem;
},
{
place = "{464, 140}";
type = Stem;
}
);
layerId = "05A2C769-842B-415C-86A7-244CC7525BC2";
paths = (
{
closed = 1;
nodes = (
"69 -1 LINE",
"209 -1 LINE",
"209 240 LINE",
"324 240 LINE SMOOTH",
"483 240 OFFCURVE",
"604 324 OFFCURVE",
"604 476 CURVE SMOOTH",
"604 619 OFFCURVE",
"496 703 OFFCURVE",
"333 703 CURVE SMOOTH",
"69 703 LINE"
);
},
{
closed = 1;
nodes = (
"209 583 LINE",
"322 583 LINE SMOOTH",
"412 583 OFFCURVE",
"464 545 OFFCURVE",
"464 469 CURVE SMOOTH",
"464 398 OFFCURVE",
"410 354 OFFCURVE",
"321 354 CURVE SMOOTH",
"209 354 LINE"
);
}
);
width = 630;
}
);
unicode = 0050;
},
{
glyphname = Q;
layers = (
{
hints = (
{
horizontal = 1;
place = "{-14, 126}";
type = Stem;
},
{
horizontal = 1;
place = "{591, 126}";
type = Stem;
},
{
place = "{44, 143}";
type = Stem;
},
{
place = "{644, 143}";
type = Stem;
}
);
layerId = "05A2C769-842B-415C-86A7-244CC7525BC2";
paths = (
{
closed = 1;
nodes = (
"814 -114 LINE",
"814 41 LINE",
"712 134 LINE",
"761 195 OFFCURVE",
"787 265 OFFCURVE",
"787 352 CURVE SMOOTH",
"787 553 OFFCURVE",
"630 717 OFFCURVE",
"417 717 CURVE SMOOTH",
"202 717 OFFCURVE",
"44 553 OFFCURVE",
"44 350 CURVE SMOOTH",
"44 148 OFFCURVE",
"201 -14 OFFCURVE",
"415 -14 CURVE SMOOTH",
"497 -14 OFFCURVE",
"573 11 OFFCURVE",
"627 50 CURVE"
);
},
{
closed = 1;
nodes = (
"644 219 OFFCURVE",
"550 112 OFFCURVE",
"416 112 CURVE SMOOTH",
"281 112 OFFCURVE",
"187 220 OFFCURVE",
"187 352 CURVE SMOOTH",
"187 484 OFFCURVE",
"280 591 OFFCURVE",
"416 591 CURVE SMOOTH",
"550 591 OFFCURVE",
"644 481 OFFCURVE",
"644 350 CURVE SMOOTH"
);
}
);
width = 856;
}
);
unicode = 0051;
},
{
glyphname = R;
layers = (
{
hints = (
{
horizontal = 1;
place = "{0, 21}";
target = up;
type = BottomGhost;
},
{
horizontal = 1;
place = "{256, 110}";
type = Stem;
},
{
horizontal = 1;
place = "{581, 122}";
type = Stem;
},
{
place = "{69, 140}";
type = Stem;
},
{
place = "{470, 141}";
type = Stem;
}
);
layerId = "05A2C769-842B-415C-86A7-244CC7525BC2";
paths = (
{
closed = 1;
nodes = (
"209 0 LINE",
"209 256 LINE",
"297 256 LINE",
"476 0 LINE",
"640 0 LINE",
"442 274 LINE",
"544 303 OFFCURVE",
"611 374 OFFCURVE",
"611 482 CURVE SMOOTH",
"611 614 OFFCURVE",
"513 703 OFFCURVE",
"344 703 CURVE SMOOTH",
"69 703 LINE",
"69 0 LINE"
);
},
{
closed = 1;
nodes = (
"209 366 LINE",
"209 581 LINE",
"334 581 LINE SMOOTH",
"420 581 OFFCURVE",
"470 547 OFFCURVE",
"470 475 CURVE SMOOTH",
"470 401 OFFCURVE",
"411 366 OFFCURVE",
"326 366 CURVE SMOOTH"
);
}
);
width = 641;
}
);
unicode = 0052;
},
{
glyphname = S;
layers = (
{
hints = (
{
horizontal = 1;
place = "{-12, 118}";
type = Stem;
},
{
horizontal = 1;
place = "{600, 115}";
type = Stem;
},
{
place = "{48, 141}";
type = Stem;
},
{
place = "{419, 140}";
type = Stem;
}
);
layerId = "05A2C769-842B-415C-86A7-244CC7525BC2";
paths = (
{
closed = 1;
nodes = (
"208 106 OFFCURVE",
"106 147 OFFCURVE",
"24 221 CURVE",
"24 88 LINE",
"100 17 OFFCURVE",
"198 -12 OFFCURVE",
"298 -12 CURVE SMOOTH",
"435 -12 OFFCURVE",
"551 49 OFFCURVE",
"559 180 CURVE",
"571 442 OFFCURVE",
"189 402 OFFCURVE",
"189 529 CURVE SMOOTH",
"189 571 OFFCURVE",
"230 600 OFFCURVE",
"300 600 CURVE SMOOTH",
"372 600 OFFCURVE",
"460 565 OFFCURVE",
"522 500 CURVE",
"522 640 LINE",
"460 691 OFFCURVE",
"385 715 OFFCURVE",
"292 715 CURVE SMOOTH",
"165 715 OFFCURVE",
"48 649 OFFCURVE",
"48 521 CURVE SMOOTH",
"48 285 OFFCURVE",
"419 318 OFFCURVE",
"419 184 CURVE SMOOTH",
"419 121 OFFCURVE",
"350 106 OFFCURVE",
"299 106 CURVE SMOOTH"
);
}
);
width = 597;
}
);
unicode = 0053;
},
{
glyphname = T;
layers = (
{
hints = (
{
horizontal = 1;
place = "{0, 21}";
target = up;
type = BottomGhost;
},
{
horizontal = 1;
place = "{580, 123}";
type = Stem;
},
{
place = "{220, 139}";
type = Stem;
}
);
layerId = "05A2C769-842B-415C-86A7-244CC7525BC2";
paths = (
{
closed = 1;
nodes = (
"359 580 LINE",
"569 580 LINE",
"569 703 LINE",
"10 703 LINE",
"10 580 LINE",
"220 580 LINE",
"220 0 LINE",
"359 0 LINE"
);
}
);
width = 579;
}
);
unicode = 0054;
},
{
glyphname = U;
layers = (
{
hints = (
{
horizontal = 1;
place = "{-14, 127}";
type = Stem;
},
{
horizontal = 1;
place = "{703, -20}";
target = down;
type = TopGhost;
},
{
place = "{62, 140}";
type = Stem;
},
{
place = "{527, 140}";
type = Stem;
}
);
layerId = "05A2C769-842B-415C-86A7-244CC7525BC2";
paths = (
{
closed = 1;
nodes = (
"556 -14 OFFCURVE",
"667 93 OFFCURVE",
"667 300 CURVE SMOOTH",
"667 703 LINE",
"527 703 LINE",
"527 296 LINE SMOOTH",
"527 172 OFFCURVE",
"467 113 OFFCURVE",
"365 113 CURVE SMOOTH",
"259 113 OFFCURVE",
"202 180 OFFCURVE",
"202 300 CURVE SMOOTH",
"202 703 LINE",
"62 703 LINE",
"62 296 LINE SMOOTH",
"62 96 OFFCURVE",
"172 -14 OFFCURVE",
"364 -14 CURVE SMOOTH"
);
}
);
width = 730;
}
);
unicode = 0055;
},
{
glyphname = V;
layers = (
{
hints = (
{
horizontal = 1;
place = "{-3, 21}";
target = up;
type = BottomGhost;
},
{
horizontal = 1;
place = "{703, -20}";
target = down;
type = TopGhost;
},
{
place = "{-6, 701}";
type = Stem;
}
);
layerId = "05A2C769-842B-415C-86A7-244CC7525BC2";
paths = (
{
closed = 1;
nodes = (
"-6 703 LINE",
"275 -3 LINE",
"415 -3 LINE",
"695 703 LINE",
"542 703 LINE",
"347 173 LINE",
"150 703 LINE"
);
}
);
width = 690;
}
);
unicode = 0056;
},
{
glyphname = W;
layers = (
{
hints = (
{
horizontal = 1;
place = "{-3, 21}";
target = up;
type = BottomGhost;
},
{
horizontal = 1;
place = "{703, -20}";
target = down;
type = TopGhost;
},
{
horizontal = 1;
place = "{704, -20}";
target = down;
type = TopGhost;
},
{
place = "{0, 1036}";
type = Stem;
}
);
layerId = "05A2C769-842B-415C-86A7-244CC7525BC2";
paths = (
{
closed = 1;
nodes = (
"148 703 LINE",
"0 703 LINE",
"236 -3 LINE",
"361 -3 LINE",
"518 490 LINE",
"678 -3 LINE",
"802 -3 LINE",
"1036 703 LINE",
"892 703 LINE",
"739 211 LINE",
"582 704 LINE",
"458 704 LINE",
"304 211 LINE"
);
}
);
width = 1037;
}
);
unicode = 0057;
},
{
glyphname = X;
layers = (
{
hints = (
{
horizontal = 1;
place = "{0, 21}";
target = up;
type = BottomGhost;
},
{
horizontal = 1;
place = "{703, -20}";
target = down;
type = TopGhost;
},
{
place = "{5, 658}";
type = Stem;
}
);
layerId = "05A2C769-842B-415C-86A7-244CC7525BC2";
paths = (
{
closed = 1;
nodes = (
"16 703 LINE",
"253 359 LINE",
"5 0 LINE",
"164 0 LINE",
"333 254 LINE",
"503 0 LINE",
"663 0 LINE",
"417 361 LINE",
"652 703 LINE",
"495 703 LINE",
"337 465 LINE",
"177 703 LINE"
);
}
);
width = 669;
}
);
unicode = 0058;
},
{
glyphname = Y;
layers = (
{
hints = (
{
horizontal = 1;
place = "{0, 21}";
target = up;
type = BottomGhost;
},
{
horizontal = 1;
place = "{703, -20}";
target = down;
type = TopGhost;
},
{
place = "{264, 140}";
type = Stem;
}
);
layerId = "05A2C769-842B-415C-86A7-244CC7525BC2";
paths = (
{
closed = 1;
nodes = (
"404 273 LINE",
"672 703 LINE",
"516 703 LINE",
"336 402 LINE",
"156 703 LINE",
"-5 703 LINE",
"264 271 LINE",
"264 0 LINE",
"404 0 LINE"
);
}
);
width = 667;
}
);
unicode = 0059;
},
{
glyphname = Z;
layers = (
{
hints = (
{
horizontal = 1;
place = "{0, 120}";
type = Stem;
},
{
horizontal = 1;
place = "{583, 120}";
type = Stem;
},
{
place = "{5, 611}";
type = Stem;
}
);
layerId = "05A2C769-842B-415C-86A7-244CC7525BC2";
paths = (
{
closed = 1;
nodes = (
"616 596 LINE",
"616 703 LINE",
"25 703 LINE",
"25 583 LINE",
"430 583 LINE",
"5 107 LINE",
"5 0 LINE",
"605 0 LINE",
"605 120 LINE",
"194 120 LINE"
);
}
);
width = 633;
}
);
unicode = 005A;
},
{
glyphname = bracketleft;
layers = (
{
hints = (
{
horizontal = 1;
place = "{-144, 97}";
type = Stem;
},
{
horizontal = 1;
place = "{616, 97}";
type = Stem;
},
{
place = "{74, 124}";
type = Stem;
}
);
layerId = "05A2C769-842B-415C-86A7-244CC7525BC2";
paths = (
{
closed = 1;
nodes = (
"367 713 LINE",
"74 713 LINE",
"74 -144 LINE",
"367 -144 LINE",
"367 -47 LINE",
"198 -47 LINE",
"198 616 LINE",
"367 616 LINE"
);
}
);
width = 418;
}
);
unicode = 005B;
},
{
glyphname = backslash;
layers = (
{
hints = (
{
horizontal = 1;
place = "{-123, 913}";
type = Stem;
},
{
place = "{1, 529}";
type = Stem;
}
);
layerId = "05A2C769-842B-415C-86A7-244CC7525BC2";
paths = (
{
closed = 1;
nodes = (
"422 -123 LINE",
"530 -107 LINE",
"108 790 LINE",
"1 775 LINE"
);
}
);
width = 530;
}
);
unicode = 005C;
},
{
glyphname = bracketright;
layers = (
{
hints = (
{
horizontal = 1;
place = "{-145, 98}";
type = Stem;
},
{
horizontal = 1;
place = "{615, 98}";
type = Stem;
},
{
place = "{222, 124}";
type = Stem;
}
);
layerId = "05A2C769-842B-415C-86A7-244CC7525BC2";
paths = (
{
closed = 1;
nodes = (
"52 -145 LINE",
"346 -145 LINE",
"346 713 LINE",
"52 713 LINE",
"52 615 LINE",
"222 615 LINE",
"222 -47 LINE",
"52 -47 LINE"
);
}
);
width = 420;
}
);
unicode = 005D;
},
{
glyphname = asciicircum;
layers = (
{
hints = (
{
place = "{28, 423}";
type = Stem;
},
{
horizontal = 1;
place = "{456, 247}";
type = Stem;
},
{
horizontal = 1;
place = "{616, 87}";
type = Stem;
},
{
horizontal = 1;
place = "{703, -20}";
target = down;
type = TopGhost;
}
);
layerId = "05A2C769-842B-415C-86A7-244CC7525BC2";
paths = (
{
closed = 1;
nodes = (
"28 456 LINE",
"130 456 LINE",
"238 616 LINE",
"347 456 LINE",
"451 456 LINE",
"289 703 LINE",
"189 703 LINE"
);
}
);
width = 478;
}
);
unicode = 005E;
},
{
glyphname = underscore;
layers = (
{
hints = (
{
horizontal = 1;
place = "{-154, 91}";
type = Stem;
},
{
place = "{0, 583}";
type = Stem;
}
);
layerId = "05A2C769-842B-415C-86A7-244CC7525BC2";
paths = (
{
closed = 1;
nodes = (
"0 -154 LINE",
"583 -154 LINE",
"583 -63 LINE",
"0 -63 LINE"
);
}
);
width = 583;
}
);
unicode = 005F;
},
{
glyphname = grave;
layers = (
{
hints = (
{
horizontal = 1;
place = "{616, 167}";
type = Stem;
},
{
place = "{4, 235}";
type = Stem;
}
);
layerId = "05A2C769-842B-415C-86A7-244CC7525BC2";
paths = (
{
closed = 1;
nodes = (
"140 616 LINE",
"239 616 LINE",
"139 783 LINE",
"4 745 LINE"
);
}
);
width = 253;
}
);
unicode = 0060;
},
{
glyphname = a;
layers = (
{
hints = (
{
place = "{32, 134}";
type = Stem;
},
{
place = "{386, 133}";
type = Stem;
},
{
horizontal = 1;
place = "{-12, 94}";
type = Stem;
},
{
horizontal = 1;
place = "{-6, 21}";
target = up;
type = BottomGhost;
},
{
horizontal = 1;
place = "{251, 79}";
type = Stem;
},
{
horizontal = 1;
place = "{413, 108}";
type = Stem;
}
);
layerId = "05A2C769-842B-415C-86A7-244CC7525BC2";
paths = (
{
closed = 1;
nodes = (
"519 -6 LINE",
"519 310 LINE SMOOTH",
"519 449 OFFCURVE",
"426 521 OFFCURVE",
"274 521 CURVE SMOOTH",
"192 521 OFFCURVE",
"126 501 OFFCURVE",
"72 479 CURVE",
"72 373 LINE",
"131 402 OFFCURVE",
"189 413 OFFCURVE",
"247 413 CURVE SMOOTH",
"334 413 OFFCURVE",
"386 386 OFFCURVE",
"386 317 CURVE SMOOTH",
"386 303 LINE",
"349 321 OFFCURVE",
"298 330 OFFCURVE",
"244 330 CURVE SMOOTH",
"131 330 OFFCURVE",
"32 283 OFFCURVE",
"32 164 CURVE SMOOTH",
"32 52 OFFCURVE",
"125 -12 OFFCURVE",
"225 -12 CURVE SMOOTH",
"294 -12 OFFCURVE",
"343 12 OFFCURVE",
"384 53 CURVE"
);
},
{
closed = 1;
nodes = (
"386 131 LINE",
"356 99 OFFCURVE",
"318 82 OFFCURVE",
"270 82 CURVE SMOOTH",
"214 82 OFFCURVE",
"166 112 OFFCURVE",
"166 166 CURVE SMOOTH",
"166 222 OFFCURVE",
"220 251 OFFCURVE",
"280 251 CURVE SMOOTH",
"326 251 OFFCURVE",
"361 238 OFFCURVE",
"386 225 CURVE"
);
}
);
width = 580;
}
);
unicode = 0061;
},
{
glyphname = b;
layers = (
{
hints = (
{
place = "{60, 136}";
type = Stem;
},
{
place = "{475, 134}";
type = Stem;
},
{
horizontal = 1;
place = "{-11, 114}";
type = Stem;
},
{
horizontal = 1;
place = "{-6, 21}";
target = up;
type = BottomGhost;
},
{
horizontal = 1;
place = "{408, 116}";
type = Stem;
}
);
layerId = "05A2C769-842B-415C-86A7-244CC7525BC2";
paths = (
{
closed = 1;
nodes = (
"500 -11 OFFCURVE",
"609 93 OFFCURVE",
"609 256 CURVE SMOOTH",
"609 420 OFFCURVE",
"500 524 OFFCURVE",
"371 524 CURVE SMOOTH",
"290 524 OFFCURVE",
"236 484 OFFCURVE",
"196 432 CURVE",
"196 731 LINE",
"60 731 LINE",
"60 -6 LINE",
"200 69 LINE",
"236 25 OFFCURVE",
"289 -11 OFFCURVE",
"370 -11 CURVE SMOOTH"
);
},
{
closed = 1;
nodes = (
"475 166 OFFCURVE",
"414 103 OFFCURVE",
"333 103 CURVE SMOOTH",
"256 103 OFFCURVE",
"193 168 OFFCURVE",
"193 256 CURVE SMOOTH",
"193 345 OFFCURVE",
"256 408 OFFCURVE",
"333 408 CURVE SMOOTH",
"416 408 OFFCURVE",
"475 343 OFFCURVE",
"475 256 CURVE SMOOTH"
);
}
);
width = 641;
}
);
unicode = 0062;
},
{
glyphname = c;
layers = (
{
hints = (
{
horizontal = 1;
place = "{-11, 115}";
type = Stem;
},
{
horizontal = 1;
place = "{408, 114}";
type = Stem;
},
{
place = "{32, 134}";
type = Stem;
}
);
layerId = "05A2C769-842B-415C-86A7-244CC7525BC2";
paths = (
{
closed = 1;
nodes = (
"426 495 LINE",
"392 514 OFFCURVE",
"344 522 OFFCURVE",
"302 522 CURVE SMOOTH",
"142 522 OFFCURVE",
"32 401 OFFCURVE",
"32 255 CURVE SMOOTH",
"32 107 OFFCURVE",
"147 -11 OFFCURVE",
"297 -11 CURVE SMOOTH",
"347 -11 OFFCURVE",
"395 3 OFFCURVE",
"431 21 CURVE",
"431 154 LINE",
"396 121 OFFCURVE",
"355 104 OFFCURVE",
"312 104 CURVE SMOOTH",
"230 104 OFFCURVE",
"166 174 OFFCURVE",
"166 258 CURVE SMOOTH",
"166 343 OFFCURVE",
"225 408 OFFCURVE",
"309 408 CURVE SMOOTH",
"355 408 OFFCURVE",
"393 389 OFFCURVE",
"426 357 CURVE"
);
}
);
width = 472;
}
);
unicode = 0063;
},
{
glyphname = d;
layers = (
{
hints = (
{
place = "{32, 135}";
type = Stem;
},
{
place = "{445, 136}";
type = Stem;
},
{
horizontal = 1;
place = "{-11, 115}";
type = Stem;
},
{
horizontal = 1;
place = "{-6, 21}";
target = up;
type = BottomGhost;
},
{
horizontal = 1;
place = "{409, 115}";
type = Stem;
}
);
layerId = "05A2C769-842B-415C-86A7-244CC7525BC2";
paths = (
{
closed = 1;
nodes = (
"581 -6 LINE",
"581 731 LINE",
"445 731 LINE",
"445 437 LINE",
"406 487 OFFCURVE",
"351 524 OFFCURVE",
"270 524 CURVE SMOOTH",
"142 524 OFFCURVE",
"32 420 OFFCURVE",
"32 256 CURVE SMOOTH",
"32 92 OFFCURVE",
"142 -11 OFFCURVE",
"272 -11 CURVE SMOOTH",
"351 -11 OFFCURVE",
"399 26 OFFCURVE",
"440 75 CURVE"
);
},
{
closed = 1;
nodes = (
"167 348 OFFCURVE",
"230 409 OFFCURVE",
"305 409 CURVE SMOOTH",
"382 409 OFFCURVE",
"448 345 OFFCURVE",
"448 257 CURVE SMOOTH",
"448 167 OFFCURVE",
"383 104 OFFCURVE",
"305 104 CURVE SMOOTH",
"228 104 OFFCURVE",
"167 167 OFFCURVE",
"167 256 CURVE SMOOTH"
);
}
);
width = 641;
}
);
unicode = 0064;
},
{
glyphname = e;
layers = (
{
hints = (
{
horizontal = 1;
place = "{-14, 104}";
type = Stem;
},
{
horizontal = 1;
place = "{416, 106}";
type = Stem;
},
{
place = "{32, 130}";
type = Stem;
}
);
layerId = "05A2C769-842B-415C-86A7-244CC7525BC2";
paths = (
{
closed = 1;
nodes = (
"240 90 OFFCURVE",
"198 118 OFFCURVE",
"174 162 CURVE",
"539 253 LINE",
"531 396 OFFCURVE",
"446 522 OFFCURVE",
"289 522 CURVE SMOOTH",
"137 522 OFFCURVE",
"32 406 OFFCURVE",
"32 254 CURVE SMOOTH",
"32 98 OFFCURVE",
"143 -14 OFFCURVE",
"298 -14 CURVE SMOOTH",
"363 -14 OFFCURVE",
"436 5 OFFCURVE",
"491 43 CURVE",
"491 161 LINE",
"447 120 OFFCURVE",
"373 90 OFFCURVE",
"302 90 CURVE SMOOTH"
);
},
{
closed = 1;
nodes = (
"162 261 LINE",
"162 336 OFFCURVE",
"200 416 OFFCURVE",
"285 416 CURVE SMOOTH",
"346 416 OFFCURVE",
"390 376 OFFCURVE",
"405 318 CURVE",
"164 256 LINE"
);
}
);
width = 571;
}
);
unicode = 0065;
},
{
glyphname = f;
layers = (
{
hints = (
{
horizontal = 1;
place = "{0, 21}";
target = up;
type = BottomGhost;
},
{
horizontal = 1;
place = "{401, 108}";
type = Stem;
},
{
horizontal = 1;
place = "{634, 103}";
type = Stem;
},
{
place = "{100, 134}";
type = Stem;
}
);
layerId = "05A2C769-842B-415C-86A7-244CC7525BC2";
paths = (
{
closed = 1;
nodes = (
"363 724 LINE",
"340 731 OFFCURVE",
"311 737 OFFCURVE",
"275 737 CURVE SMOOTH",
"167 737 OFFCURVE",
"100 683 OFFCURVE",
"100 554 CURVE SMOOTH",
"100 510 LINE",
"9 401 LINE",
"100 401 LINE",
"100 0 LINE",
"234 0 LINE",
"234 401 LINE",
"355 401 LINE",
"355 509 LINE",
"217 509 LINE",
"217 551 LINE SMOOTH",
"217 606 OFFCURVE",
"250 634 OFFCURVE",
"299 634 CURVE SMOOTH",
"319 634 OFFCURVE",
"343 630 OFFCURVE",
"363 623 CURVE"
);
}
);
width = 361;
}
);
unicode = 0066;
},
{
glyphname = g;
layers = (
{
hints = (
{
place = "{37, 136}";
type = Stem;
},
{
place = "{452, 134}";
type = Stem;
},
{
horizontal = 1;
place = "{-178, 103}";
type = Stem;
},
{
horizontal = 1;
place = "{34, 109}";
type = Stem;
},
{
horizontal = 1;
place = "{415, 109}";
type = Stem;
},
{
horizontal = 1;
place = "{512, -20}";
target = down;
type = TopGhost;
}
);
layerId = "05A2C769-842B-415C-86A7-244CC7525BC2";
paths = (
{
closed = 1;
nodes = (
"199 -75 OFFCURVE",
"121 -43 OFFCURVE",
"65 -4 CURVE",
"65 -124 LINE",
"129 -157 OFFCURVE",
"194 -178 OFFCURVE",
"281 -178 CURVE SMOOTH",
"459 -178 OFFCURVE",
"586 -87 OFFCURVE",
"586 94 CURVE SMOOTH",
"586 512 LINE",
"445 445 LINE",
"404 491 OFFCURVE",
"353 524 OFFCURVE",
"275 524 CURVE SMOOTH",
"145 524 OFFCURVE",
"37 427 OFFCURVE",
"37 277 CURVE SMOOTH",
"37 131 OFFCURVE",
"142 34 OFFCURVE",
"274 34 CURVE SMOOTH",
"355 34 OFFCURVE",
"409 71 OFFCURVE",
"452 123 CURVE",
"452 82 LINE SMOOTH",
"452 -26 OFFCURVE",
"389 -75 OFFCURVE",
"280 -75 CURVE SMOOTH"
);
},
{
closed = 1;
nodes = (
"173 359 OFFCURVE",
"230 415 OFFCURVE",
"311 415 CURVE SMOOTH",
"391 415 OFFCURVE",
"452 358 OFFCURVE",
"452 279 CURVE SMOOTH",
"452 200 OFFCURVE",
"390 143 OFFCURVE",
"311 143 CURVE SMOOTH",
"231 143 OFFCURVE",
"173 200 OFFCURVE",
"173 279 CURVE SMOOTH"
);
}
);
width = 646;
}
);
unicode = 0067;
},
{
glyphname = h;
layers = (
{
hints = (
{
horizontal = 1;
place = "{0, 21}";
target = up;
type = BottomGhost;
},
{
horizontal = 1;
place = "{398, 125}";
type = Stem;
},
{
place = "{59, 136}";
type = Stem;
},
{
place = "{398, 136}";
type = Stem;
}
);
layerId = "05A2C769-842B-415C-86A7-244CC7525BC2";
paths = (
{
closed = 1;
nodes = (
"281 523 OFFCURVE",
"226 486 OFFCURVE",
"191 442 CURVE",
"191 731 LINE",
"59 731 LINE",
"59 0 LINE",
"195 0 LINE",
"195 287 LINE SMOOTH",
"195 361 OFFCURVE",
"247 398 OFFCURVE",
"305 398 CURVE SMOOTH",
"364 398 OFFCURVE",
"398 361 OFFCURVE",
"398 287 CURVE SMOOTH",
"398 0 LINE",
"534 0 LINE",
"534 329 LINE SMOOTH",
"534 457 OFFCURVE",
"463 523 OFFCURVE",
"356 523 CURVE SMOOTH"
);
}
);
width = 589;
}
);
unicode = 0068;
},
{
glyphname = i;
layers = (
{
hints = (
{
place = "{45, 168}";
type = Stem;
},
{
place = "{62, 136}";
type = Stem;
},
{
horizontal = 1;
place = "{0, 21}";
target = up;
type = BottomGhost;
},
{
horizontal = 1;
place = "{512, -20}";
target = down;
type = TopGhost;
},
{
horizontal = 1;
place = "{583, 156}";
type = Stem;
}
);
layerId = "05A2C769-842B-415C-86A7-244CC7525BC2";
paths = (
{
closed = 1;
nodes = (
"45 613 OFFCURVE",
"83 583 OFFCURVE",
"129 583 CURVE SMOOTH",
"176 583 OFFCURVE",
"213 613 OFFCURVE",
"213 661 CURVE SMOOTH",
"213 711 OFFCURVE",
"176 739 OFFCURVE",
"129 739 CURVE SMOOTH",
"83 739 OFFCURVE",
"45 711 OFFCURVE",
"45 661 CURVE SMOOTH"
);
},
{
closed = 1;
nodes = (
"198 512 LINE",
"62 512 LINE",
"62 0 LINE",
"198 0 LINE"
);
}
);
width = 260;
}
);
unicode = 0069;
},
{
glyphname = j;
layers = (
{
hints = (
{
place = "{110, 167}";
type = Stem;
},
{
place = "{128, 136}";
type = Stem;
},
{
horizontal = 1;
place = "{-179, 101}";
type = Stem;
},
{
horizontal = 1;
place = "{512, -20}";
target = down;
type = TopGhost;
},
{
horizontal = 1;
place = "{583, 156}";
type = Stem;
}
);
layerId = "05A2C769-842B-415C-86A7-244CC7525BC2";
paths = (
{
closed = 1;
nodes = (
"110 613 OFFCURVE",
"147 583 OFFCURVE",
"193 583 CURVE SMOOTH",
"239 583 OFFCURVE",
"277 613 OFFCURVE",
"277 661 CURVE SMOOTH",
"277 711 OFFCURVE",
"239 739 OFFCURVE",
"193 739 CURVE SMOOTH",
"147 739 OFFCURVE",
"110 711 OFFCURVE",
"110 661 CURVE SMOOTH"
);
},
{
closed = 1;
nodes = (
"46 -172 LINE",
"65 -176 OFFCURVE",
"85 -179 OFFCURVE",
"110 -179 CURVE SMOOTH",
"222 -179 OFFCURVE",
"264 -118 OFFCURVE",
"264 -7 CURVE SMOOTH",
"264 512 LINE",
"128 512 LINE",
"128 -15 LINE SMOOTH",
"128 -55 OFFCURVE",
"115 -78 OFFCURVE",
"82 -78 CURVE SMOOTH",
"70 -78 OFFCURVE",
"59 -76 OFFCURVE",
"46 -71 CURVE"
);
}
);
width = 323;
}
);
unicode = 006A;
},
{
glyphname = k;
layers = (
{
hints = (
{
horizontal = 1;
place = "{0, 21}";
target = up;
type = BottomGhost;
},
{
horizontal = 1;
place = "{512, -20}";
target = down;
type = TopGhost;
},
{
place = "{59, 136}";
type = Stem;
}
);
layerId = "05A2C769-842B-415C-86A7-244CC7525BC2";
paths = (
{
closed = 1;
nodes = (
"195 731 LINE",
"59 731 LINE",
"59 0 LINE",
"195 0 LINE",
"195 250 LINE",
"373 0 LINE",
"528 0 LINE",
"317 289 LINE",
"521 512 LINE",
"361 512 LINE",
"195 321 LINE"
);
}
);
width = 528;
}
);
unicode = 006B;
},
{
glyphname = l;
layers = (
{
hints = (
{
horizontal = 1;
place = "{0, 21}";
target = up;
type = BottomGhost;
},
{
place = "{59, 136}";
type = Stem;
}
);
layerId = "05A2C769-842B-415C-86A7-244CC7525BC2";
paths = (
{
closed = 1;
nodes = (
"195 731 LINE",
"59 731 LINE",
"59 0 LINE",
"195 0 LINE"
);
}
);
width = 255;
}
);
unicode = 006C;
},
{
glyphname = m;
layers = (
{
hints = (
{
horizontal = 1;
place = "{0, 21}";
target = up;
type = BottomGhost;
},
{
horizontal = 1;
place = "{403, 120}";
type = Stem;
},
{
place = "{59, 136}";
type = Stem;
},
{
place = "{386, 136}";
type = Stem;
},
{
place = "{714, 136}";
type = Stem;
}
);
layerId = "05A2C769-842B-415C-86A7-244CC7525BC2";
paths = (
{
closed = 1;
nodes = (
"850 0 LINE",
"850 330 LINE SMOOTH",
"850 437 OFFCURVE",
"790 523 OFFCURVE",
"675 523 CURVE SMOOTH",
"599 523 OFFCURVE",
"540 491 OFFCURVE",
"501 435 CURVE",
"473 496 OFFCURVE",
"415 523 OFFCURVE",
"351 523 CURVE SMOOTH",
"288 523 OFFCURVE",
"233 496 OFFCURVE",
"194 446 CURVE",
"59 511 LINE",
"59 0 LINE",
"195 0 LINE",
"195 287 LINE SMOOTH",
"195 354 OFFCURVE",
"234 403 OFFCURVE",
"295 403 CURVE SMOOTH",
"357 403 OFFCURVE",
"386 356 OFFCURVE",
"386 287 CURVE SMOOTH",
"386 0 LINE",
"522 0 LINE",
"522 287 LINE SMOOTH",
"522 348 OFFCURVE",
"557 403 OFFCURVE",
"623 403 CURVE SMOOTH",
"679 403 OFFCURVE",
"714 367 OFFCURVE",
"714 287 CURVE SMOOTH",
"714 0 LINE"
);
}
);
width = 904;
}
);
unicode = 006D;
},
{
glyphname = n;
layers = (
{
hints = (
{
place = "{59, 136}";
type = Stem;
},
{
place = "{398, 136}";
type = Stem;
},
{
horizontal = 1;
place = "{0, 21}";
target = up;
type = BottomGhost;
},
{
horizontal = 1;
place = "{403, 120}";
type = Stem;
},
{
horizontal = 1;
place = "{512, -20}";
target = down;
type = TopGhost;
}
);
layerId = "05A2C769-842B-415C-86A7-244CC7525BC2";
paths = (
{
closed = 1;
nodes = (
"282 523 OFFCURVE",
"231 487 OFFCURVE",
"196 443 CURVE",
"59 512 LINE",
"59 0 LINE",
"195 0 LINE",
"195 287 LINE SMOOTH",
"195 371 OFFCURVE",
"252 403 OFFCURVE",
"301 403 CURVE SMOOTH",
"351 403 OFFCURVE",
"398 370 OFFCURVE",
"398 287 CURVE SMOOTH",
"398 0 LINE",
"534 0 LINE",
"534 329 LINE SMOOTH",
"534 453 OFFCURVE",
"460 523 OFFCURVE",
"355 523 CURVE SMOOTH"
);
}
);
width = 589;
}
);
unicode = 006E;
},
{
glyphname = o;
layers = (
{
hints = (
{
horizontal = 1;
place = "{-12, 116}";
type = Stem;
},
{
horizontal = 1;
place = "{409, 115}";
type = Stem;
},
{
place = "{32, 134}";
type = Stem;
},
{
place = "{455, 134}";
type = Stem;
}
);
layerId = "05A2C769-842B-415C-86A7-244CC7525BC2";
paths = (
{
closed = 1;
nodes = (
"589 405 OFFCURVE",
"472 524 OFFCURVE",
"311 524 CURVE SMOOTH",
"150 524 OFFCURVE",
"32 404 OFFCURVE",
"32 255 CURVE SMOOTH",
"32 107 OFFCURVE",
"149 -12 OFFCURVE",
"309 -12 CURVE SMOOTH",
"471 -12 OFFCURVE",
"589 110 OFFCURVE",
"589 257 CURVE SMOOTH"
);
},
{
closed = 1;
nodes = (
"455 174 OFFCURVE",
"396 104 OFFCURVE",
"311 104 CURVE SMOOTH",
"228 104 OFFCURVE",
"166 172 OFFCURVE",
"166 257 CURVE SMOOTH",
"166 340 OFFCURVE",
"223 409 OFFCURVE",
"309 409 CURVE SMOOTH",
"395 409 OFFCURVE",
"455 339 OFFCURVE",
"455 256 CURVE SMOOTH"
);
}
);
width = 622;
}
);
unicode = 006F;
},
{
glyphname = p;
layers = (
{
hints = (
{
place = "{60, 136}";
type = Stem;
},
{
place = "{475, 135}";
type = Stem;
},
{
horizontal = 1;
place = "{-174, 21}";
target = up;
type = BottomGhost;
},
{
horizontal = 1;
place = "{-11, 114}";
type = Stem;
},
{
horizontal = 1;
place = "{408, 116}";
type = Stem;
},
{
horizontal = 1;
place = "{512, -20}";
target = down;
type = TopGhost;
}
);
layerId = "05A2C769-842B-415C-86A7-244CC7525BC2";
paths = (
{
closed = 1;
nodes = (
"196 75 LINE",
"236 25 OFFCURVE",
"290 -11 OFFCURVE",
"371 -11 CURVE SMOOTH",
"498 -11 OFFCURVE",
"610 93 OFFCURVE",
"610 257 CURVE SMOOTH",
"610 420 OFFCURVE",
"499 524 OFFCURVE",
"371 524 CURVE SMOOTH",
"290 524 OFFCURVE",
"242 486 OFFCURVE",
"201 438 CURVE",
"60 512 LINE",
"60 -174 LINE",
"196 -174 LINE"
);
},
{
closed = 1;
nodes = (
"475 164 OFFCURVE",
"413 103 OFFCURVE",
"335 103 CURVE SMOOTH",
"258 103 OFFCURVE",
"193 168 OFFCURVE",
"193 256 CURVE SMOOTH",
"193 345 OFFCURVE",
"257 408 OFFCURVE",
"334 408 CURVE SMOOTH",
"414 408 OFFCURVE",
"475 346 OFFCURVE",
"475 257 CURVE SMOOTH"
);
}
);
width = 641;
}
);
unicode = 0070;
},
{
glyphname = q;
layers = (
{
hints = (
{
place = "{32, 135}";
type = Stem;
},
{
place = "{445, 136}";
type = Stem;
},
{
horizontal = 1;
place = "{-174, 21}";
target = up;
type = BottomGhost;
},
{
horizontal = 1;
place = "{-12, 115}";
type = Stem;
},
{
horizontal = 1;
place = "{409, 115}";
type = Stem;
},
{
horizontal = 1;
place = "{512, -20}";
target = down;
type = TopGhost;
}
);
layerId = "05A2C769-842B-415C-86A7-244CC7525BC2";
paths = (
{
closed = 1;
nodes = (
"581 -174 LINE",
"581 512 LINE",
"440 443 LINE",
"400 488 OFFCURVE",
"352 524 OFFCURVE",
"271 524 CURVE SMOOTH",
"141 524 OFFCURVE",
"32 420 OFFCURVE",
"32 256 CURVE SMOOTH",
"32 95 OFFCURVE",
"141 -12 OFFCURVE",
"272 -12 CURVE SMOOTH",
"351 -12 OFFCURVE",
"404 27 OFFCURVE",
"445 80 CURVE",
"445 -174 LINE"
);
},
{
closed = 1;
nodes = (
"167 348 OFFCURVE",
"229 409 OFFCURVE",
"307 409 CURVE SMOOTH",
"384 409 OFFCURVE",
"449 345 OFFCURVE",
"449 257 CURVE SMOOTH",
"449 169 OFFCURVE",
"384 103 OFFCURVE",
"307 103 CURVE SMOOTH",
"229 103 OFFCURVE",
"167 169 OFFCURVE",
"167 258 CURVE SMOOTH"
);
}
);
width = 641;
}
);
unicode = 0071;
},
{
glyphname = r;
layers = (
{
hints = (
{
place = "{59, 136}";
type = Stem;
},
{
horizontal = 1;
place = "{0, 21}";
target = up;
type = BottomGhost;
},
{
horizontal = 1;
place = "{385, 136}";
type = Stem;
},
{
horizontal = 1;
place = "{512, -20}";
target = down;
type = TopGhost;
},
{
horizontal = 1;
place = "{518, -20}";
target = down;
type = TopGhost;
}
);
layerId = "05A2C769-842B-415C-86A7-244CC7525BC2";
paths = (
{
closed = 1;
nodes = (
"376 518 LINE",
"368 520 OFFCURVE",
"360 521 OFFCURVE",
"351 521 CURVE SMOOTH",
"282 521 OFFCURVE",
"230 487 OFFCURVE",
"196 430 CURVE",
"59 512 LINE",
"59 0 LINE",
"195 0 LINE",
"195 220 LINE SMOOTH",
"195 335 OFFCURVE",
"265 385 OFFCURVE",
"346 385 CURVE SMOOTH",
"358 385 OFFCURVE",
"368 384 OFFCURVE",
"376 380 CURVE"
);
}
);
width = 380;
}
);
unicode = 0072;
},
{
glyphname = s;
layers = (
{
hints = (
{
horizontal = 1;
place = "{-11, 101}";
type = Stem;
},
{
horizontal = 1;
place = "{422, 101}";
type = Stem;
},
{
place = "{25, 126}";
type = Stem;
},
{
place = "{284, 125}";
type = Stem;
}
);
layerId = "05A2C769-842B-415C-86A7-244CC7525BC2";
paths = (
{
closed = 1;
nodes = (
"149 90 OFFCURVE",
"78 124 OFFCURVE",
"26 164 CURVE",
"26 42 LINE",
"83 13 OFFCURVE",
"140 -11 OFFCURVE",
"216 -11 CURVE SMOOTH",
"333 -11 OFFCURVE",
"409 55 OFFCURVE",
"409 149 CURVE SMOOTH",
"409 319 OFFCURVE",
"151 304 OFFCURVE",
"151 382 CURVE SMOOTH",
"151 404 OFFCURVE",
"171 422 OFFCURVE",
"209 422 CURVE SMOOTH",
"257 422 OFFCURVE",
"321 394 OFFCURVE",
"369 362 CURVE",
"369 483 LINE",
"320 510 OFFCURVE",
"271 523 OFFCURVE",
"209 523 CURVE SMOOTH",
"100 523 OFFCURVE",
"25 467 OFFCURVE",
"25 375 CURVE SMOOTH",
"25 204 OFFCURVE",
"284 231 OFFCURVE",
"284 142 CURVE SMOOTH",
"284 106 OFFCURVE",
"248 90 OFFCURVE",
"209 90 CURVE SMOOTH"
);
}
);
width = 440;
}
);
unicode = 0073;
},
{
glyphname = t;
layers = (
{
hints = (
{
place = "{113, 135}";
type = Stem;
},
{
horizontal = 1;
place = "{-11, 116}";
type = Stem;
},
{
horizontal = 1;
place = "{-11, 21}";
target = up;
type = BottomGhost;
},
{
horizontal = 1;
place = "{400, 112}";
type = Stem;
}
);
layerId = "05A2C769-842B-415C-86A7-244CC7525BC2";
paths = (
{
closed = 1;
nodes = (
"113 144 LINE SMOOTH",
"113 52 OFFCURVE",
"165 -11 OFFCURVE",
"261 -11 CURVE SMOOTH",
"297 -11 OFFCURVE",
"327 -4 OFFCURVE",
"352 10 CURVE",
"352 119 LINE",
"332 110 OFFCURVE",
"314 105 OFFCURVE",
"296 105 CURVE SMOOTH",
"263 105 OFFCURVE",
"248 126 OFFCURVE",
"248 159 CURVE SMOOTH",
"248 400 LINE",
"375 400 LINE",
"375 512 LINE",
"248 512 LINE",
"248 679 LINE",
"12 400 LINE",
"113 400 LINE"
);
}
);
width = 388;
}
);
unicode = 0074;
},
{
glyphname = u;
layers = (
{
hints = (
{
place = "{54, 136}";
type = Stem;
},
{
place = "{393, 136}";
type = Stem;
},
{
horizontal = 1;
place = "{-11, 121}";
type = Stem;
},
{
horizontal = 1;
place = "{-6, 21}";
target = up;
type = BottomGhost;
},
{
horizontal = 1;
place = "{512, -20}";
target = down;
type = TopGhost;
}
);
layerId = "05A2C769-842B-415C-86A7-244CC7525BC2";
paths = (
{
closed = 1;
nodes = (
"307 -11 OFFCURVE",
"359 20 OFFCURVE",
"392 62 CURVE",
"529 -6 LINE",
"529 512 LINE",
"393 512 LINE",
"393 226 LINE SMOOTH",
"393 141 OFFCURVE",
"339 110 OFFCURVE",
"288 110 CURVE SMOOTH",
"236 110 OFFCURVE",
"190 142 OFFCURVE",
"190 226 CURVE SMOOTH",
"190 512 LINE",
"54 512 LINE",
"54 184 LINE SMOOTH",
"54 58 OFFCURVE",
"122 -11 OFFCURVE",
"233 -11 CURVE SMOOTH"
);
}
);
width = 583;
}
);
unicode = 0075;
},
{
glyphname = v;
layers = (
{
hints = (
{
horizontal = 1;
place = "{-2, 21}";
target = up;
type = BottomGhost;
},
{
place = "{-5, 545}";
type = Stem;
}
);
layerId = "05A2C769-842B-415C-86A7-244CC7525BC2";
paths = (
{
closed = 1;
nodes = (
"540 511 LINE",
"399 511 LINE",
"269 158 LINE",
"140 511 LINE",
"-5 511 LINE",
"204 -2 LINE",
"331 -2 LINE"
);
}
);
width = 536;
}
);
unicode = 0076;
},
{
glyphname = w;
layers = (
{
hints = (
{
horizontal = 1;
place = "{-2, 21}";
target = up;
type = BottomGhost;
},
{
horizontal = 1;
place = "{512, -20}";
target = down;
type = TopGhost;
},
{
horizontal = 1;
place = "{513, -20}";
target = down;
type = TopGhost;
},
{
place = "{-6, 785}";
type = Stem;
}
);
layerId = "05A2C769-842B-415C-86A7-244CC7525BC2";
paths = (
{
closed = 1;
nodes = (
"-6 512 LINE",
"160 -2 LINE",
"280 -2 LINE",
"386 336 LINE",
"491 -2 LINE",
"614 -2 LINE",
"779 512 LINE",
"645 512 LINE",
"548 184 LINE",
"448 513 LINE",
"328 513 LINE",
"227 184 LINE",
"130 512 LINE"
);
}
);
width = 775;
}
);
unicode = 0077;
},
{
glyphname = x;
layers = (
{
hints = (
{
horizontal = 1;
place = "{0, 21}";
target = up;
type = BottomGhost;
},
{
place = "{4, 526}";
type = Stem;
}
);
layerId = "05A2C769-842B-415C-86A7-244CC7525BC2";
paths = (
{
closed = 1;
nodes = (
"4 0 LINE",
"150 0 LINE",
"266 166 LINE",
"381 0 LINE",
"530 0 LINE",
"343 263 LINE",
"521 511 LINE",
"375 511 LINE",
"268 358 LINE",
"162 511 LINE",
"12 511 LINE",
"192 261 LINE"
);
}
);
width = 534;
}
);
unicode = 0078;
},
{
glyphname = y;
layers = (
{
hints = (
{
horizontal = 1;
place = "{-174, 21}";
target = up;
type = BottomGhost;
},
{
place = "{-6, 547}";
type = Stem;
}
);
layerId = "05A2C769-842B-415C-86A7-244CC7525BC2";
paths = (
{
closed = 1;
nodes = (
"218 -3 LINE",
"156 -174 LINE",
"275 -174 LINE",
"541 511 LINE",
"401 511 LINE",
"275 147 LINE",
"139 511 LINE",
"-6 511 LINE"
);
}
);
width = 537;
}
);
unicode = 0079;
},
{
glyphname = z;
layers = (
{
hints = (
{
place = "{13, 485}";
type = Stem;
},
{
horizontal = 1;
place = "{0, 111}";
type = Stem;
},
{
horizontal = 1;
place = "{402, 110}";
type = Stem;
},
{
horizontal = 1;
place = "{415, 97}";
type = Stem;
}
);
layerId = "05A2C769-842B-415C-86A7-244CC7525BC2";
paths = (
{
closed = 1;
nodes = (
"498 415 LINE",
"498 512 LINE",
"28 512 LINE",
"28 402 LINE",
"323 402 LINE",
"13 97 LINE",
"13 0 LINE",
"495 0 LINE",
"495 111 LINE",
"188 111 LINE"
);
}
);
width = 520;
}
);
unicode = 007A;
},
{
glyphname = braceleft;
layers = (
{
hints = (
{
horizontal = 1;
place = "{238, 100}";
type = Stem;
},
{
place = "{159, 125}";
type = Stem;
}
);
layerId = "05A2C769-842B-415C-86A7-244CC7525BC2";
paths = (
{
closed = 1;
nodes = (
"39 238 LINE",
"143 238 OFFCURVE",
"162 181 OFFCURVE",
"159 89 CURVE",
"155 -94 OFFCURVE",
"208 -131 OFFCURVE",
"391 -148 CURVE",
"397 -61 LINE",
"301 -43 OFFCURVE",
"284 -1 OFFCURVE",
"286 88 CURVE",
"287 183 OFFCURVE",
"276 251 OFFCURVE",
"183 288 CURVE",
"308 335 OFFCURVE",
"284 419 OFFCURVE",
"284 528 CURVE SMOOTH",
"284 606 OFFCURVE",
"328 623 OFFCURVE",
"397 637 CURVE",
"391 724 LINE",
"219 711 OFFCURVE",
"159 646 OFFCURVE",
"159 482 CURVE SMOOTH",
"159 386 OFFCURVE",
"157 338 OFFCURVE",
"39 338 CURVE"
);
}
);
width = 435;
}
);
unicode = 007B;
},
{
glyphname = bar;
layers = (
{
hints = (
{
horizontal = 1;
place = "{-148, 931}";
type = Stem;
},
{
place = "{260, 109}";
type = Stem;
}
);
layerId = "05A2C769-842B-415C-86A7-244CC7525BC2";
paths = (
{
closed = 1;
nodes = (
"260 783 LINE",
"260 -148 LINE",
"369 -148 LINE",
"369 783 LINE"
);
}
);
width = 628;
}
);
unicode = 007C;
},
{
glyphname = braceright;
layers = (
{
hints = (
{
horizontal = 1;
place = "{-148, 872}";
type = Stem;
},
{
place = "{150, 127}";
type = Stem;
}
);
layerId = "05A2C769-842B-415C-86A7-244CC7525BC2";
paths = (
{
closed = 1;
nodes = (
"397 338 LINE",
"249 336 OFFCURVE",
"278 426 OFFCURVE",
"278 530 CURVE SMOOTH",
"278 681 OFFCURVE",
"181 712 OFFCURVE",
"45 724 CURVE",
"39 637 LINE",
"135 619 OFFCURVE",
"151 577 OFFCURVE",
"150 488 CURVE SMOOTH",
"148 393 OFFCURVE",
"159 326 OFFCURVE",
"253 288 CURVE",
"160 251 OFFCURVE",
"148 182 OFFCURVE",
"150 88 CURVE SMOOTH",
"152 -1 OFFCURVE",
"134 -44 OFFCURVE",
"39 -61 CURVE",
"45 -148 LINE",
"222 -135 OFFCURVE",
"277 -73 OFFCURVE",
"277 100 CURVE SMOOTH",
"277 194 OFFCURVE",
"282 238 OFFCURVE",
"397 238 CURVE"
);
}
);
width = 435;
}
);
unicode = 007D;
},
{
glyphname = asciitilde;
layers = (
{
hints = (
{
place = "{47, 415}";
type = Stem;
},
{
horizontal = 1;
place = "{231, 101}";
type = Stem;
},
{
horizontal = 1;
place = "{278, 101}";
type = Stem;
}
);
layerId = "05A2C769-842B-415C-86A7-244CC7525BC2";
paths = (
{
closed = 1;
nodes = (
"394 385 LINE",
"379 351 OFFCURVE",
"359 332 OFFCURVE",
"330 332 CURVE SMOOTH",
"283 332 OFFCURVE",
"236 379 OFFCURVE",
"169 379 CURVE SMOOTH",
"109 379 OFFCURVE",
"73 343 OFFCURVE",
"47 257 CURVE",
"116 225 LINE",
"132 260 OFFCURVE",
"148 278 OFFCURVE",
"179 278 CURVE SMOOTH",
"228 278 OFFCURVE",
"284 231 OFFCURVE",
"344 231 CURVE SMOOTH",
"398 231 OFFCURVE",
"438 269 OFFCURVE",
"462 352 CURVE"
);
}
);
width = 510;
}
);
unicode = 007E;
},
{
glyphname = exclamdown;
layers = (
{
hints = (
{
place = "{74, 168}";
type = Stem;
},
{
place = "{80, 154}";
type = Stem;
},
{
horizontal = 1;
place = "{-179, 21}";
target = up;
type = BottomGhost;
},
{
horizontal = 1;
place = "{380, 155}";
type = Stem;
}
);
layerId = "05A2C769-842B-415C-86A7-244CC7525BC2";
paths = (
{
closed = 1;
nodes = (
"242 507 OFFCURVE",
"204 535 OFFCURVE",
"158 535 CURVE SMOOTH",
"112 535 OFFCURVE",
"74 507 OFFCURVE",
"74 457 CURVE SMOOTH",
"74 409 OFFCURVE",
"112 380 OFFCURVE",
"158 380 CURVE SMOOTH",
"204 380 OFFCURVE",
"242 409 OFFCURVE",
"242 457 CURVE SMOOTH"
);
},
{
closed = 1;
nodes = (
"236 -179 LINE",
"234 -74 LINE",
"197 309 LINE",
"119 309 LINE",
"82 -74 LINE",
"79 -179 LINE"
);
}
);
width = 316;
}
);
unicode = 00A1;
},
{
glyphname = cent;
layers = (
{
hints = (
{
place = "{34, 123}";
type = Stem;
},
{
place = "{299, 88}";
type = Stem;
},
{
horizontal = 1;
place = "{99, 108}";
type = Stem;
},
{
horizontal = 1;
place = "{619, 87}";
type = Stem;
},
{
horizontal = 1;
place = "{706, -20}";
target = down;
type = TopGhost;
}
);
layerId = "05A2C769-842B-415C-86A7-244CC7525BC2";
paths = (
{
closed = 1;
nodes = (
"454 586 LINE",
"430 603 OFFCURVE",
"406 614 OFFCURVE",
"382 619 CURVE",
"393 706 LINE",
"304 706 LINE",
"294 630 LINE",
"140 626 OFFCURVE",
"34 513 OFFCURVE",
"34 363 CURVE SMOOTH",
"34 245 OFFCURVE",
"108 145 OFFCURVE",
"218 112 CURVE",
"204 15 LINE",
"294 15 LINE",
"306 99 LINE",
"367 100 OFFCURVE",
"416 117 OFFCURVE",
"455 148 CURVE",
"455 273 LINE",
"421 236 OFFCURVE",
"372 207 OFFCURVE",
"316 207 CURVE",
"359 516 LINE",
"396 511 OFFCURVE",
"431 489 OFFCURVE",
"454 462 CURVE"
);
},
{
closed = 1;
nodes = (
"239 220 LINE",
"187 248 OFFCURVE",
"157 295 OFFCURVE",
"157 365 CURVE SMOOTH",
"157 455 OFFCURVE",
"205 513 OFFCURVE",
"281 521 CURVE"
);
}
);
width = 494;
}
);
unicode = 00A2;
},
{
glyphname = sterling;
layers = (
{
hints = (
{
horizontal = 1;
place = "{0, 113}";
type = Stem;
},
{
horizontal = 1;
place = "{284, 102}";
type = Stem;
},
{
horizontal = 1;
place = "{590, 125}";
type = Stem;
},
{
place = "{98, 140}";
type = Stem;
}
);
layerId = "05A2C769-842B-415C-86A7-244CC7525BC2";
paths = (
{
closed = 1;
nodes = (
"471 386 LINE",
"238 386 LINE",
"238 463 LINE SMOOTH",
"238 535 OFFCURVE",
"272 590 OFFCURVE",
"346 590 CURVE SMOOTH",
"398 590 OFFCURVE",
"431 569 OFFCURVE",
"464 530 CURVE",
"557 616 LINE",
"507 675 OFFCURVE",
"439 715 OFFCURVE",
"341 715 CURVE SMOOTH",
"186 715 OFFCURVE",
"98 613 OFFCURVE",
"98 463 CURVE SMOOTH",
"98 386 LINE",
"28 386 LINE",
"28 284 LINE",
"98 284 LINE",
"98 0 LINE",
"549 0 LINE",
"549 113 LINE",
"238 113 LINE",
"238 284 LINE",
"471 284 LINE"
);
}
);
width = 571;
}
);
unicode = 00A3;
},
{
glyphname = currency;
layers = (
{
hints = (
{
horizontal = 1;
place = "{72, 95}";
type = Stem;
},
{
horizontal = 1;
place = "{491, 95}";
type = Stem;
},
{
place = "{96, 102}";
type = Stem;
},
{
place = "{510, 104}";
type = Stem;
}
);
layerId = "05A2C769-842B-415C-86A7-244CC7525BC2";
paths = (
{
closed = 1;
nodes = (
"594 632 LINE",
"502 541 LINE",
"460 570 OFFCURVE",
"410 586 OFFCURVE",
"354 586 CURVE SMOOTH",
"298 586 OFFCURVE",
"250 571 OFFCURVE",
"205 540 CURVE",
"111 632 LINE",
"47 567 LINE",
"140 475 LINE",
"108 429 OFFCURVE",
"96 384 OFFCURVE",
"96 329 CURVE SMOOTH",
"96 271 OFFCURVE",
"111 223 OFFCURVE",
"142 181 CURVE",
"47 86 LINE",
"111 21 LINE",
"208 116 LINE",
"254 86 OFFCURVE",
"301 72 OFFCURVE",
"354 72 CURVE SMOOTH",
"408 72 OFFCURVE",
"456 87 OFFCURVE",
"500 115 CURVE",
"595 21 LINE",
"660 86 LINE",
"567 178 LINE",
"597 222 OFFCURVE",
"614 271 OFFCURVE",
"614 329 CURVE SMOOTH",
"614 387 OFFCURVE",
"598 431 OFFCURVE",
"568 477 CURVE",
"660 567 LINE"
);
},
{
closed = 1;
nodes = (
"447 491 OFFCURVE",
"510 420 OFFCURVE",
"510 328 CURVE SMOOTH",
"510 239 OFFCURVE",
"447 167 OFFCURVE",
"354 167 CURVE SMOOTH",
"261 167 OFFCURVE",
"198 239 OFFCURVE",
"198 329 CURVE SMOOTH",
"198 418 OFFCURVE",
"261 491 OFFCURVE",
"354 491 CURVE SMOOTH"
);
}
);
width = 706;
}
);
unicode = 00A4;
},
{
glyphname = yen;
layers = (
{
hints = (
{
place = "{247, 146}";
type = Stem;
},
{
place = "{251, 137}";
type = Stem;
},
{
horizontal = 1;
place = "{0, 213}";
type = Stem;
},
{
horizontal = 1;
place = "{120, 93}";
type = Stem;
},
{
horizontal = 1;
place = "{283, 94}";
type = Stem;
},
{
horizontal = 1;
place = "{703, -20}";
target = down;
type = TopGhost;
}
);
layerId = "05A2C769-842B-415C-86A7-244CC7525BC2";
paths = (
{
closed = 1;
nodes = (
"67 213 LINE",
"67 120 LINE",
"251 120 LINE",
"251 0 LINE",
"388 0 LINE",
"388 120 LINE",
"572 120 LINE",
"572 213 LINE",
"389 213 LINE",
"397 283 LINE",
"572 283 LINE",
"572 377 LINE",
"430 377 LINE",
"642 703 LINE",
"486 703 LINE",
"322 421 LINE",
"156 703 LINE",
"-3 703 LINE",
"208 377 LINE",
"67 377 LINE",
"67 283 LINE",
"242 283 LINE",
"252 213 LINE"
);
}
);
width = 639;
}
);
unicode = 00A5;
},
{
glyphname = brokenbar;
layers = (
{
hints = (
{
horizontal = 1;
place = "{-174, 21}";
target = up;
type = BottomGhost;
},
{
place = "{260, 121}";
type = Stem;
}
);
layerId = "05A2C769-842B-415C-86A7-244CC7525BC2";
paths = (
{
closed = 1;
nodes = (
"260 674 LINE",
"260 325 LINE",
"381 325 LINE",
"381 674 LINE"
);
},
{
closed = 1;
nodes = (
"260 173 LINE",
"260 -174 LINE",
"381 -174 LINE",
"381 173 LINE"
);
}
);
width = 640;
}
);
unicode = 00A6;
},
{
glyphname = section;
layers = (
{
hints = (
{
place = "{28, 111}";
type = Stem;
},
{
place = "{75, 128}";
type = Stem;
},
{
place = "{360, 127}";
type = Stem;
},
{
place = "{423, 111}";
type = Stem;
},
{
horizontal = 1;
place = "{-50, 99}";
type = Stem;
},
{
horizontal = 1;
place = "{-4, 21}";
target = up;
type = BottomGhost;
},
{
horizontal = 1;
place = "{619, 99}";
type = Stem;
}
);
layerId = "05A2C769-842B-415C-86A7-244CC7525BC2";
paths = (
{
closed = 1;
nodes = (
"443 675 LINE",
"399 702 OFFCURVE",
"345 718 OFFCURVE",
"282 718 CURVE SMOOTH",
"154 718 OFFCURVE",
"75 654 OFFCURVE",
"75 568 CURVE SMOOTH",
"75 521 OFFCURVE",
"101 483 OFFCURVE",
"136 458 CURVE",
"68 439 OFFCURVE",
"28 398 OFFCURVE",
"28 340 CURVE SMOOTH",
"28 265 OFFCURVE",
"102 217 OFFCURVE",
"233 184 CURVE",
"317 161 OFFCURVE",
"360 136 OFFCURVE",
"360 103 CURVE SMOOTH",
"360 68 OFFCURVE",
"333 49 OFFCURVE",
"282 49 CURVE SMOOTH",
"223 49 OFFCURVE",
"163 72 OFFCURVE",
"115 115 CURVE",
"115 -4 LINE",
"159 -32 OFFCURVE",
"215 -50 OFFCURVE",
"280 -50 CURVE SMOOTH",
"410 -50 OFFCURVE",
"487 17 OFFCURVE",
"487 106 CURVE SMOOTH",
"487 149 OFFCURVE",
"466 185 OFFCURVE",
"428 214 CURVE",
"493 234 OFFCURVE",
"534 271 OFFCURVE",
"534 332 CURVE SMOOTH",
"534 408 OFFCURVE",
"467 447 OFFCURVE",
"327 488 CURVE SMOOTH",
"233 516 OFFCURVE",
"203 543 OFFCURVE",
"203 569 CURVE SMOOTH",
"203 602 OFFCURVE",
"233 619 OFFCURVE",
"283 619 CURVE SMOOTH",
"342 619 OFFCURVE",
"392 596 OFFCURVE",
"443 557 CURVE"
);
},
{
closed = 1;
nodes = (
"423 280 OFFCURVE",
"394 258 OFFCURVE",
"348 258 CURVE",
"258 267 OFFCURVE",
"139 302 OFFCURVE",
"139 358 CURVE SMOOTH",
"139 392 OFFCURVE",
"170 410 OFFCURVE",
"215 414 CURVE",
"271 408 OFFCURVE",
"423 370 OFFCURVE",
"423 310 CURVE SMOOTH"
);
}
);
width = 575;
}
);
unicode = 00A7;
},
{
glyphname = dieresis;
layers = (
{
hints = (
{
horizontal = 1;
place = "{628, 144}";
type = Stem;
},
{
place = "{13, 148}";
type = Stem;
},
{
place = "{222, 146}";
type = Stem;
}
);
layerId = "05A2C769-842B-415C-86A7-244CC7525BC2";
paths = (
{
closed = 1;
nodes = (
"13 656 OFFCURVE",
"45 628 OFFCURVE",
"87 628 CURVE SMOOTH",
"127 628 OFFCURVE",
"161 656 OFFCURVE",
"161 700 CURVE SMOOTH",
"161 744 OFFCURVE",
"127 772 OFFCURVE",
"87 772 CURVE SMOOTH",
"45 772 OFFCURVE",
"13 744 OFFCURVE",
"13 700 CURVE SMOOTH"
);
},
{
closed = 1;
nodes = (
"222 656 OFFCURVE",
"254 628 OFFCURVE",
"295 628 CURVE SMOOTH",
"337 628 OFFCURVE",
"368 656 OFFCURVE",
"368 700 CURVE SMOOTH",
"368 744 OFFCURVE",
"337 772 OFFCURVE",
"295 772 CURVE SMOOTH",
"254 772 OFFCURVE",
"222 744 OFFCURVE",
"222 700 CURVE SMOOTH"
);
}
);
width = 381;
}
);
unicode = 00A8;
},
{
glyphname = copyright;
layers = (
{
hints = (
{
horizontal = 1;
place = "{-25, 55}";
type = Stem;
},
{
horizontal = 1;
place = "{144, 93}";
type = Stem;
},
{
horizontal = 1;
place = "{482, 92}";
type = Stem;
},
{
horizontal = 1;
place = "{679, 55}";
type = Stem;
},
{
place = "{30, 54}";
type = Stem;
},
{
place = "{200, 107}";
type = Stem;
},
{
place = "{729, 54}";
type = Stem;
}
);
layerId = "05A2C769-842B-415C-86A7-244CC7525BC2";
paths = (
{
closed = 1;
nodes = (
"616 -25 OFFCURVE",
"783 147 OFFCURVE",
"783 356 CURVE SMOOTH",
"783 563 OFFCURVE",
"615 734 OFFCURVE",
"407 734 CURVE SMOOTH",
"198 734 OFFCURVE",
"30 561 OFFCURVE",
"30 357 CURVE SMOOTH",
"30 147 OFFCURVE",
"195 -25 OFFCURVE",
"406 -25 CURVE SMOOTH"
);
},
{
closed = 1;
nodes = (
"225 30 OFFCURVE",
"84 177 OFFCURVE",
"84 356 CURVE SMOOTH",
"84 533 OFFCURVE",
"226 679 OFFCURVE",
"407 679 CURVE SMOOTH",
"588 679 OFFCURVE",
"729 534 OFFCURVE",
"729 356 CURVE SMOOTH",
"729 176 OFFCURVE",
"587 30 OFFCURVE",
"406 30 CURVE SMOOTH"
);
},
{
closed = 1;
nodes = (
"528 281 LINE",
"494 250 OFFCURVE",
"458 237 OFFCURVE",
"422 237 CURVE SMOOTH",
"355 237 OFFCURVE",
"307 291 OFFCURVE",
"307 361 CURVE SMOOTH",
"307 429 OFFCURVE",
"356 482 OFFCURVE",
"422 482 CURVE SMOOTH",
"463 482 OFFCURVE",
"501 463 OFFCURVE",
"528 437 CURVE",
"528 542 LINE",
"502 559 OFFCURVE",
"463 574 OFFCURVE",
"416 574 CURVE SMOOTH",
"290 574 OFFCURVE",
"200 479 OFFCURVE",
"200 361 CURVE SMOOTH",
"200 241 OFFCURVE",
"292 144 OFFCURVE",
"412 144 CURVE SMOOTH",
"461 144 OFFCURVE",
"498 160 OFFCURVE",
"528 181 CURVE"
);
}
);
width = 812;
}
);
unicode = 00A9;
},
{
glyphname = ordfeminine;
layers = (
{
hints = (
{
horizontal = 1;
place = "{295, 62}";
type = Stem;
},
{
horizontal = 1;
place = "{419, 54}";
type = Stem;
},
{
horizontal = 1;
place = "{561, 44}";
type = Stem;
},
{
horizontal = 1;
place = "{658, 64}";
type = Stem;
},
{
place = "{25, 76}";
type = Stem;
},
{
place = "{220, 77}";
type = Stem;
}
);
layerId = "05A2C769-842B-415C-86A7-244CC7525BC2";
paths = (
{
closed = 1;
nodes = (
"167 419 OFFCURVE",
"198 436 OFFCURVE",
"220 462 CURVE",
"220 425 LINE",
"297 425 LINE",
"297 597 LINE SMOOTH",
"297 681 OFFCURVE",
"250 722 OFFCURVE",
"162 722 CURVE SMOOTH",
"119 722 OFFCURVE",
"82 712 OFFCURVE",
"50 697 CURVE",
"68 638 LINE",
"94 651 OFFCURVE",
"122 658 OFFCURVE",
"151 658 CURVE SMOOTH",
"196 658 OFFCURVE",
"220 638 OFFCURVE",
"220 599 CURVE SMOOTH",
"220 593 LINE",
"198 600 OFFCURVE",
"175 605 OFFCURVE",
"145 605 CURVE SMOOTH",
"73 605 OFFCURVE",
"25 575 OFFCURVE",
"25 511 CURVE SMOOTH",
"25 451 OFFCURVE",
"74 419 OFFCURVE",
"128 419 CURVE SMOOTH"
);
},
{
closed = 1;
nodes = (
"123 473 OFFCURVE",
"101 488 OFFCURVE",
"101 516 CURVE SMOOTH",
"101 544 OFFCURVE",
"124 561 OFFCURVE",
"163 561 CURVE SMOOTH",
"186 561 OFFCURVE",
"205 556 OFFCURVE",
"221 550 CURVE",
"221 533 LINE SMOOTH",
"221 496 OFFCURVE",
"188 473 OFFCURVE",
"152 473 CURVE SMOOTH"
);
},
{
closed = 1;
nodes = (
"22 295 LINE",
"302 295 LINE",
"302 357 LINE",
"22 357 LINE"
);
}
);
width = 337;
}
);
unicode = 00AA;
},
{
glyphname = guillemotleft;
layers = (
{
hints = (
{
horizontal = 1;
place = "{40, 441}";
type = Stem;
},
{
place = "{40, 510}";
type = Stem;
}
);
layerId = "05A2C769-842B-415C-86A7-244CC7525BC2";
paths = (
{
closed = 1;
nodes = (
"178 261 LINE",
"308 438 LINE",
"203 481 LINE",
"40 259 LINE",
"202 40 LINE",
"307 85 LINE"
);
},
{
closed = 1;
nodes = (
"420 261 LINE",
"550 438 LINE",
"445 481 LINE",
"282 259 LINE",
"444 40 LINE",
"549 85 LINE"
);
}
);
width = 596;
}
);
unicode = 00AB;
},
{
glyphname = logicalnot;
layers = (
{
hints = (
{
horizontal = 1;
place = "{309, 105}";
type = Stem;
},
{
place = "{472, 108}";
type = Stem;
}
);
layerId = "05A2C769-842B-415C-86A7-244CC7525BC2";
paths = (
{
closed = 1;
nodes = (
"580 414 LINE",
"60 414 LINE",
"60 309 LINE",
"472 309 LINE",
"472 127 LINE",
"580 127 LINE"
);
}
);
width = 639;
}
);
unicode = 00AC;
},
{
glyphname = uni00AD;
layers = (
{
hints = (
{
horizontal = 1;
place = "{212, 122}";
type = Stem;
},
{
place = "{27, 299}";
type = Stem;
}
);
layerId = "05A2C769-842B-415C-86A7-244CC7525BC2";
paths = (
{
closed = 1;
nodes = (
"326 334 LINE",
"27 334 LINE",
"27 212 LINE",
"326 212 LINE"
);
}
);
width = 352;
}
);
unicode = 00AD;
},
{
glyphname = registered;
layers = (
{
hints = (
{
horizontal = 1;
place = "{-5, 51}";
type = Stem;
},
{
horizontal = 1;
place = "{307, 74}";
type = Stem;
},
{
horizontal = 1;
place = "{488, 76}";
type = Stem;
},
{
horizontal = 1;
place = "{665, 51}";
type = Stem;
},
{
place = "{20, 53}";
type = Stem;
},
{
place = "{238, 89}";
type = Stem;
},
{
place = "{456, 86}";
type = Stem;
},
{
place = "{690, 53}";
type = Stem;
}
);
layerId = "05A2C769-842B-415C-86A7-244CC7525BC2";
paths = (
{
closed = 1;
nodes = (
"20 159 OFFCURVE",
"180 -5 OFFCURVE",
"382 -5 CURVE SMOOTH",
"580 -5 OFFCURVE",
"743 160 OFFCURVE",
"743 356 CURVE SMOOTH",
"743 553 OFFCURVE",
"583 716 OFFCURVE",
"384 716 CURVE SMOOTH",
"181 716 OFFCURVE",
"20 554 OFFCURVE",
"20 356 CURVE SMOOTH"
);
},
{
closed = 1;
nodes = (
"73 527 OFFCURVE",
"209 665 OFFCURVE",
"384 665 CURVE SMOOTH",
"554 665 OFFCURVE",
"690 527 OFFCURVE",
"690 358 CURVE SMOOTH",
"690 188 OFFCURVE",
"555 46 OFFCURVE",
"382 46 CURVE SMOOTH",
"207 46 OFFCURVE",
"73 185 OFFCURVE",
"73 355 CURVE SMOOTH"
);
},
{
closed = 1;
nodes = (
"238 158 LINE",
"327 158 LINE",
"327 307 LINE",
"357 307 LINE",
"467 158 LINE",
"570 158 LINE",
"449 320 LINE",
"501 336 OFFCURVE",
"542 379 OFFCURVE",
"542 440 CURVE SMOOTH",
"542 514 OFFCURVE",
"486 564 OFFCURVE",
"398 564 CURVE SMOOTH",
"238 564 LINE"
);
},
{
closed = 1;
nodes = (
"327 381 LINE",
"327 488 LINE",
"389 488 LINE SMOOTH",
"433 488 OFFCURVE",
"456 463 OFFCURVE",
"456 434 CURVE SMOOTH",
"456 402 OFFCURVE",
"428 381 OFFCURVE",
"389 381 CURVE SMOOTH"
);
}
);
width = 762;
}
);
unicode = 00AE;
},
{
glyphname = degree;
layers = (
{
hints = (
{
horizontal = 1;
place = "{412, 73}";
type = Stem;
},
{
horizontal = 1;
place = "{663, 73}";
type = Stem;
},
{
place = "{34, 78}";
type = Stem;
},
{
place = "{287, 77}";
type = Stem;
}
);
layerId = "05A2C769-842B-415C-86A7-244CC7525BC2";
paths = (
{
closed = 1;
nodes = (
"364 664 OFFCURVE",
"289 736 OFFCURVE",
"199 736 CURVE SMOOTH",
"112 736 OFFCURVE",
"34 662 OFFCURVE",
"34 574 CURVE SMOOTH",
"34 485 OFFCURVE",
"110 412 OFFCURVE",
"199 412 CURVE SMOOTH",
"289 412 OFFCURVE",
"364 485 OFFCURVE",
"364 574 CURVE SMOOTH"
);
},
{
closed = 1;
nodes = (
"287 523 OFFCURVE",
"249 485 OFFCURVE",
"199 485 CURVE SMOOTH",
"149 485 OFFCURVE",
"112 525 OFFCURVE",
"112 574 CURVE SMOOTH",
"112 622 OFFCURVE",
"150 663 OFFCURVE",
"199 663 CURVE SMOOTH",
"248 663 OFFCURVE",
"287 623 OFFCURVE",
"287 574 CURVE SMOOTH"
);
}
);
width = 398;
}
);
unicode = 00B0;
},
{
glyphname = plusminus;
layers = (
{
hints = (
{
horizontal = 1;
place = "{17, 100}";
type = Stem;
},
{
horizontal = 1;
place = "{331, 100}";
type = Stem;
},
{
place = "{257, 101}";
type = Stem;
}
);
layerId = "05A2C769-842B-415C-86A7-244CC7525BC2";
paths = (
{
closed = 1;
nodes = (
"64 331 LINE",
"257 331 LINE",
"257 177 LINE",
"358 177 LINE",
"358 331 LINE",
"550 331 LINE",
"550 431 LINE",
"358 431 LINE",
"358 585 LINE",
"257 585 LINE",
"257 431 LINE",
"64 431 LINE"
);
},
{
closed = 1;
nodes = (
"64 17 LINE",
"550 17 LINE",
"550 117 LINE",
"64 117 LINE"
);
}
);
width = 614;
}
);
unicode = 00B1;
},
{
glyphname = twosuperior;
layers = (
{
hints = (
{
horizontal = 1;
place = "{285, 77}";
type = Stem;
},
{
horizontal = 1;
place = "{641, 78}";
type = Stem;
},
{
place = "{250, 98}";
type = Stem;
}
);
layerId = "05A2C769-842B-415C-86A7-244CC7525BC2";
paths = (
{
closed = 1;
nodes = (
"16 285 LINE",
"336 285 LINE",
"351 364 LINE",
"190 360 LINE",
"238 408 LINE",
"310 477 OFFCURVE",
"348 521 OFFCURVE",
"348 586 CURVE SMOOTH",
"348 666 OFFCURVE",
"282 719 OFFCURVE",
"197 719 CURVE SMOOTH",
"118 719 OFFCURVE",
"76 684 OFFCURVE",
"49 612 CURVE",
"134 588 LINE",
"146 619 OFFCURVE",
"164 641 OFFCURVE",
"194 641 CURVE SMOOTH",
"227 641 OFFCURVE",
"250 617 OFFCURVE",
"250 584 CURVE SMOOTH",
"250 539 OFFCURVE",
"205 492 OFFCURVE",
"149 429 CURVE"
);
}
);
width = 382;
}
);
unicode = 00B2;
},
{
glyphname = threesuperior;
layers = (
{
hints = (
{
place = "{208, 94}";
type = Stem;
},
{
place = "{227, 95}";
type = Stem;
},
{
horizontal = 1;
place = "{279, 73}";
type = Stem;
},
{
horizontal = 1;
place = "{486, 64}";
type = Stem;
},
{
horizontal = 1;
place = "{522, -20}";
target = down;
type = TopGhost;
},
{
horizontal = 1;
place = "{650, 72}";
type = Stem;
}
);
layerId = "05A2C769-842B-415C-86A7-244CC7525BC2";
paths = (
{
closed = 1;
nodes = (
"10 360 LINE",
"33 305 OFFCURVE",
"90 279 OFFCURVE",
"154 279 CURVE SMOOTH",
"245 279 OFFCURVE",
"322 328 OFFCURVE",
"322 416 CURVE SMOOTH",
"322 464 OFFCURVE",
"297 501 OFFCURVE",
"247 522 CURVE",
"281 542 OFFCURVE",
"302 572 OFFCURVE",
"302 611 CURVE SMOOTH",
"302 683 OFFCURVE",
"236 722 OFFCURVE",
"159 722 CURVE SMOOTH",
"101 722 OFFCURVE",
"48 698 OFFCURVE",
"32 648 CURVE",
"93 617 LINE",
"109 635 OFFCURVE",
"129 650 OFFCURVE",
"157 650 CURVE SMOOTH",
"188 650 OFFCURVE",
"208 629 OFFCURVE",
"208 604 CURVE SMOOTH",
"208 572 OFFCURVE",
"179 550 OFFCURVE",
"141 550 CURVE SMOOTH",
"126 550 LINE",
"126 485 LINE",
"149 486 LINE",
"205 486 OFFCURVE",
"227 456 OFFCURVE",
"227 422 CURVE SMOOTH",
"227 382 OFFCURVE",
"197 352 OFFCURVE",
"153 352 CURVE SMOOTH",
"120 352 OFFCURVE",
"94 369 OFFCURVE",
"74 392 CURVE"
);
}
);
width = 346;
}
);
unicode = 00B3;
},
{
glyphname = acute;
layers = (
{
hints = (
{
horizontal = 1;
place = "{616, 167}";
type = Stem;
},
{
place = "{14, 234}";
type = Stem;
}
);
layerId = "05A2C769-842B-415C-86A7-244CC7525BC2";
paths = (
{
closed = 1;
nodes = (
"14 616 LINE",
"111 616 LINE",
"248 745 LINE",
"112 783 LINE"
);
}
);
width = 251;
}
);
unicode = 00B4;
},
{
glyphname = uni00B5;
layers = (
{
hints = (
{
place = "{60, 136}";
type = Stem;
},
{
place = "{399, 136}";
type = Stem;
},
{
horizontal = 1;
place = "{-174, 21}";
target = up;
type = BottomGhost;
},
{
horizontal = 1;
place = "{-11, 120}";
type = Stem;
},
{
horizontal = 1;
place = "{0, 21}";
target = up;
type = BottomGhost;
},
{
horizontal = 1;
place = "{512, -20}";
target = down;
type = TopGhost;
}
);
layerId = "05A2C769-842B-415C-86A7-244CC7525BC2";
paths = (
{
closed = 1;
nodes = (
"196 50 LINE",
"214 12 OFFCURVE",
"249 -11 OFFCURVE",
"289 -11 CURVE SMOOTH",
"335 -11 OFFCURVE",
"374 18 OFFCURVE",
"399 68 CURVE",
"535 0 LINE",
"535 512 LINE",
"399 512 LINE",
"399 226 LINE SMOOTH",
"399 148 OFFCURVE",
"352 109 OFFCURVE",
"293 109 CURVE SMOOTH",
"242 109 OFFCURVE",
"196 145 OFFCURVE",
"196 226 CURVE SMOOTH",
"196 512 LINE",
"60 512 LINE",
"60 -174 LINE",
"196 -174 LINE"
);
}
);
width = 599;
}
);
unicode = 00B5;
},
{
glyphname = paragraph;
layers = (
{
hints = (
{
horizontal = 1;
place = "{615, 91}";
type = Stem;
},
{
place = "{218, 96}";
type = Stem;
},
{
place = "{392, 96}";
type = Stem;
}
);
layerId = "05A2C769-842B-415C-86A7-244CC7525BC2";
paths = (
{
closed = 1;
nodes = (
"314 -109 LINE",
"314 615 LINE",
"392 615 LINE",
"392 -109 LINE",
"488 -109 LINE",
"488 615 LINE",
"532 615 LINE",
"554 706 LINE",
"252 706 LINE SMOOTH",
"117 706 OFFCURVE",
"38 636 OFFCURVE",
"38 517 CURVE SMOOTH",
"38 400 OFFCURVE",
"121 350 OFFCURVE",
"218 335 CURVE",
"218 -109 LINE"
);
}
);
width = 637;
}
);
unicode = 00B6;
},
{
glyphname = periodcentered;
layers = (
{
hints = (
{
horizontal = 1;
place = "{280, 170}";
type = Stem;
},
{
place = "{74, 172}";
type = Stem;
}
);
layerId = "05A2C769-842B-415C-86A7-244CC7525BC2";
paths = (
{
closed = 1;
nodes = (
"74 313 OFFCURVE",
"112 280 OFFCURVE",
"160 280 CURVE SMOOTH",
"208 280 OFFCURVE",
"246 313 OFFCURVE",
"246 365 CURVE SMOOTH",
"246 418 OFFCURVE",
"208 450 OFFCURVE",
"160 450 CURVE SMOOTH",
"112 450 OFFCURVE",
"74 418 OFFCURVE",
"74 365 CURVE SMOOTH"
);
}
);
width = 320;
}
);
unicode = 00B7;
},
{
glyphname = cedilla;
layers = (
{
hints = (
{
horizontal = 1;
place = "{-234, 59}";
type = Stem;
},
{
horizontal = 1;
place = "{-110, 41}";
type = Stem;
},
{
place = "{190, 80}";
type = Stem;
}
);
layerId = "05A2C769-842B-415C-86A7-244CC7525BC2";
paths = (
{
closed = 1;
nodes = (
"220 0 LINE",
"153 0 LINE",
"88 -99 LINE",
"112 -119 LINE",
"126 -113 OFFCURVE",
"137 -110 OFFCURVE",
"150 -110 CURVE SMOOTH",
"174 -110 OFFCURVE",
"190 -120 OFFCURVE",
"190 -138 CURVE SMOOTH",
"190 -166 OFFCURVE",
"152 -175 OFFCURVE",
"131 -175 CURVE SMOOTH",
"114 -175 OFFCURVE",
"93 -172 OFFCURVE",
"70 -162 CURVE",
"52 -211 LINE",
"82 -225 OFFCURVE",
"114 -234 OFFCURVE",
"147 -234 CURVE SMOOTH",
"200 -234 OFFCURVE",
"270 -211 OFFCURVE",
"270 -143 CURVE SMOOTH",
"270 -89 OFFCURVE",
"222 -69 OFFCURVE",
"184 -69 CURVE SMOOTH",
"179 -69 LINE"
);
}
);
width = 323;
}
);
unicode = 00B8;
},
{
glyphname = onesuperior;
layers = (
{
hints = (
{
horizontal = 1;
place = "{711, -20}";
target = down;
type = TopGhost;
},
{
place = "{96, 98}";
type = Stem;
}
);
layerId = "05A2C769-842B-415C-86A7-244CC7525BC2";
paths = (
{
closed = 1;
nodes = (
"96 286 LINE",
"194 286 LINE",
"194 711 LINE",
"122 710 LINE",
"94 696 OFFCURVE",
"58 682 OFFCURVE",
"35 668 CURVE",
"35 582 LINE",
"56 589 OFFCURVE",
"74 600 OFFCURVE",
"96 612 CURVE"
);
}
);
width = 283;
}
);
unicode = 00B9;
},
{
glyphname = ordmasculine;
layers = (
{
hints = (
{
horizontal = 1;
place = "{297, 62}";
type = Stem;
},
{
horizontal = 1;
place = "{419, 69}";
type = Stem;
},
{
horizontal = 1;
place = "{654, 70}";
type = Stem;
},
{
place = "{22, 78}";
type = Stem;
},
{
place = "{254, 78}";
type = Stem;
}
);
layerId = "05A2C769-842B-415C-86A7-244CC7525BC2";
paths = (
{
closed = 1;
nodes = (
"265 419 OFFCURVE",
"332 489 OFFCURVE",
"332 573 CURVE SMOOTH",
"332 654 OFFCURVE",
"267 724 OFFCURVE",
"178 724 CURVE SMOOTH",
"88 724 OFFCURVE",
"22 654 OFFCURVE",
"22 571 CURVE SMOOTH",
"22 488 OFFCURVE",
"87 419 OFFCURVE",
"176 419 CURVE SMOOTH"
);
},
{
closed = 1;
nodes = (
"132 488 OFFCURVE",
"100 525 OFFCURVE",
"100 573 CURVE SMOOTH",
"100 617 OFFCURVE",
"129 654 OFFCURVE",
"176 654 CURVE SMOOTH",
"221 654 OFFCURVE",
"254 618 OFFCURVE",
"254 571 CURVE SMOOTH",
"254 525 OFFCURVE",
"224 488 OFFCURVE",
"178 488 CURVE SMOOTH"
);
},
{
closed = 1;
nodes = (
"33 297 LINE",
"321 297 LINE",
"321 359 LINE",
"33 359 LINE"
);
}
);
width = 353;
}
);
unicode = 00BA;
},
{
glyphname = guillemotright;
layers = (
{
hints = (
{
horizontal = 1;
place = "{40, 441}";
type = Stem;
},
{
place = "{44, 510}";
type = Stem;
}
);
layerId = "05A2C769-842B-415C-86A7-244CC7525BC2";
paths = (
{
closed = 1;
nodes = (
"45 85 LINE",
"149 40 LINE",
"312 259 LINE",
"149 481 LINE",
"44 438 LINE",
"174 261 LINE"
);
},
{
closed = 1;
nodes = (
"287 85 LINE",
"391 40 LINE",
"554 259 LINE",
"391 481 LINE",
"286 438 LINE",
"416 261 LINE"
);
}
);
width = 597;
}
);
unicode = 00BB;
},
{
glyphname = onequarter;
layers = (
{
hints = (
{
horizontal = 1;
place = "{1, 21}";
target = up;
type = BottomGhost;
},
{
horizontal = 1;
place = "{75, 72}";
type = Stem;
},
{
horizontal = 1;
place = "{297, 132}";
type = Stem;
},
{
horizontal = 1;
place = "{711, -20}";
target = down;
type = TopGhost;
},
{
place = "{77, 98}";
type = Stem;
},
{
place = "{577, 93}";
type = Stem;
}
);
layerId = "05A2C769-842B-415C-86A7-244CC7525BC2";
paths = (
{
closed = 1;
nodes = (
"620 786 LINE",
"507 794 LINE",
"59 -74 LINE",
"170 -80 LINE"
);
},
{
closed = 1;
nodes = (
"77 286 LINE",
"175 286 LINE",
"175 711 LINE",
"103 710 LINE",
"75 696 OFFCURVE",
"39 682 OFFCURVE",
"16 668 CURVE",
"16 582 LINE",
"37 589 OFFCURVE",
"55 600 OFFCURVE",
"77 612 CURVE"
);
},
{
closed = 1;
nodes = (
"375 75 LINE",
"447 75 OFFCURVE",
"512 76 OFFCURVE",
"577 76 CURVE",
"576 1 LINE",
"670 1 LINE",
"669 76 LINE",
"683 76 OFFCURVE",
"695 75 OFFCURVE",
"709 75 CURVE",
"718 149 LINE",
"670 148 LINE",
"670 429 LINE",
"578 429 LINE",
"375 129 LINE"
);
},
{
closed = 1;
nodes = (
"479 147 LINE",
"514 200 OFFCURVE",
"559 265 OFFCURVE",
"577 297 CURVE",
"579 297 LINE",
"579 291 LINE",
"576 268 OFFCURVE",
"577 192 OFFCURVE",
"577 148 CURVE",
"561 148 OFFCURVE",
"544 148 OFFCURVE",
"527 147 CURVE",
"506 147 OFFCURVE",
"488 147 OFFCURVE",
"480 147 CURVE"
);
}
);
width = 740;
}
);
unicode = 00BC;
},
{
glyphname = onehalf;
layers = (
{
hints = (
{
horizontal = 1;
place = "{-1, 77}";
type = Stem;
},
{
horizontal = 1;
place = "{355, 78}";
type = Stem;
},
{
horizontal = 1;
place = "{711, -20}";
target = down;
type = TopGhost;
},
{
place = "{79, 98}";
type = Stem;
},
{
place = "{653, 98}";
type = Stem;
}
);
layerId = "05A2C769-842B-415C-86A7-244CC7525BC2";
paths = (
{
closed = 1;
nodes = (
"614 786 LINE",
"501 794 LINE",
"53 -74 LINE",
"164 -80 LINE"
);
},
{
closed = 1;
nodes = (
"79 286 LINE",
"177 286 LINE",
"177 711 LINE",
"105 710 LINE",
"77 696 OFFCURVE",
"41 682 OFFCURVE",
"18 668 CURVE",
"18 582 LINE",
"39 589 OFFCURVE",
"57 600 OFFCURVE",
"79 612 CURVE"
);
},
{
closed = 1;
nodes = (
"419 -1 LINE",
"739 -1 LINE",
"754 78 LINE",
"593 74 LINE",
"641 122 LINE",
"713 191 OFFCURVE",
"751 235 OFFCURVE",
"751 300 CURVE SMOOTH",
"751 380 OFFCURVE",
"685 433 OFFCURVE",
"600 433 CURVE SMOOTH",
"521 433 OFFCURVE",
"479 398 OFFCURVE",
"452 326 CURVE",
"537 302 LINE",
"549 333 OFFCURVE",
"567 355 OFFCURVE",
"597 355 CURVE SMOOTH",
"630 355 OFFCURVE",
"653 331 OFFCURVE",
"653 298 CURVE SMOOTH",
"653 253 OFFCURVE",
"608 206 OFFCURVE",
"552 143 CURVE"
);
}
);
width = 793;
}
);
unicode = 00BD;
},
{
glyphname = threequarters;
layers = (
{
hints = (
{
place = "{234, 94}";
type = Stem;
},
{
place = "{253, 95}";
type = Stem;
},
{
place = "{707, 93}";
type = Stem;
},
{
horizontal = 1;
place = "{1, 21}";
target = up;
type = BottomGhost;
},
{
horizontal = 1;
place = "{75, 72}";
type = Stem;
},
{
horizontal = 1;
place = "{279, 73}";
type = Stem;
},
{
horizontal = 1;
place = "{297, 132}";
type = Stem;
},
{
horizontal = 1;
place = "{486, 64}";
type = Stem;
},
{
horizontal = 1;
place = "{522, -20}";
target = down;
type = TopGhost;
},
{
horizontal = 1;
place = "{650, 72}";
type = Stem;
}
);
layerId = "05A2C769-842B-415C-86A7-244CC7525BC2";
paths = (
{
closed = 1;
nodes = (
"751 786 LINE",
"638 794 LINE",
"190 -74 LINE",
"301 -80 LINE"
);
},
{
closed = 1;
nodes = (
"36 360 LINE",
"59 305 OFFCURVE",
"116 279 OFFCURVE",
"180 279 CURVE SMOOTH",
"271 279 OFFCURVE",
"348 328 OFFCURVE",
"348 416 CURVE SMOOTH",
"348 464 OFFCURVE",
"323 501 OFFCURVE",
"273 522 CURVE",
"307 542 OFFCURVE",
"328 572 OFFCURVE",
"328 611 CURVE SMOOTH",
"328 683 OFFCURVE",
"262 722 OFFCURVE",
"185 722 CURVE SMOOTH",
"127 722 OFFCURVE",
"74 698 OFFCURVE",
"58 648 CURVE",
"119 617 LINE",
"135 635 OFFCURVE",
"155 650 OFFCURVE",
"183 650 CURVE SMOOTH",
"214 650 OFFCURVE",
"234 629 OFFCURVE",
"234 604 CURVE SMOOTH",
"234 572 OFFCURVE",
"205 550 OFFCURVE",
"167 550 CURVE SMOOTH",
"152 550 LINE",
"152 485 LINE",
"175 486 LINE",
"231 486 OFFCURVE",
"253 456 OFFCURVE",
"253 422 CURVE SMOOTH",
"253 382 OFFCURVE",
"223 352 OFFCURVE",
"179 352 CURVE SMOOTH",
"146 352 OFFCURVE",
"120 369 OFFCURVE",
"100 392 CURVE"
);
},
{
closed = 1;
nodes = (
"505 75 LINE",
"577 75 OFFCURVE",
"642 76 OFFCURVE",
"707 76 CURVE",
"706 1 LINE",
"800 1 LINE",
"799 76 LINE",
"813 76 OFFCURVE",
"825 75 OFFCURVE",
"839 75 CURVE",
"848 149 LINE",
"800 148 LINE",
"800 429 LINE",
"708 429 LINE",
"505 129 LINE"
);
},
{
closed = 1;
nodes = (
"609 147 LINE",
"644 200 OFFCURVE",
"689 265 OFFCURVE",
"707 297 CURVE",
"709 297 LINE",
"709 291 LINE",
"706 268 OFFCURVE",
"707 192 OFFCURVE",
"707 148 CURVE",
"691 148 OFFCURVE",
"674 148 OFFCURVE",
"657 147 CURVE",
"636 147 OFFCURVE",
"618 147 OFFCURVE",
"610 147 CURVE"
);
}
);
width = 869;
}
);
unicode = 00BE;
},
{
glyphname = questiondown;
layers = (
{
hints = (
{
place = "{45, 136}";
type = Stem;
},
{
place = "{179, 168}";
type = Stem;
},
{
place = "{205, 128}";
type = Stem;
},
{
horizontal = 1;
place = "{-192, 119}";
type = Stem;
},
{
horizontal = 1;
place = "{377, 156}";
type = Stem;
}
);
layerId = "05A2C769-842B-415C-86A7-244CC7525BC2";
paths = (
{
closed = 1;
nodes = (
"347 505 OFFCURVE",
"309 533 OFFCURVE",
"263 533 CURVE SMOOTH",
"217 533 OFFCURVE",
"179 505 OFFCURVE",
"179 455 CURVE SMOOTH",
"179 407 OFFCURVE",
"217 377 OFFCURVE",
"263 377 CURVE SMOOTH",
"309 377 OFFCURVE",
"347 407 OFFCURVE",
"347 455 CURVE SMOOTH"
);
},
{
closed = 1;
nodes = (
"220 -73 OFFCURVE",
"181 -40 OFFCURVE",
"181 3 CURVE SMOOTH",
"181 41 OFFCURVE",
"211 71 OFFCURVE",
"243 99 CURVE SMOOTH",
"287 137 OFFCURVE",
"333 182 OFFCURVE",
"333 265 CURVE SMOOTH",
"333 318 LINE",
"205 318 LINE",
"205 286 LINE SMOOTH",
"205 232 OFFCURVE",
"189 208 OFFCURVE",
"146 172 CURVE SMOOTH",
"88 125 OFFCURVE",
"45 77 OFFCURVE",
"45 -7 CURVE SMOOTH",
"45 -122 OFFCURVE",
"136 -192 OFFCURVE",
"251 -192 CURVE SMOOTH",
"327 -192 OFFCURVE",
"395 -163 OFFCURVE",
"437 -110 CURVE",
"437 18 LINE",
"392 -36 OFFCURVE",
"334 -73 OFFCURVE",
"274 -73 CURVE SMOOTH"
);
}
);
width = 481;
}
);
unicode = 00BF;
},
{
glyphname = Agrave;
layers = (
{
hints = (
{
horizontal = 1;
place = "{0, 21}";
target = up;
type = BottomGhost;
},
{
horizontal = 1;
place = "{161, 113}";
type = Stem;
},
{
horizontal = 1;
place = "{705, -20}";
target = down;
type = TopGhost;
},
{
place = "{-7, 736}";
type = Stem;
}
);
layerId = "05A2C769-842B-415C-86A7-244CC7525BC2";
paths = (
{
closed = 1;
nodes = (
"339 823 LINE",
"438 823 LINE",
"338 990 LINE",
"203 952 LINE"
);
},
{
closed = 1;
nodes = (
"511 161 LINE",
"578 0 LINE",
"729 0 LINE",
"425 705 LINE",
"297 705 LINE",
"-7 0 LINE",
"141 0 LINE",
"209 161 LINE"
);
},
{
closed = 1;
nodes = (
"360 541 LINE",
"467 274 LINE",
"253 274 LINE"
);
}
);
width = 722;
}
);
unicode = 00C0;
},
{
glyphname = Aacute;
layers = (
{
hints = (
{
horizontal = 1;
place = "{0, 21}";
target = up;
type = BottomGhost;
},
{
horizontal = 1;
place = "{161, 113}";
type = Stem;
},
{
horizontal = 1;
place = "{705, -20}";
target = down;
type = TopGhost;
},
{
place = "{-7, 736}";
type = Stem;
}
);
layerId = "05A2C769-842B-415C-86A7-244CC7525BC2";
paths = (
{
closed = 1;
nodes = (
"314 781 LINE",
"411 781 LINE",
"548 910 LINE",
"412 948 LINE"
);
},
{
closed = 1;
nodes = (
"511 161 LINE",
"578 0 LINE",
"729 0 LINE",
"425 705 LINE",
"297 705 LINE",
"-7 0 LINE",
"141 0 LINE",
"209 161 LINE"
);
},
{
closed = 1;
nodes = (
"360 541 LINE",
"467 274 LINE",
"253 274 LINE"
);
}
);
width = 722;
}
);
unicode = 00C1;
},
{
glyphname = Acircumflex;
layers = (
{
hints = (
{
horizontal = 1;
place = "{0, 21}";
target = up;
type = BottomGhost;
},
{
horizontal = 1;
place = "{161, 113}";
type = Stem;
},
{
horizontal = 1;
place = "{705, -20}";
target = down;
type = TopGhost;
},
{
horizontal = 1;
place = "{784, 164}";
type = Stem;
},
{
place = "{-7, 736}";
type = Stem;
}
);
layerId = "05A2C769-842B-415C-86A7-244CC7525BC2";
paths = (
{
closed = 1;
nodes = (
"403 948 LINE",
"317 948 LINE",
"194 784 LINE",
"292 784 LINE",
"360 856 LINE",
"428 784 LINE",
"526 784 LINE"
);
},
{
closed = 1;
nodes = (
"511 161 LINE",
"578 0 LINE",
"729 0 LINE",
"425 705 LINE",
"297 705 LINE",
"-7 0 LINE",
"141 0 LINE",
"209 161 LINE"
);
},
{
closed = 1;
nodes = (
"360 541 LINE",
"467 274 LINE",
"253 274 LINE"
);
}
);
width = 722;
}
);
unicode = 00C2;
},
{
glyphname = Atilde;
layers = (
{
hints = (
{
place = "{-7, 736}";
type = Stem;
},
{
horizontal = 1;
place = "{0, 21}";
target = up;
type = BottomGhost;
},
{
horizontal = 1;
place = "{161, 113}";
type = Stem;
},
{
horizontal = 1;
place = "{705, -20}";
target = down;
type = TopGhost;
},
{
horizontal = 1;
place = "{774, 94}";
type = Stem;
},
{
horizontal = 1;
place = "{810, 94}";
type = Stem;
}
);
layerId = "05A2C769-842B-415C-86A7-244CC7525BC2";
paths = (
{
closed = 1;
nodes = (
"263 764 LINE",
"274 798 OFFCURVE",
"290 810 OFFCURVE",
"309 810 CURVE SMOOTH",
"344 810 OFFCURVE",
"383 774 OFFCURVE",
"428 774 CURVE SMOOTH",
"484 774 OFFCURVE",
"517 824 OFFCURVE",
"538 898 CURVE",
"461 913 LINE",
"451 882 OFFCURVE",
"440 868 OFFCURVE",
"422 868 CURVE SMOOTH",
"391 868 OFFCURVE",
"349 904 OFFCURVE",
"301 904 CURVE SMOOTH",
"243 904 OFFCURVE",
"205 853 OFFCURVE",
"184 778 CURVE"
);
},
{
closed = 1;
nodes = (
"511 161 LINE",
"578 0 LINE",
"729 0 LINE",
"425 705 LINE",
"297 705 LINE",
"-7 0 LINE",
"141 0 LINE",
"209 161 LINE"
);
},
{
closed = 1;
nodes = (
"360 541 LINE",
"467 274 LINE",
"253 274 LINE"
);
}
);
width = 722;
}
);
unicode = 00C3;
},
{
glyphname = Adieresis;
layers = (
{
hints = (
{
horizontal = 1;
place = "{0, 21}";
target = up;
type = BottomGhost;
},
{
horizontal = 1;
place = "{161, 113}";
type = Stem;
},
{
horizontal = 1;
place = "{705, -20}";
target = down;
type = TopGhost;
},
{
horizontal = 1;
place = "{793, 144}";
type = Stem;
},
{
place = "{185, 148}";
type = Stem;
},
{
place = "{394, 146}";
type = Stem;
}
);
layerId = "05A2C769-842B-415C-86A7-244CC7525BC2";
paths = (
{
closed = 1;
nodes = (
"185 821 OFFCURVE",
"217 793 OFFCURVE",
"259 793 CURVE SMOOTH",
"299 793 OFFCURVE",
"333 821 OFFCURVE",
"333 865 CURVE SMOOTH",
"333 909 OFFCURVE",
"299 937 OFFCURVE",
"259 937 CURVE SMOOTH",
"217 937 OFFCURVE",
"185 909 OFFCURVE",
"185 865 CURVE SMOOTH"
);
},
{
closed = 1;
nodes = (
"394 821 OFFCURVE",
"426 793 OFFCURVE",
"467 793 CURVE SMOOTH",
"509 793 OFFCURVE",
"540 821 OFFCURVE",
"540 865 CURVE SMOOTH",
"540 909 OFFCURVE",
"509 937 OFFCURVE",
"467 937 CURVE SMOOTH",
"426 937 OFFCURVE",
"394 909 OFFCURVE",
"394 865 CURVE SMOOTH"
);
},
{
closed = 1;
nodes = (
"511 161 LINE",
"578 0 LINE",
"729 0 LINE",
"425 705 LINE",
"297 705 LINE",
"-7 0 LINE",
"141 0 LINE",
"209 161 LINE"
);
},
{
closed = 1;
nodes = (
"360 541 LINE",
"467 274 LINE",
"253 274 LINE"
);
}
);
width = 722;
}
);
unicode = 00C4;
},
{
glyphname = Aring;
layers = (
{
hints = (
{
horizontal = 1;
place = "{0, 21}";
target = up;
type = BottomGhost;
},
{
horizontal = 1;
place = "{161, 113}";
type = Stem;
},
{
horizontal = 1;
place = "{825, 70}";
type = Stem;
},
{
place = "{248, 72}";
type = Stem;
},
{
place = "{401, 72}";
type = Stem;
}
);
layerId = "05A2C769-842B-415C-86A7-244CC7525BC2";
paths = (
{
closed = 1;
nodes = (
"511 161 LINE",
"578 0 LINE",
"729 0 LINE",
"429 697 LINE",
"455 716 OFFCURVE",
"473 747 OFFCURVE",
"473 784 CURVE SMOOTH",
"473 845 OFFCURVE",
"422 895 OFFCURVE",
"359 895 CURVE SMOOTH",
"300 895 OFFCURVE",
"248 846 OFFCURVE",
"248 784 CURVE SMOOTH",
"248 747 OFFCURVE",
"266 716 OFFCURVE",
"293 696 CURVE",
"-7 0 LINE",
"141 0 LINE",
"209 161 LINE"
);
},
{
closed = 1;
nodes = (
"401 761 OFFCURVE",
"385 745 OFFCURVE",
"360 745 CURVE SMOOTH",
"338 745 OFFCURVE",
"320 760 OFFCURVE",
"320 785 CURVE SMOOTH",
"320 807 OFFCURVE",
"337 825 OFFCURVE",
"360 825 CURVE SMOOTH",
"384 825 OFFCURVE",
"401 806 OFFCURVE",
"401 784 CURVE SMOOTH"
);
},
{
closed = 1;
nodes = (
"360 541 LINE",
"467 274 LINE",
"253 274 LINE"
);
}
);
width = 722;
}
);
unicode = 00C5;
},
{
glyphname = AE;
layers = (
{
hints = (
{
horizontal = 1;
place = "{0, 121}";
type = Stem;
},
{
horizontal = 1;
place = "{161, 113}";
type = Stem;
},
{
horizontal = 1;
place = "{299, 114}";
type = Stem;
},
{
horizontal = 1;
place = "{582, 121}";
type = Stem;
},
{
place = "{450, 139}";
type = Stem;
}
);
layerId = "05A2C769-842B-415C-86A7-244CC7525BC2";
paths = (
{
closed = 1;
nodes = (
"-7 0 LINE",
"141 0 LINE",
"231 161 LINE",
"450 161 LINE",
"450 0 LINE",
"971 0 LINE",
"971 121 LINE",
"589 121 LINE",
"589 299 LINE",
"931 299 LINE",
"931 413 LINE",
"589 413 LINE",
"589 582 LINE",
"963 582 LINE",
"963 703 LINE",
"360 703 LINE"
);
},
{
closed = 1;
nodes = (
"282 274 LINE",
"450 592 LINE",
"450 274 LINE"
);
}
);
width = 967;
}
);
unicode = 00C6;
},
{
glyphname = Ccedilla;
layers = (
{
hints = (
{
place = "{37, 144}";
type = Stem;
},
{
place = "{409, 80}";
type = Stem;
},
{
horizontal = 1;
place = "{-234, 59}";
type = Stem;
},
{
horizontal = 1;
place = "{-110, 41}";
type = Stem;
},
{
horizontal = 1;
place = "{-12, 125}";
type = Stem;
},
{
horizontal = 1;
place = "{-12, 21}";
target = up;
type = BottomGhost;
},
{
horizontal = 1;
place = "{590, 127}";
type = Stem;
}
);
layerId = "05A2C769-842B-415C-86A7-244CC7525BC2";
paths = (
{
closed = 1;
nodes = (
"628 212 LINE",
"564 154 OFFCURVE",
"498 113 OFFCURVE",
"410 113 CURVE SMOOTH",
"271 113 OFFCURVE",
"181 219 OFFCURVE",
"181 352 CURVE SMOOTH",
"181 483 OFFCURVE",
"271 590 OFFCURVE",
"410 590 CURVE SMOOTH",
"504 590 OFFCURVE",
"570 553 OFFCURVE",
"618 501 CURVE",
"618 648 LINE",
"562 689 OFFCURVE",
"495 717 OFFCURVE",
"404 717 CURVE SMOOTH",
"193 717 OFFCURVE",
"37 556 OFFCURVE",
"37 351 CURVE SMOOTH",
"37 155 OFFCURVE",
"178 4 OFFCURVE",
"364 -12 CURVE",
"307 -99 LINE",
"331 -119 LINE",
"345 -113 OFFCURVE",
"356 -110 OFFCURVE",
"369 -110 CURVE SMOOTH",
"393 -110 OFFCURVE",
"409 -120 OFFCURVE",
"409 -138 CURVE SMOOTH",
"409 -166 OFFCURVE",
"371 -175 OFFCURVE",
"350 -175 CURVE SMOOTH",
"333 -175 OFFCURVE",
"312 -172 OFFCURVE",
"289 -162 CURVE",
"271 -211 LINE",
"301 -225 OFFCURVE",
"333 -234 OFFCURVE",
"366 -234 CURVE SMOOTH",
"419 -234 OFFCURVE",
"489 -211 OFFCURVE",
"489 -143 CURVE SMOOTH",
"489 -89 OFFCURVE",
"441 -69 OFFCURVE",
"403 -69 CURVE SMOOTH",
"398 -69 LINE",
"431 -13 LINE",
"509 -6 OFFCURVE",
"571 22 OFFCURVE",
"628 66 CURVE"
);
}
);
width = 673;
}
);
unicode = 00C7;
},
{
glyphname = Egrave;
layers = (
{
hints = (
{
horizontal = 1;
place = "{0, 121}";
type = Stem;
},
{
horizontal = 1;
place = "{299, 114}";
type = Stem;
},
{
horizontal = 1;
place = "{582, 121}";
type = Stem;
},
{
place = "{69, 139}";
type = Stem;
}
);
layerId = "05A2C769-842B-415C-86A7-244CC7525BC2";
paths = (
{
closed = 1;
nodes = (
"302 823 LINE",
"401 823 LINE",
"301 990 LINE",
"166 952 LINE"
);
},
{
closed = 1;
nodes = (
"208 299 LINE",
"548 299 LINE",
"548 413 LINE",
"208 413 LINE",
"208 582 LINE",
"580 582 LINE",
"580 703 LINE",
"69 703 LINE",
"69 0 LINE",
"588 0 LINE",
"588 121 LINE",
"208 121 LINE"
);
}
);
width = 647;
}
);
unicode = 00C8;
},
{
glyphname = Eacute;
layers = (
{
hints = (
{
horizontal = 1;
place = "{0, 121}";
type = Stem;
},
{
horizontal = 1;
place = "{299, 114}";
type = Stem;
},
{
horizontal = 1;
place = "{582, 121}";
type = Stem;
},
{
place = "{69, 139}";
type = Stem;
}
);
layerId = "05A2C769-842B-415C-86A7-244CC7525BC2";
paths = (
{
closed = 1;
nodes = (
"258 781 LINE",
"355 781 LINE",
"492 910 LINE",
"356 948 LINE"
);
},
{
closed = 1;
nodes = (
"208 299 LINE",
"548 299 LINE",
"548 413 LINE",
"208 413 LINE",
"208 582 LINE",
"580 582 LINE",
"580 703 LINE",
"69 703 LINE",
"69 0 LINE",
"588 0 LINE",
"588 121 LINE",
"208 121 LINE"
);
}
);
width = 647;
}
);
unicode = 00C9;
},
{
glyphname = Ecircumflex;
layers = (
{
hints = (
{
horizontal = 1;
place = "{0, 121}";
type = Stem;
},
{
horizontal = 1;
place = "{299, 114}";
type = Stem;
},
{
horizontal = 1;
place = "{582, 121}";
type = Stem;
},
{
horizontal = 1;
place = "{784, 164}";
type = Stem;
},
{
place = "{69, 139}";
type = Stem;
}
);
layerId = "05A2C769-842B-415C-86A7-244CC7525BC2";
paths = (
{
closed = 1;
nodes = (
"372 948 LINE",
"286 948 LINE",
"163 784 LINE",
"261 784 LINE",
"329 856 LINE",
"397 784 LINE",
"495 784 LINE"
);
},
{
closed = 1;
nodes = (
"208 299 LINE",
"548 299 LINE",
"548 413 LINE",
"208 413 LINE",
"208 582 LINE",
"580 582 LINE",
"580 703 LINE",
"69 703 LINE",
"69 0 LINE",
"588 0 LINE",
"588 121 LINE",
"208 121 LINE"
);
}
);
width = 647;
}
);
unicode = 00CA;
},
{
glyphname = Edieresis;
layers = (
{
hints = (
{
place = "{69, 139}";
type = Stem;
},
{
place = "{148, 148}";
type = Stem;
},
{
place = "{357, 146}";
type = Stem;
},
{
horizontal = 1;
place = "{0, 121}";
type = Stem;
},
{
horizontal = 1;
place = "{299, 114}";
type = Stem;
},
{
horizontal = 1;
place = "{582, 121}";
type = Stem;
},
{
horizontal = 1;
place = "{793, 144}";
type = Stem;
}
);
layerId = "05A2C769-842B-415C-86A7-244CC7525BC2";
paths = (
{
closed = 1;
nodes = (
"148 821 OFFCURVE",
"180 793 OFFCURVE",
"222 793 CURVE SMOOTH",
"262 793 OFFCURVE",
"296 821 OFFCURVE",
"296 865 CURVE SMOOTH",
"296 909 OFFCURVE",
"262 937 OFFCURVE",
"222 937 CURVE SMOOTH",
"180 937 OFFCURVE",
"148 909 OFFCURVE",
"148 865 CURVE SMOOTH"
);
},
{
closed = 1;
nodes = (
"357 821 OFFCURVE",
"389 793 OFFCURVE",
"430 793 CURVE SMOOTH",
"472 793 OFFCURVE",
"503 821 OFFCURVE",
"503 865 CURVE SMOOTH",
"503 909 OFFCURVE",
"472 937 OFFCURVE",
"430 937 CURVE SMOOTH",
"389 937 OFFCURVE",
"357 909 OFFCURVE",
"357 865 CURVE SMOOTH"
);
},
{
closed = 1;
nodes = (
"208 299 LINE",
"548 299 LINE",
"548 413 LINE",
"208 413 LINE",
"208 582 LINE",
"580 582 LINE",
"580 703 LINE",
"69 703 LINE",
"69 0 LINE",
"588 0 LINE",
"588 121 LINE",
"208 121 LINE"
);
}
);
width = 647;
}
);
unicode = 00CB;
},
{
glyphname = Eth;
layers = (
{
hints = (
{
horizontal = 1;
place = "{0, 124}";
type = Stem;
},
{
horizontal = 1;
place = "{284, 122}";
type = Stem;
},
{
horizontal = 1;
place = "{578, 125}";
type = Stem;
},
{
place = "{97, 140}";
type = Stem;
},
{
place = "{584, 144}";
type = Stem;
}
);
layerId = "05A2C769-842B-415C-86A7-244CC7525BC2";
paths = (
{
closed = 1;
nodes = (
"97 0 LINE",
"340 0 LINE SMOOTH",
"580 0 OFFCURVE",
"728 149 OFFCURVE",
"728 354 CURVE SMOOTH",
"728 562 OFFCURVE",
"575 703 OFFCURVE",
"343 703 CURVE SMOOTH",
"97 703 LINE",
"97 406 LINE",
"12 406 LINE",
"12 284 LINE",
"97 284 LINE"
);
},
{
closed = 1;
nodes = (
"237 578 LINE",
"366 578 LINE SMOOTH",
"502 578 OFFCURVE",
"584 473 OFFCURVE",
"584 351 CURVE SMOOTH",
"584 215 OFFCURVE",
"494 124 OFFCURVE",
"342 124 CURVE SMOOTH",
"237 124 LINE",
"237 284 LINE",
"312 284 LINE",
"312 406 LINE",
"237 406 LINE"
);
}
);
width = 773;
}
);
unicode = 00D0;
},
{
glyphname = Ntilde;
layers = (
{
hints = (
{
place = "{69, 137}";
type = Stem;
},
{
place = "{555, 137}";
type = Stem;
},
{
horizontal = 1;
place = "{0, 21}";
target = up;
type = BottomGhost;
},
{
horizontal = 1;
place = "{703, -20}";
target = down;
type = TopGhost;
},
{
horizontal = 1;
place = "{774, 94}";
type = Stem;
},
{
horizontal = 1;
place = "{810, 94}";
type = Stem;
}
);
layerId = "05A2C769-842B-415C-86A7-244CC7525BC2";
paths = (
{
closed = 1;
nodes = (
"290 764 LINE",
"301 798 OFFCURVE",
"317 810 OFFCURVE",
"336 810 CURVE SMOOTH",
"371 810 OFFCURVE",
"410 774 OFFCURVE",
"455 774 CURVE SMOOTH",
"511 774 OFFCURVE",
"544 824 OFFCURVE",
"565 898 CURVE",
"488 913 LINE",
"478 882 OFFCURVE",
"467 868 OFFCURVE",
"449 868 CURVE SMOOTH",
"418 868 OFFCURVE",
"376 904 OFFCURVE",
"328 904 CURVE SMOOTH",
"270 904 OFFCURVE",
"232 853 OFFCURVE",
"211 778 CURVE"
);
},
{
closed = 1;
nodes = (
"202 700 LINE",
"69 700 LINE",
"69 0 LINE",
"206 0 LINE",
"206 481 LINE",
"565 0 LINE",
"692 0 LINE",
"692 703 LINE",
"555 703 LINE",
"555 228 LINE"
);
}
);
width = 762;
}
);
unicode = 00D1;
},
{
glyphname = Ograve;
layers = (
{
hints = (
{
horizontal = 1;
place = "{-14, 126}";
type = Stem;
},
{
horizontal = 1;
place = "{591, 126}";
type = Stem;
},
{
place = "{44, 143}";
type = Stem;
},
{
place = "{644, 143}";
type = Stem;
}
);
layerId = "05A2C769-842B-415C-86A7-244CC7525BC2";
paths = (
{
closed = 1;
nodes = (
"363 823 LINE",
"462 823 LINE",
"362 990 LINE",
"227 952 LINE"
);
},
{
closed = 1;
nodes = (
"787 553 OFFCURVE",
"630 717 OFFCURVE",
"417 717 CURVE SMOOTH",
"202 717 OFFCURVE",
"44 553 OFFCURVE",
"44 351 CURVE SMOOTH",
"44 149 OFFCURVE",
"201 -14 OFFCURVE",
"415 -14 CURVE SMOOTH",
"628 -14 OFFCURVE",
"787 151 OFFCURVE",
"787 353 CURVE SMOOTH"
);
},
{
closed = 1;
nodes = (
"644 221 OFFCURVE",
"550 112 OFFCURVE",
"416 112 CURVE SMOOTH",
"281 112 OFFCURVE",
"187 221 OFFCURVE",
"187 353 CURVE SMOOTH",
"187 484 OFFCURVE",
"280 591 OFFCURVE",
"416 591 CURVE SMOOTH",
"550 591 OFFCURVE",
"644 481 OFFCURVE",
"644 350 CURVE SMOOTH"
);
}
);
width = 831;
}
);
unicode = 00D2;
},
{
glyphname = Oacute;
layers = (
{
hints = (
{
horizontal = 1;
place = "{-14, 126}";
type = Stem;
},
{
horizontal = 1;
place = "{591, 126}";
type = Stem;
},
{
place = "{44, 143}";
type = Stem;
},
{
place = "{644, 143}";
type = Stem;
}
);
layerId = "05A2C769-842B-415C-86A7-244CC7525BC2";
paths = (
{
closed = 1;
nodes = (
"373 781 LINE",
"470 781 LINE",
"607 910 LINE",
"471 948 LINE"
);
},
{
closed = 1;
nodes = (
"787 553 OFFCURVE",
"630 717 OFFCURVE",
"417 717 CURVE SMOOTH",
"202 717 OFFCURVE",
"44 553 OFFCURVE",
"44 351 CURVE SMOOTH",
"44 149 OFFCURVE",
"201 -14 OFFCURVE",
"415 -14 CURVE SMOOTH",
"628 -14 OFFCURVE",
"787 151 OFFCURVE",
"787 353 CURVE SMOOTH"
);
},
{
closed = 1;
nodes = (
"644 221 OFFCURVE",
"550 112 OFFCURVE",
"416 112 CURVE SMOOTH",
"281 112 OFFCURVE",
"187 221 OFFCURVE",
"187 353 CURVE SMOOTH",
"187 484 OFFCURVE",
"280 591 OFFCURVE",
"416 591 CURVE SMOOTH",
"550 591 OFFCURVE",
"644 481 OFFCURVE",
"644 350 CURVE SMOOTH"
);
}
);
width = 831;
}
);
unicode = 00D3;
},
{
glyphname = Ocircumflex;
layers = (
{
hints = (
{
horizontal = 1;
place = "{-14, 126}";
type = Stem;
},
{
horizontal = 1;
place = "{591, 126}";
type = Stem;
},
{
horizontal = 1;
place = "{784, 164}";
type = Stem;
},
{
place = "{44, 143}";
type = Stem;
},
{
place = "{644, 143}";
type = Stem;
}
);
layerId = "05A2C769-842B-415C-86A7-244CC7525BC2";
paths = (
{
closed = 1;
nodes = (
"458 948 LINE",
"372 948 LINE",
"249 784 LINE",
"347 784 LINE",
"415 856 LINE",
"483 784 LINE",
"581 784 LINE"
);
},
{
closed = 1;
nodes = (
"787 553 OFFCURVE",
"630 717 OFFCURVE",
"417 717 CURVE SMOOTH",
"202 717 OFFCURVE",
"44 553 OFFCURVE",
"44 351 CURVE SMOOTH",
"44 149 OFFCURVE",
"201 -14 OFFCURVE",
"415 -14 CURVE SMOOTH",
"628 -14 OFFCURVE",
"787 151 OFFCURVE",
"787 353 CURVE SMOOTH"
);
},
{
closed = 1;
nodes = (
"644 221 OFFCURVE",
"550 112 OFFCURVE",
"416 112 CURVE SMOOTH",
"281 112 OFFCURVE",
"187 221 OFFCURVE",
"187 353 CURVE SMOOTH",
"187 484 OFFCURVE",
"280 591 OFFCURVE",
"416 591 CURVE SMOOTH",
"550 591 OFFCURVE",
"644 481 OFFCURVE",
"644 350 CURVE SMOOTH"
);
}
);
width = 831;
}
);
unicode = 00D4;
},
{
glyphname = Otilde;
layers = (
{
hints = (
{
place = "{44, 143}";
type = Stem;
},
{
place = "{644, 143}";
type = Stem;
},
{
horizontal = 1;
place = "{-14, 126}";
type = Stem;
},
{
horizontal = 1;
place = "{591, 126}";
type = Stem;
},
{
horizontal = 1;
place = "{774, 94}";
type = Stem;
},
{
horizontal = 1;
place = "{810, 94}";
type = Stem;
}
);
layerId = "05A2C769-842B-415C-86A7-244CC7525BC2";
paths = (
{
closed = 1;
nodes = (
"317 764 LINE",
"328 798 OFFCURVE",
"344 810 OFFCURVE",
"363 810 CURVE SMOOTH",
"398 810 OFFCURVE",
"437 774 OFFCURVE",
"482 774 CURVE SMOOTH",
"538 774 OFFCURVE",
"571 824 OFFCURVE",
"592 898 CURVE",
"515 913 LINE",
"505 882 OFFCURVE",
"494 868 OFFCURVE",
"476 868 CURVE SMOOTH",
"445 868 OFFCURVE",
"403 904 OFFCURVE",
"355 904 CURVE SMOOTH",
"297 904 OFFCURVE",
"259 853 OFFCURVE",
"238 778 CURVE"
);
},
{
closed = 1;
nodes = (
"787 553 OFFCURVE",
"630 717 OFFCURVE",
"417 717 CURVE SMOOTH",
"202 717 OFFCURVE",
"44 553 OFFCURVE",
"44 351 CURVE SMOOTH",
"44 149 OFFCURVE",
"201 -14 OFFCURVE",
"415 -14 CURVE SMOOTH",
"628 -14 OFFCURVE",
"787 151 OFFCURVE",
"787 353 CURVE SMOOTH"
);
},
{
closed = 1;
nodes = (
"644 221 OFFCURVE",
"550 112 OFFCURVE",
"416 112 CURVE SMOOTH",
"281 112 OFFCURVE",
"187 221 OFFCURVE",
"187 353 CURVE SMOOTH",
"187 484 OFFCURVE",
"280 591 OFFCURVE",
"416 591 CURVE SMOOTH",
"550 591 OFFCURVE",
"644 481 OFFCURVE",
"644 350 CURVE SMOOTH"
);
}
);
width = 831;
}
);
unicode = 00D5;
},
{
glyphname = Odieresis;
layers = (
{
hints = (
{
horizontal = 1;
place = "{-14, 126}";
type = Stem;
},
{
horizontal = 1;
place = "{591, 126}";
type = Stem;
},
{
horizontal = 1;
place = "{793, 144}";
type = Stem;
},
{
place = "{44, 143}";
type = Stem;
},
{
place = "{240, 148}";
type = Stem;
},
{
place = "{449, 146}";
type = Stem;
},
{
place = "{644, 143}";
type = Stem;
}
);
layerId = "05A2C769-842B-415C-86A7-244CC7525BC2";
paths = (
{
closed = 1;
nodes = (
"240 821 OFFCURVE",
"272 793 OFFCURVE",
"314 793 CURVE SMOOTH",
"354 793 OFFCURVE",
"388 821 OFFCURVE",
"388 865 CURVE SMOOTH",
"388 909 OFFCURVE",
"354 937 OFFCURVE",
"314 937 CURVE SMOOTH",
"272 937 OFFCURVE",
"240 909 OFFCURVE",
"240 865 CURVE SMOOTH"
);
},
{
closed = 1;
nodes = (
"449 821 OFFCURVE",
"481 793 OFFCURVE",
"522 793 CURVE SMOOTH",
"564 793 OFFCURVE",
"595 821 OFFCURVE",
"595 865 CURVE SMOOTH",
"595 909 OFFCURVE",
"564 937 OFFCURVE",
"522 937 CURVE SMOOTH",
"481 937 OFFCURVE",
"449 909 OFFCURVE",
"449 865 CURVE SMOOTH"
);
},
{
closed = 1;
nodes = (
"787 553 OFFCURVE",
"630 717 OFFCURVE",
"417 717 CURVE SMOOTH",
"202 717 OFFCURVE",
"44 553 OFFCURVE",
"44 351 CURVE SMOOTH",
"44 149 OFFCURVE",
"201 -14 OFFCURVE",
"415 -14 CURVE SMOOTH",
"628 -14 OFFCURVE",
"787 151 OFFCURVE",
"787 353 CURVE SMOOTH"
);
},
{
closed = 1;
nodes = (
"644 221 OFFCURVE",
"550 112 OFFCURVE",
"416 112 CURVE SMOOTH",
"281 112 OFFCURVE",
"187 221 OFFCURVE",
"187 353 CURVE SMOOTH",
"187 484 OFFCURVE",
"280 591 OFFCURVE",
"416 591 CURVE SMOOTH",
"550 591 OFFCURVE",
"644 481 OFFCURVE",
"644 350 CURVE SMOOTH"
);
}
);
width = 831;
}
);
unicode = 00D6;
},
{
glyphname = multiply;
layers = (
{
hints = (
{
horizontal = 1;
place = "{519, -20}";
target = down;
type = TopGhost;
},
{
place = "{88, 493}";
type = Stem;
}
);
layerId = "05A2C769-842B-415C-86A7-244CC7525BC2";
paths = (
{
closed = 1;
nodes = (
"88 181 LINE",
"166 104 LINE",
"335 273 LINE",
"503 104 LINE",
"581 182 LINE",
"413 351 LINE",
"581 519 LINE",
"503 597 LINE",
"335 427 LINE",
"166 597 LINE",
"89 519 LINE",
"258 351 LINE"
);
}
);
width = 669;
}
);
unicode = 00D7;
},
{
glyphname = Oslash;
layers = (
{
hints = (
{
horizontal = 1;
place = "{-14, 131}";
type = Stem;
},
{
horizontal = 1;
place = "{587, 130}";
type = Stem;
},
{
place = "{42, 143}";
type = Stem;
},
{
place = "{642, 143}";
type = Stem;
}
);
layerId = "05A2C769-842B-415C-86A7-244CC7525BC2";
paths = (
{
closed = 1;
nodes = (
"87 -46 LINE",
"184 -67 LINE",
"251 33 LINE",
"296 4 OFFCURVE",
"350 -14 OFFCURVE",
"413 -14 CURVE SMOOTH",
"626 -14 OFFCURVE",
"785 151 OFFCURVE",
"785 353 CURVE SMOOTH",
"785 460 OFFCURVE",
"740 554 OFFCURVE",
"665 620 CURVE",
"744 739 LINE",
"644 757 LINE",
"581 669 LINE",
"534 699 OFFCURVE",
"478 717 OFFCURVE",
"415 717 CURVE SMOOTH",
"200 717 OFFCURVE",
"42 553 OFFCURVE",
"42 351 CURVE SMOOTH",
"42 241 OFFCURVE",
"89 145 OFFCURVE",
"166 80 CURVE"
);
},
{
closed = 1;
nodes = (
"237 197 LINE",
"206 236 OFFCURVE",
"188 287 OFFCURVE",
"186 343 CURVE",
"185 346 OFFCURVE",
"185 350 OFFCURVE",
"185 353 CURVE SMOOTH",
"185 475 OFFCURVE",
"266 575 OFFCURVE",
"387 587 CURVE",
"416 589 OFFCURVE",
"444 586 OFFCURVE",
"471 578 CURVE SMOOTH",
"486 573 OFFCURVE",
"500 566 OFFCURVE",
"513 558 CURVE"
);
},
{
closed = 1;
nodes = (
"460 330 LINE",
"593 501 LINE",
"624 459 OFFCURVE",
"642 407 OFFCURVE",
"642 350 CURVE SMOOTH",
"642 232 OFFCURVE",
"565 130 OFFCURVE",
"444 117 CURVE SMOOTH",
"421 115 OFFCURVE",
"398 117 OFFCURVE",
"376 122 CURVE SMOOTH",
"365 124 OFFCURVE",
"353 127 OFFCURVE",
"342 131 CURVE",
"334 135 OFFCURVE",
"327 140 OFFCURVE",
"320 145 CURVE"
);
}
);
width = 826;
}
);
unicode = 00D8;
},
{
glyphname = Ugrave;
layers = (
{
hints = (
{
horizontal = 1;
place = "{-14, 127}";
type = Stem;
},
{
horizontal = 1;
place = "{703, -20}";
target = down;
type = TopGhost;
},
{
place = "{62, 140}";
type = Stem;
},
{
place = "{527, 140}";
type = Stem;
}
);
layerId = "05A2C769-842B-415C-86A7-244CC7525BC2";
paths = (
{
closed = 1;
nodes = (
"326 823 LINE",
"425 823 LINE",
"325 990 LINE",
"190 952 LINE"
);
},
{
closed = 1;
nodes = (
"556 -14 OFFCURVE",
"667 93 OFFCURVE",
"667 300 CURVE SMOOTH",
"667 703 LINE",
"527 703 LINE",
"527 296 LINE SMOOTH",
"527 172 OFFCURVE",
"467 113 OFFCURVE",
"365 113 CURVE SMOOTH",
"259 113 OFFCURVE",
"202 180 OFFCURVE",
"202 300 CURVE SMOOTH",
"202 703 LINE",
"62 703 LINE",
"62 296 LINE SMOOTH",
"62 96 OFFCURVE",
"172 -14 OFFCURVE",
"364 -14 CURVE SMOOTH"
);
}
);
width = 730;
}
);
unicode = 00D9;
},
{
glyphname = Uacute;
layers = (
{
hints = (
{
horizontal = 1;
place = "{-14, 127}";
type = Stem;
},
{
horizontal = 1;
place = "{703, -20}";
target = down;
type = TopGhost;
},
{
place = "{62, 140}";
type = Stem;
},
{
place = "{527, 140}";
type = Stem;
}
);
layerId = "05A2C769-842B-415C-86A7-244CC7525BC2";
paths = (
{
closed = 1;
nodes = (
"312 781 LINE",
"409 781 LINE",
"546 910 LINE",
"410 948 LINE"
);
},
{
closed = 1;
nodes = (
"556 -14 OFFCURVE",
"667 93 OFFCURVE",
"667 300 CURVE SMOOTH",
"667 703 LINE",
"527 703 LINE",
"527 296 LINE SMOOTH",
"527 172 OFFCURVE",
"467 113 OFFCURVE",
"365 113 CURVE SMOOTH",
"259 113 OFFCURVE",
"202 180 OFFCURVE",
"202 300 CURVE SMOOTH",
"202 703 LINE",
"62 703 LINE",
"62 296 LINE SMOOTH",
"62 96 OFFCURVE",
"172 -14 OFFCURVE",
"364 -14 CURVE SMOOTH"
);
}
);
width = 730;
}
);
unicode = 00DA;
},
{
glyphname = Ucircumflex;
layers = (
{
hints = (
{
horizontal = 1;
place = "{-14, 127}";
type = Stem;
},
{
horizontal = 1;
place = "{703, -20}";
target = down;
type = TopGhost;
},
{
horizontal = 1;
place = "{784, 164}";
type = Stem;
},
{
place = "{62, 140}";
type = Stem;
},
{
place = "{527, 140}";
type = Stem;
}
);
layerId = "05A2C769-842B-415C-86A7-244CC7525BC2";
paths = (
{
closed = 1;
nodes = (
"410 948 LINE",
"324 948 LINE",
"201 784 LINE",
"299 784 LINE",
"367 856 LINE",
"435 784 LINE",
"533 784 LINE"
);
},
{
closed = 1;
nodes = (
"556 -14 OFFCURVE",
"667 93 OFFCURVE",
"667 300 CURVE SMOOTH",
"667 703 LINE",
"527 703 LINE",
"527 296 LINE SMOOTH",
"527 172 OFFCURVE",
"467 113 OFFCURVE",
"365 113 CURVE SMOOTH",
"259 113 OFFCURVE",
"202 180 OFFCURVE",
"202 300 CURVE SMOOTH",
"202 703 LINE",
"62 703 LINE",
"62 296 LINE SMOOTH",
"62 96 OFFCURVE",
"172 -14 OFFCURVE",
"364 -14 CURVE SMOOTH"
);
}
);
width = 730;
}
);
unicode = 00DB;
},
{
glyphname = Udieresis;
layers = (
{
hints = (
{
place = "{62, 140}";
type = Stem;
},
{
place = "{185, 148}";
type = Stem;
},
{
place = "{394, 146}";
type = Stem;
},
{
place = "{527, 140}";
type = Stem;
},
{
horizontal = 1;
place = "{-14, 127}";
type = Stem;
},
{
horizontal = 1;
place = "{703, -20}";
target = down;
type = TopGhost;
},
{
horizontal = 1;
place = "{793, 144}";
type = Stem;
}
);
layerId = "05A2C769-842B-415C-86A7-244CC7525BC2";
paths = (
{
closed = 1;
nodes = (
"185 821 OFFCURVE",
"217 793 OFFCURVE",
"259 793 CURVE SMOOTH",
"299 793 OFFCURVE",
"333 821 OFFCURVE",
"333 865 CURVE SMOOTH",
"333 909 OFFCURVE",
"299 937 OFFCURVE",
"259 937 CURVE SMOOTH",
"217 937 OFFCURVE",
"185 909 OFFCURVE",
"185 865 CURVE SMOOTH"
);
},
{
closed = 1;
nodes = (
"394 821 OFFCURVE",
"426 793 OFFCURVE",
"467 793 CURVE SMOOTH",
"509 793 OFFCURVE",
"540 821 OFFCURVE",
"540 865 CURVE SMOOTH",
"540 909 OFFCURVE",
"509 937 OFFCURVE",
"467 937 CURVE SMOOTH",
"426 937 OFFCURVE",
"394 909 OFFCURVE",
"394 865 CURVE SMOOTH"
);
},
{
closed = 1;
nodes = (
"556 -14 OFFCURVE",
"667 93 OFFCURVE",
"667 300 CURVE SMOOTH",
"667 703 LINE",
"527 703 LINE",
"527 296 LINE SMOOTH",
"527 172 OFFCURVE",
"467 113 OFFCURVE",
"365 113 CURVE SMOOTH",
"259 113 OFFCURVE",
"202 180 OFFCURVE",
"202 300 CURVE SMOOTH",
"202 703 LINE",
"62 703 LINE",
"62 296 LINE SMOOTH",
"62 96 OFFCURVE",
"172 -14 OFFCURVE",
"364 -14 CURVE SMOOTH"
);
}
);
width = 730;
}
);
unicode = 00DC;
},
{
glyphname = Yacute;
layers = (
{
hints = (
{
horizontal = 1;
place = "{0, 21}";
target = up;
type = BottomGhost;
},
{
horizontal = 1;
place = "{703, -20}";
target = down;
type = TopGhost;
},
{
place = "{264, 140}";
type = Stem;
}
);
layerId = "05A2C769-842B-415C-86A7-244CC7525BC2";
paths = (
{
closed = 1;
nodes = (
"275 781 LINE",
"372 781 LINE",
"509 910 LINE",
"373 948 LINE"
);
},
{
closed = 1;
nodes = (
"404 273 LINE",
"672 703 LINE",
"516 703 LINE",
"336 402 LINE",
"156 703 LINE",
"-5 703 LINE",
"264 271 LINE",
"264 0 LINE",
"404 0 LINE"
);
}
);
width = 667;
}
);
unicode = 00DD;
},
{
glyphname = Thorn;
layers = (
{
hints = (
{
horizontal = 1;
place = "{0, 21}";
target = up;
type = BottomGhost;
},
{
horizontal = 1;
place = "{157, 109}";
type = Stem;
},
{
horizontal = 1;
place = "{476, 113}";
type = Stem;
},
{
horizontal = 1;
place = "{706, -20}";
target = down;
type = TopGhost;
},
{
place = "{69, 136}";
type = Stem;
},
{
place = "{380, 136}";
type = Stem;
}
);
layerId = "05A2C769-842B-415C-86A7-244CC7525BC2";
paths = (
{
closed = 1;
nodes = (
"69 0 LINE",
"205 0 LINE",
"205 157 LINE",
"283 157 LINE SMOOTH",
"419 157 OFFCURVE",
"516 225 OFFCURVE",
"516 370 CURVE SMOOTH",
"516 532 OFFCURVE",
"400 589 OFFCURVE",
"255 589 CURVE SMOOTH",
"205 589 LINE",
"205 706 LINE",
"69 706 LINE"
);
},
{
closed = 1;
nodes = (
"205 266 LINE",
"205 476 LINE",
"232 476 LINE SMOOTH",
"308 476 OFFCURVE",
"380 468 OFFCURVE",
"380 373 CURVE SMOOTH",
"380 285 OFFCURVE",
"319 266 OFFCURVE",
"244 266 CURVE SMOOTH"
);
}
);
width = 542;
}
);
unicode = 00DE;
},
{
glyphname = germandbls;
layers = (
{
hints = (
{
place = "{10, 134}";
type = Stem;
},
{
place = "{350, 133}";
type = Stem;
},
{
place = "{388, 136}";
type = Stem;
},
{
horizontal = 1;
place = "{-3, 101}";
type = Stem;
},
{
horizontal = 1;
place = "{0, 98}";
type = Stem;
},
{
horizontal = 1;
place = "{630, 116}";
type = Stem;
}
);
layerId = "05A2C769-842B-415C-86A7-244CC7525BC2";
paths = (
{
closed = 1;
nodes = (
"144 501 LINE SMOOTH",
"144 573 OFFCURVE",
"182 630 OFFCURVE",
"254 630 CURVE SMOOTH",
"310 630 OFFCURVE",
"350 595 OFFCURVE",
"350 535 CURVE SMOOTH",
"350 469 OFFCURVE",
"299 435 OFFCURVE",
"237 410 CURVE",
"237 329 LINE",
"329 318 OFFCURVE",
"388 286 OFFCURVE",
"388 212 CURVE SMOOTH",
"388 136 OFFCURVE",
"324 99 OFFCURVE",
"232 98 CURVE",
"232 -3 LINE",
"377 -10 OFFCURVE",
"524 53 OFFCURVE",
"524 202 CURVE SMOOTH",
"524 302 OFFCURVE",
"450 363 OFFCURVE",
"369 382 CURVE",
"434 412 OFFCURVE",
"483 467 OFFCURVE",
"483 551 CURVE SMOOTH",
"483 663 OFFCURVE",
"393 746 OFFCURVE",
"257 746 CURVE SMOOTH",
"91 746 OFFCURVE",
"10 640 OFFCURVE",
"10 500 CURVE SMOOTH",
"10 0 LINE",
"144 0 LINE"
);
}
);
width = 556;
}
);
unicode = 00DF;
},
{
glyphname = agrave;
layers = (
{
hints = (
{
place = "{32, 134}";
type = Stem;
},
{
place = "{386, 133}";
type = Stem;
},
{
horizontal = 1;
place = "{-12, 94}";
type = Stem;
},
{
horizontal = 1;
place = "{-6, 21}";
target = up;
type = BottomGhost;
},
{
horizontal = 1;
place = "{251, 79}";
type = Stem;
},
{
horizontal = 1;
place = "{413, 108}";
type = Stem;
}
);
layerId = "05A2C769-842B-415C-86A7-244CC7525BC2";
paths = (
{
closed = 1;
nodes = (
"271 616 LINE",
"370 616 LINE",
"270 783 LINE",
"135 745 LINE"
);
},
{
closed = 1;
nodes = (
"519 -6 LINE",
"519 310 LINE SMOOTH",
"519 449 OFFCURVE",
"426 521 OFFCURVE",
"274 521 CURVE SMOOTH",
"192 521 OFFCURVE",
"126 501 OFFCURVE",
"72 479 CURVE",
"72 373 LINE",
"131 402 OFFCURVE",
"189 413 OFFCURVE",
"247 413 CURVE SMOOTH",
"334 413 OFFCURVE",
"386 386 OFFCURVE",
"386 317 CURVE SMOOTH",
"386 303 LINE",
"349 321 OFFCURVE",
"298 330 OFFCURVE",
"244 330 CURVE SMOOTH",
"131 330 OFFCURVE",
"32 283 OFFCURVE",
"32 164 CURVE SMOOTH",
"32 52 OFFCURVE",
"125 -12 OFFCURVE",
"225 -12 CURVE SMOOTH",
"294 -12 OFFCURVE",
"343 12 OFFCURVE",
"384 53 CURVE"
);
},
{
closed = 1;
nodes = (
"386 131 LINE",
"356 99 OFFCURVE",
"318 82 OFFCURVE",
"270 82 CURVE SMOOTH",
"214 82 OFFCURVE",
"166 112 OFFCURVE",
"166 166 CURVE SMOOTH",
"166 222 OFFCURVE",
"220 251 OFFCURVE",
"280 251 CURVE SMOOTH",
"326 251 OFFCURVE",
"361 238 OFFCURVE",
"386 225 CURVE"
);
}
);
width = 580;
}
);
unicode = 00E0;
},
{
glyphname = aacute;
layers = (
{
hints = (
{
place = "{32, 134}";
type = Stem;
},
{
place = "{386, 133}";
type = Stem;
},
{
horizontal = 1;
place = "{-12, 94}";
type = Stem;
},
{
horizontal = 1;
place = "{-6, 21}";
target = up;
type = BottomGhost;
},
{
horizontal = 1;
place = "{251, 79}";
type = Stem;
},
{
horizontal = 1;
place = "{413, 108}";
type = Stem;
}
);
layerId = "05A2C769-842B-415C-86A7-244CC7525BC2";
paths = (
{
closed = 1;
nodes = (
"234 616 LINE",
"331 616 LINE",
"468 745 LINE",
"332 783 LINE"
);
},
{
closed = 1;
nodes = (
"519 -6 LINE",
"519 310 LINE SMOOTH",
"519 449 OFFCURVE",
"426 521 OFFCURVE",
"274 521 CURVE SMOOTH",
"192 521 OFFCURVE",
"126 501 OFFCURVE",
"72 479 CURVE",
"72 373 LINE",
"131 402 OFFCURVE",
"189 413 OFFCURVE",
"247 413 CURVE SMOOTH",
"334 413 OFFCURVE",
"386 386 OFFCURVE",
"386 317 CURVE SMOOTH",
"386 303 LINE",
"349 321 OFFCURVE",
"298 330 OFFCURVE",
"244 330 CURVE SMOOTH",
"131 330 OFFCURVE",
"32 283 OFFCURVE",
"32 164 CURVE SMOOTH",
"32 52 OFFCURVE",
"125 -12 OFFCURVE",
"225 -12 CURVE SMOOTH",
"294 -12 OFFCURVE",
"343 12 OFFCURVE",
"384 53 CURVE"
);
},
{
closed = 1;
nodes = (
"386 131 LINE",
"356 99 OFFCURVE",
"318 82 OFFCURVE",
"270 82 CURVE SMOOTH",
"214 82 OFFCURVE",
"166 112 OFFCURVE",
"166 166 CURVE SMOOTH",
"166 222 OFFCURVE",
"220 251 OFFCURVE",
"280 251 CURVE SMOOTH",
"326 251 OFFCURVE",
"361 238 OFFCURVE",
"386 225 CURVE"
);
}
);
width = 580;
}
);
unicode = 00E1;
},
{
glyphname = acircumflex;
layers = (
{
hints = (
{
place = "{32, 134}";
type = Stem;
},
{
place = "{386, 133}";
type = Stem;
},
{
horizontal = 1;
place = "{-12, 94}";
type = Stem;
},
{
horizontal = 1;
place = "{-6, 21}";
target = up;
type = BottomGhost;
},
{
horizontal = 1;
place = "{251, 79}";
type = Stem;
},
{
horizontal = 1;
place = "{413, 108}";
type = Stem;
},
{
horizontal = 1;
place = "{619, 164}";
type = Stem;
}
);
layerId = "05A2C769-842B-415C-86A7-244CC7525BC2";
paths = (
{
closed = 1;
nodes = (
"324 783 LINE",
"238 783 LINE",
"115 619 LINE",
"213 619 LINE",
"281 691 LINE",
"349 619 LINE",
"447 619 LINE"
);
},
{
closed = 1;
nodes = (
"519 -6 LINE",
"519 310 LINE SMOOTH",
"519 449 OFFCURVE",
"426 521 OFFCURVE",
"274 521 CURVE SMOOTH",
"192 521 OFFCURVE",
"126 501 OFFCURVE",
"72 479 CURVE",
"72 373 LINE",
"131 402 OFFCURVE",
"189 413 OFFCURVE",
"247 413 CURVE SMOOTH",
"334 413 OFFCURVE",
"386 386 OFFCURVE",
"386 317 CURVE SMOOTH",
"386 303 LINE",
"349 321 OFFCURVE",
"298 330 OFFCURVE",
"244 330 CURVE SMOOTH",
"131 330 OFFCURVE",
"32 283 OFFCURVE",
"32 164 CURVE SMOOTH",
"32 52 OFFCURVE",
"125 -12 OFFCURVE",
"225 -12 CURVE SMOOTH",
"294 -12 OFFCURVE",
"343 12 OFFCURVE",
"384 53 CURVE"
);
},
{
closed = 1;
nodes = (
"386 131 LINE",
"356 99 OFFCURVE",
"318 82 OFFCURVE",
"270 82 CURVE SMOOTH",
"214 82 OFFCURVE",
"166 112 OFFCURVE",
"166 166 CURVE SMOOTH",
"166 222 OFFCURVE",
"220 251 OFFCURVE",
"280 251 CURVE SMOOTH",
"326 251 OFFCURVE",
"361 238 OFFCURVE",
"386 225 CURVE"
);
}
);
width = 580;
}
);
unicode = 00E2;
},
{
glyphname = atilde;
layers = (
{
hints = (
{
place = "{32, 134}";
type = Stem;
},
{
place = "{386, 133}";
type = Stem;
},
{
horizontal = 1;
place = "{-12, 94}";
type = Stem;
},
{
horizontal = 1;
place = "{-6, 21}";
target = up;
type = BottomGhost;
},
{
horizontal = 1;
place = "{251, 79}";
type = Stem;
},
{
horizontal = 1;
place = "{413, 108}";
type = Stem;
},
{
horizontal = 1;
place = "{609, 94}";
type = Stem;
},
{
horizontal = 1;
place = "{645, 94}";
type = Stem;
}
);
layerId = "05A2C769-842B-415C-86A7-244CC7525BC2";
paths = (
{
closed = 1;
nodes = (
"195 599 LINE",
"206 633 OFFCURVE",
"222 645 OFFCURVE",
"241 645 CURVE SMOOTH",
"276 645 OFFCURVE",
"315 609 OFFCURVE",
"360 609 CURVE SMOOTH",
"416 609 OFFCURVE",
"449 659 OFFCURVE",
"470 733 CURVE",
"393 748 LINE",
"383 717 OFFCURVE",
"372 703 OFFCURVE",
"354 703 CURVE SMOOTH",
"323 703 OFFCURVE",
"281 739 OFFCURVE",
"233 739 CURVE SMOOTH",
"175 739 OFFCURVE",
"137 688 OFFCURVE",
"116 613 CURVE"
);
},
{
closed = 1;
nodes = (
"519 -6 LINE",
"519 310 LINE SMOOTH",
"519 449 OFFCURVE",
"426 521 OFFCURVE",
"274 521 CURVE SMOOTH",
"192 521 OFFCURVE",
"126 501 OFFCURVE",
"72 479 CURVE",
"72 373 LINE",
"131 402 OFFCURVE",
"189 413 OFFCURVE",
"247 413 CURVE SMOOTH",
"334 413 OFFCURVE",
"386 386 OFFCURVE",
"386 317 CURVE SMOOTH",
"386 303 LINE",
"349 321 OFFCURVE",
"298 330 OFFCURVE",
"244 330 CURVE SMOOTH",
"131 330 OFFCURVE",
"32 283 OFFCURVE",
"32 164 CURVE SMOOTH",
"32 52 OFFCURVE",
"125 -12 OFFCURVE",
"225 -12 CURVE SMOOTH",
"294 -12 OFFCURVE",
"343 12 OFFCURVE",
"384 53 CURVE"
);
},
{
closed = 1;
nodes = (
"386 131 LINE",
"356 99 OFFCURVE",
"318 82 OFFCURVE",
"270 82 CURVE SMOOTH",
"214 82 OFFCURVE",
"166 112 OFFCURVE",
"166 166 CURVE SMOOTH",
"166 222 OFFCURVE",
"220 251 OFFCURVE",
"280 251 CURVE SMOOTH",
"326 251 OFFCURVE",
"361 238 OFFCURVE",
"386 225 CURVE"
);
}
);
width = 580;
}
);
unicode = 00E3;
},
{
glyphname = adieresis;
layers = (
{
hints = (
{
place = "{32, 134}";
type = Stem;
},
{
place = "{110, 148}";
type = Stem;
},
{
place = "{319, 146}";
type = Stem;
},
{
place = "{386, 133}";
type = Stem;
},
{
horizontal = 1;
place = "{-12, 94}";
type = Stem;
},
{
horizontal = 1;
place = "{-6, 21}";
target = up;
type = BottomGhost;
},
{
horizontal = 1;
place = "{251, 79}";
type = Stem;
},
{
horizontal = 1;
place = "{413, 108}";
type = Stem;
},
{
horizontal = 1;
place = "{628, 144}";
type = Stem;
}
);
layerId = "05A2C769-842B-415C-86A7-244CC7525BC2";
paths = (
{
closed = 1;
nodes = (
"110 656 OFFCURVE",
"142 628 OFFCURVE",
"184 628 CURVE SMOOTH",
"224 628 OFFCURVE",
"258 656 OFFCURVE",
"258 700 CURVE SMOOTH",
"258 744 OFFCURVE",
"224 772 OFFCURVE",
"184 772 CURVE SMOOTH",
"142 772 OFFCURVE",
"110 744 OFFCURVE",
"110 700 CURVE SMOOTH"
);
},
{
closed = 1;
nodes = (
"319 656 OFFCURVE",
"351 628 OFFCURVE",
"392 628 CURVE SMOOTH",
"434 628 OFFCURVE",
"465 656 OFFCURVE",
"465 700 CURVE SMOOTH",
"465 744 OFFCURVE",
"434 772 OFFCURVE",
"392 772 CURVE SMOOTH",
"351 772 OFFCURVE",
"319 744 OFFCURVE",
"319 700 CURVE SMOOTH"
);
},
{
closed = 1;
nodes = (
"519 -6 LINE",
"519 310 LINE SMOOTH",
"519 449 OFFCURVE",
"426 521 OFFCURVE",
"274 521 CURVE SMOOTH",
"192 521 OFFCURVE",
"126 501 OFFCURVE",
"72 479 CURVE",
"72 373 LINE",
"131 402 OFFCURVE",
"189 413 OFFCURVE",
"247 413 CURVE SMOOTH",
"334 413 OFFCURVE",
"386 386 OFFCURVE",
"386 317 CURVE SMOOTH",
"386 303 LINE",
"349 321 OFFCURVE",
"298 330 OFFCURVE",
"244 330 CURVE SMOOTH",
"131 330 OFFCURVE",
"32 283 OFFCURVE",
"32 164 CURVE SMOOTH",
"32 52 OFFCURVE",
"125 -12 OFFCURVE",
"225 -12 CURVE SMOOTH",
"294 -12 OFFCURVE",
"343 12 OFFCURVE",
"384 53 CURVE"
);
},
{
closed = 1;
nodes = (
"386 131 LINE",
"356 99 OFFCURVE",
"318 82 OFFCURVE",
"270 82 CURVE SMOOTH",
"214 82 OFFCURVE",
"166 112 OFFCURVE",
"166 166 CURVE SMOOTH",
"166 222 OFFCURVE",
"220 251 OFFCURVE",
"280 251 CURVE SMOOTH",
"326 251 OFFCURVE",
"361 238 OFFCURVE",
"386 225 CURVE"
);
}
);
width = 580;
}
);
unicode = 00E4;
},
{
glyphname = aring;
layers = (
{
hints = (
{
place = "{32, 134}";
type = Stem;
},
{
place = "{167, 72}";
type = Stem;
},
{
place = "{320, 72}";
type = Stem;
},
{
place = "{386, 133}";
type = Stem;
},
{
horizontal = 1;
place = "{-12, 94}";
type = Stem;
},
{
horizontal = 1;
place = "{-6, 21}";
target = up;
type = BottomGhost;
},
{
horizontal = 1;
place = "{251, 79}";
type = Stem;
},
{
horizontal = 1;
place = "{413, 108}";
type = Stem;
},
{
horizontal = 1;
place = "{592, 70}";
type = Stem;
},
{
horizontal = 1;
place = "{742, 70}";
type = Stem;
}
);
layerId = "05A2C769-842B-415C-86A7-244CC7525BC2";
paths = (
{
closed = 1;
nodes = (
"392 762 OFFCURVE",
"341 812 OFFCURVE",
"278 812 CURVE SMOOTH",
"219 812 OFFCURVE",
"167 763 OFFCURVE",
"167 701 CURVE SMOOTH",
"167 639 OFFCURVE",
"219 592 OFFCURVE",
"278 592 CURVE SMOOTH",
"341 592 OFFCURVE",
"392 638 OFFCURVE",
"392 701 CURVE SMOOTH"
);
},
{
closed = 1;
nodes = (
"320 678 OFFCURVE",
"304 662 OFFCURVE",
"279 662 CURVE SMOOTH",
"257 662 OFFCURVE",
"239 677 OFFCURVE",
"239 702 CURVE SMOOTH",
"239 724 OFFCURVE",
"256 742 OFFCURVE",
"279 742 CURVE SMOOTH",
"303 742 OFFCURVE",
"320 723 OFFCURVE",
"320 701 CURVE SMOOTH"
);
},
{
closed = 1;
nodes = (
"519 -6 LINE",
"519 310 LINE SMOOTH",
"519 449 OFFCURVE",
"426 521 OFFCURVE",
"274 521 CURVE SMOOTH",
"192 521 OFFCURVE",
"126 501 OFFCURVE",
"72 479 CURVE",
"72 373 LINE",
"131 402 OFFCURVE",
"189 413 OFFCURVE",
"247 413 CURVE SMOOTH",
"334 413 OFFCURVE",
"386 386 OFFCURVE",
"386 317 CURVE SMOOTH",
"386 303 LINE",
"349 321 OFFCURVE",
"298 330 OFFCURVE",
"244 330 CURVE SMOOTH",
"131 330 OFFCURVE",
"32 283 OFFCURVE",
"32 164 CURVE SMOOTH",
"32 52 OFFCURVE",
"125 -12 OFFCURVE",
"225 -12 CURVE SMOOTH",
"294 -12 OFFCURVE",
"343 12 OFFCURVE",
"384 53 CURVE"
);
},
{
closed = 1;
nodes = (
"386 131 LINE",
"356 99 OFFCURVE",
"318 82 OFFCURVE",
"270 82 CURVE SMOOTH",
"214 82 OFFCURVE",
"166 112 OFFCURVE",
"166 166 CURVE SMOOTH",
"166 222 OFFCURVE",
"220 251 OFFCURVE",
"280 251 CURVE SMOOTH",
"326 251 OFFCURVE",
"361 238 OFFCURVE",
"386 225 CURVE"
);
}
);
width = 580;
}
);
unicode = 00E5;
},
{
glyphname = ae;
layers = (
{
hints = (
{
place = "{30, 133}";
type = Stem;
},
{
place = "{383, 138}";
type = Stem;
},
{
horizontal = 1;
place = "{-14, 104}";
type = Stem;
},
{
horizontal = 1;
place = "{-11, 93}";
type = Stem;
},
{
horizontal = 1;
place = "{251, 79}";
type = Stem;
},
{
horizontal = 1;
place = "{413, 107}";
type = Stem;
},
{
horizontal = 1;
place = "{416, 106}";
type = Stem;
}
);
layerId = "05A2C769-842B-415C-86A7-244CC7525BC2";
paths = (
{
closed = 1;
nodes = (
"599 90 OFFCURVE",
"556 118 OFFCURVE",
"533 162 CURVE",
"898 253 LINE",
"890 396 OFFCURVE",
"804 522 OFFCURVE",
"647 522 CURVE SMOOTH",
"573 522 OFFCURVE",
"512 493 OFFCURVE",
"469 447 CURVE",
"430 493 OFFCURVE",
"366 517 OFFCURVE",
"284 520 CURVE",
"274 521 OFFCURVE",
"265 521 OFFCURVE",
"255 520 CURVE",
"181 519 OFFCURVE",
"119 500 OFFCURVE",
"69 479 CURVE",
"69 373 LINE",
"124 400 OFFCURVE",
"183 413 OFFCURVE",
"244 413 CURVE SMOOTH",
"331 413 OFFCURVE",
"383 386 OFFCURVE",
"383 317 CURVE SMOOTH",
"383 303 LINE",
"346 321 OFFCURVE",
"295 330 OFFCURVE",
"241 330 CURVE SMOOTH",
"133 330 OFFCURVE",
"37 288 OFFCURVE",
"30 179 CURVE",
"30 169 OFFCURVE",
"30 160 OFFCURVE",
"30 150 CURVE",
"37 51 OFFCURVE",
"117 -7 OFFCURVE",
"210 -11 CURVE",
"220 -12 OFFCURVE",
"231 -12 OFFCURVE",
"243 -11 CURVE",
"319 -10 OFFCURVE",
"403 14 OFFCURVE",
"466 64 CURVE",
"509 18 OFFCURVE",
"569 -10 OFFCURVE",
"643 -14 CURVE",
"717 -14 OFFCURVE",
"787 0 OFFCURVE",
"849 43 CURVE",
"849 161 LINE",
"805 120 OFFCURVE",
"731 90 OFFCURVE",
"661 90 CURVE SMOOTH"
);
},
{
closed = 1;
nodes = (
"521 260 LINE",
"518 336 OFFCURVE",
"560 416 OFFCURVE",
"643 416 CURVE SMOOTH",
"705 416 OFFCURVE",
"749 376 OFFCURVE",
"763 318 CURVE"
);
},
{
closed = 1;
nodes = (
"383 131 LINE",
"353 99 OFFCURVE",
"315 82 OFFCURVE",
"267 82 CURVE SMOOTH",
"211 82 OFFCURVE",
"163 112 OFFCURVE",
"163 166 CURVE SMOOTH",
"163 222 OFFCURVE",
"217 251 OFFCURVE",
"277 251 CURVE SMOOTH",
"323 251 OFFCURVE",
"358 238 OFFCURVE",
"383 225 CURVE"
);
}
);
width = 929;
}
);
unicode = 00E6;
},
{
glyphname = ccedilla;
layers = (
{
hints = (
{
horizontal = 1;
place = "{-234, 59}";
type = Stem;
},
{
horizontal = 1;
place = "{-110, 41}";
type = Stem;
},
{
horizontal = 1;
place = "{-7, 21}";
target = up;
type = BottomGhost;
},
{
horizontal = 1;
place = "{408, 114}";
type = Stem;
},
{
place = "{32, 134}";
type = Stem;
},
{
place = "{293, 80}";
type = Stem;
}
);
layerId = "05A2C769-842B-415C-86A7-244CC7525BC2";
paths = (
{
closed = 1;
nodes = (
"426 495 LINE",
"392 514 OFFCURVE",
"344 522 OFFCURVE",
"302 522 CURVE SMOOTH",
"142 522 OFFCURVE",
"32 401 OFFCURVE",
"32 255 CURVE SMOOTH",
"32 122 OFFCURVE",
"124 14 OFFCURVE",
"251 -7 CURVE",
"191 -99 LINE",
"215 -119 LINE",
"229 -113 OFFCURVE",
"240 -110 OFFCURVE",
"253 -110 CURVE SMOOTH",
"277 -110 OFFCURVE",
"293 -120 OFFCURVE",
"293 -138 CURVE SMOOTH",
"293 -166 OFFCURVE",
"255 -175 OFFCURVE",
"234 -175 CURVE SMOOTH",
"217 -175 OFFCURVE",
"196 -172 OFFCURVE",
"173 -162 CURVE",
"155 -211 LINE",
"185 -225 OFFCURVE",
"217 -234 OFFCURVE",
"250 -234 CURVE SMOOTH",
"303 -234 OFFCURVE",
"373 -211 OFFCURVE",
"373 -143 CURVE SMOOTH",
"373 -89 OFFCURVE",
"325 -69 OFFCURVE",
"287 -69 CURVE SMOOTH",
"282 -69 LINE",
"317 -10 LINE",
"360 -7 OFFCURVE",
"400 5 OFFCURVE",
"431 21 CURVE",
"431 154 LINE",
"396 121 OFFCURVE",
"355 104 OFFCURVE",
"312 104 CURVE SMOOTH",
"230 104 OFFCURVE",
"166 174 OFFCURVE",
"166 258 CURVE SMOOTH",
"166 343 OFFCURVE",
"225 408 OFFCURVE",
"309 408 CURVE SMOOTH",
"355 408 OFFCURVE",
"393 389 OFFCURVE",
"426 357 CURVE"
);
}
);
width = 472;
}
);
unicode = 00E7;
},
{
glyphname = egrave;
layers = (
{
hints = (
{
horizontal = 1;
place = "{-14, 104}";
type = Stem;
},
{
horizontal = 1;
place = "{416, 106}";
type = Stem;
},
{
place = "{32, 130}";
type = Stem;
}
);
layerId = "05A2C769-842B-415C-86A7-244CC7525BC2";
paths = (
{
closed = 1;
nodes = (
"240 90 OFFCURVE",
"198 118 OFFCURVE",
"174 162 CURVE",
"539 253 LINE",
"531 396 OFFCURVE",
"446 522 OFFCURVE",
"289 522 CURVE SMOOTH",
"137 522 OFFCURVE",
"32 406 OFFCURVE",
"32 254 CURVE SMOOTH",
"32 98 OFFCURVE",
"143 -14 OFFCURVE",
"298 -14 CURVE SMOOTH",
"363 -14 OFFCURVE",
"436 5 OFFCURVE",
"491 43 CURVE",
"491 161 LINE",
"447 120 OFFCURVE",
"373 90 OFFCURVE",
"302 90 CURVE SMOOTH"
);
},
{
closed = 1;
nodes = (
"162 261 LINE",
"162 336 OFFCURVE",
"200 416 OFFCURVE",
"285 416 CURVE SMOOTH",
"346 416 OFFCURVE",
"390 376 OFFCURVE",
"405 318 CURVE",
"164 256 LINE"
);
}
);
width = 571;
}
);
unicode = 00E8;
},
{
glyphname = eacute;
layers = (
{
hints = (
{
horizontal = 1;
place = "{-14, 104}";
type = Stem;
},
{
horizontal = 1;
place = "{416, 106}";
type = Stem;
},
{
place = "{32, 130}";
type = Stem;
}
);
layerId = "05A2C769-842B-415C-86A7-244CC7525BC2";
paths = (
{
closed = 1;
nodes = (
"240 90 OFFCURVE",
"198 118 OFFCURVE",
"174 162 CURVE",
"539 253 LINE",
"531 396 OFFCURVE",
"446 522 OFFCURVE",
"289 522 CURVE SMOOTH",
"137 522 OFFCURVE",
"32 406 OFFCURVE",
"32 254 CURVE SMOOTH",
"32 98 OFFCURVE",
"143 -14 OFFCURVE",
"298 -14 CURVE SMOOTH",
"363 -14 OFFCURVE",
"436 5 OFFCURVE",
"491 43 CURVE",
"491 161 LINE",
"447 120 OFFCURVE",
"373 90 OFFCURVE",
"302 90 CURVE SMOOTH"
);
},
{
closed = 1;
nodes = (
"162 261 LINE",
"162 336 OFFCURVE",
"200 416 OFFCURVE",
"285 416 CURVE SMOOTH",
"346 416 OFFCURVE",
"390 376 OFFCURVE",
"405 318 CURVE",
"164 256 LINE"
);
}
);
width = 571;
}
);
unicode = 00E9;
},
{
glyphname = ecircumflex;
layers = (
{
hints = (
{
horizontal = 1;
place = "{-14, 104}";
type = Stem;
},
{
horizontal = 1;
place = "{416, 106}";
type = Stem;
},
{
horizontal = 1;
place = "{619, 164}";
type = Stem;
},
{
place = "{32, 130}";
type = Stem;
}
);
layerId = "05A2C769-842B-415C-86A7-244CC7525BC2";
paths = (
{
closed = 1;
nodes = (
"339 783 LINE",
"253 783 LINE",
"130 619 LINE",
"228 619 LINE",
"296 691 LINE",
"364 619 LINE",
"462 619 LINE"
);
},
{
closed = 1;
nodes = (
"240 90 OFFCURVE",
"198 118 OFFCURVE",
"174 162 CURVE",
"539 253 LINE",
"531 396 OFFCURVE",
"446 522 OFFCURVE",
"289 522 CURVE SMOOTH",
"137 522 OFFCURVE",
"32 406 OFFCURVE",
"32 254 CURVE SMOOTH",
"32 98 OFFCURVE",
"143 -14 OFFCURVE",
"298 -14 CURVE SMOOTH",
"363 -14 OFFCURVE",
"436 5 OFFCURVE",
"491 43 CURVE",
"491 161 LINE",
"447 120 OFFCURVE",
"373 90 OFFCURVE",
"302 90 CURVE SMOOTH"
);
},
{
closed = 1;
nodes = (
"162 261 LINE",
"162 336 OFFCURVE",
"200 416 OFFCURVE",
"285 416 CURVE SMOOTH",
"346 416 OFFCURVE",
"390 376 OFFCURVE",
"405 318 CURVE",
"164 256 LINE"
);
}
);
width = 571;
}
);
unicode = 00EA;
},
{
glyphname = edieresis;
layers = (
{
hints = (
{
horizontal = 1;
place = "{-14, 104}";
type = Stem;
},
{
horizontal = 1;
place = "{416, 106}";
type = Stem;
},
{
place = "{32, 130}";
type = Stem;
}
);
layerId = "05A2C769-842B-415C-86A7-244CC7525BC2";
paths = (
{
closed = 1;
nodes = (
"240 90 OFFCURVE",
"198 118 OFFCURVE",
"174 162 CURVE",
"539 253 LINE",
"531 396 OFFCURVE",
"446 522 OFFCURVE",
"289 522 CURVE SMOOTH",
"137 522 OFFCURVE",
"32 406 OFFCURVE",
"32 254 CURVE SMOOTH",
"32 98 OFFCURVE",
"143 -14 OFFCURVE",
"298 -14 CURVE SMOOTH",
"363 -14 OFFCURVE",
"436 5 OFFCURVE",
"491 43 CURVE",
"491 161 LINE",
"447 120 OFFCURVE",
"373 90 OFFCURVE",
"302 90 CURVE SMOOTH"
);
},
{
closed = 1;
nodes = (
"162 261 LINE",
"162 336 OFFCURVE",
"200 416 OFFCURVE",
"285 416 CURVE SMOOTH",
"346 416 OFFCURVE",
"390 376 OFFCURVE",
"405 318 CURVE",
"164 256 LINE"
);
}
);
width = 571;
}
);
unicode = 00EB;
},
{
glyphname = igrave;
layers = (
{
hints = (
{
horizontal = 1;
place = "{0, 21}";
target = up;
type = BottomGhost;
},
{
horizontal = 1;
place = "{512, -20}";
target = down;
type = TopGhost;
},
{
place = "{63, 136}";
type = Stem;
}
);
layerId = "05A2C769-842B-415C-86A7-244CC7525BC2";
paths = (
{
closed = 1;
nodes = (
"199 512 LINE",
"63 512 LINE",
"63 0 LINE",
"199 0 LINE"
);
}
);
width = 256;
}
);
unicode = 00EC;
},
{
glyphname = iacute;
layers = (
{
hints = (
{
horizontal = 1;
place = "{0, 21}";
target = up;
type = BottomGhost;
},
{
horizontal = 1;
place = "{512, -20}";
target = down;
type = TopGhost;
},
{
place = "{38, 136}";
type = Stem;
}
);
layerId = "05A2C769-842B-415C-86A7-244CC7525BC2";
paths = (
{
closed = 1;
nodes = (
"174 512 LINE",
"38 512 LINE",
"38 0 LINE",
"174 0 LINE"
);
}
);
width = 265;
}
);
unicode = 00ED;
},
{
glyphname = icircumflex;
layers = (
{
hints = (
{
horizontal = 1;
place = "{0, 21}";
target = up;
type = BottomGhost;
},
{
horizontal = 1;
place = "{512, -20}";
target = down;
type = TopGhost;
},
{
horizontal = 1;
place = "{619, 164}";
type = Stem;
},
{
place = "{53, 136}";
type = Stem;
}
);
layerId = "05A2C769-842B-415C-86A7-244CC7525BC2";
paths = (
{
closed = 1;
nodes = (
"162 783 LINE",
"76 783 LINE",
"-48 619 LINE",
"51 619 LINE",
"119 691 LINE",
"187 619 LINE",
"285 619 LINE"
);
},
{
closed = 1;
nodes = (
"189 512 LINE",
"53 512 LINE",
"53 0 LINE",
"189 0 LINE"
);
}
);
width = 241;
}
);
unicode = 00EE;
},
{
glyphname = idieresis;
layers = (
{
hints = (
{
horizontal = 1;
place = "{0, 21}";
target = up;
type = BottomGhost;
},
{
horizontal = 1;
place = "{512, -20}";
target = down;
type = TopGhost;
},
{
place = "{65, 136}";
type = Stem;
}
);
layerId = "05A2C769-842B-415C-86A7-244CC7525BC2";
paths = (
{
closed = 1;
nodes = (
"201 512 LINE",
"65 512 LINE",
"65 0 LINE",
"201 0 LINE"
);
}
);
width = 267;
}
);
unicode = 00EF;
},
{
glyphname = eth;
layers = (
{
hints = (
{
horizontal = 1;
place = "{-12, 147}";
type = Stem;
},
{
horizontal = 1;
place = "{325, 142}";
type = Stem;
},
{
place = "{33, 162}";
type = Stem;
},
{
place = "{375, 160}";
type = Stem;
}
);
layerId = "05A2C769-842B-415C-86A7-244CC7525BC2";
paths = (
{
closed = 1;
nodes = (
"97 722 LINE",
"146 689 OFFCURVE",
"176 667 OFFCURVE",
"199 646 CURVE",
"83 574 LINE",
"130 525 LINE",
"250 600 LINE",
"303 550 OFFCURVE",
"348 497 OFFCURVE",
"378 430 CURVE",
"360 442 OFFCURVE",
"325 467 OFFCURVE",
"266 467 CURVE SMOOTH",
"136 467 OFFCURVE",
"33 366 OFFCURVE",
"33 230 CURVE SMOOTH",
"33 81 OFFCURVE",
"154 -12 OFFCURVE",
"284 -12 CURVE SMOOTH",
"396 -12 OFFCURVE",
"535 63 OFFCURVE",
"535 254 CURVE SMOOTH",
"535 439 OFFCURVE",
"429 575 OFFCURVE",
"343 655 CURVE",
"460 728 LINE",
"413 776 LINE",
"292 700 LINE",
"253 734 OFFCURVE",
"228 753 OFFCURVE",
"178 783 CURVE"
);
},
{
closed = 1;
nodes = (
"224 310 OFFCURVE",
"251 325 OFFCURVE",
"280 325 CURVE SMOOTH",
"296 325 OFFCURVE",
"313 320 OFFCURVE",
"329 311 CURVE SMOOTH",
"376 285 OFFCURVE",
"388 223 OFFCURVE",
"362 181 CURVE SMOOTH",
"345 152 OFFCURVE",
"317 135 OFFCURVE",
"287 135 CURVE SMOOTH",
"272 135 OFFCURVE",
"256 139 OFFCURVE",
"241 148 CURVE SMOOTH",
"198 174 OFFCURVE",
"181 232 OFFCURVE",
"207 280 CURVE SMOOTH"
);
}
);
width = 567;
}
);
unicode = 00F0;
},
{
glyphname = ntilde;
layers = (
{
hints = (
{
place = "{59, 136}";
type = Stem;
},
{
place = "{398, 136}";
type = Stem;
},
{
horizontal = 1;
place = "{0, 21}";
target = up;
type = BottomGhost;
},
{
horizontal = 1;
place = "{403, 120}";
type = Stem;
},
{
horizontal = 1;
place = "{512, -20}";
target = down;
type = TopGhost;
}
);
layerId = "05A2C769-842B-415C-86A7-244CC7525BC2";
paths = (
{
closed = 1;
nodes = (
"282 523 OFFCURVE",
"231 487 OFFCURVE",
"196 443 CURVE",
"59 512 LINE",
"59 0 LINE",
"195 0 LINE",
"195 287 LINE SMOOTH",
"195 371 OFFCURVE",
"252 403 OFFCURVE",
"301 403 CURVE SMOOTH",
"351 403 OFFCURVE",
"398 370 OFFCURVE",
"398 287 CURVE SMOOTH",
"398 0 LINE",
"534 0 LINE",
"534 329 LINE SMOOTH",
"534 453 OFFCURVE",
"460 523 OFFCURVE",
"355 523 CURVE SMOOTH"
);
}
);
width = 589;
}
);
unicode = 00F1;
},
{
glyphname = ograve;
layers = (
{
hints = (
{
horizontal = 1;
place = "{-12, 116}";
type = Stem;
},
{
horizontal = 1;
place = "{409, 115}";
type = Stem;
},
{
place = "{32, 134}";
type = Stem;
},
{
place = "{455, 134}";
type = Stem;
}
);
layerId = "05A2C769-842B-415C-86A7-244CC7525BC2";
paths = (
{
closed = 1;
nodes = (
"589 405 OFFCURVE",
"472 524 OFFCURVE",
"311 524 CURVE SMOOTH",
"150 524 OFFCURVE",
"32 404 OFFCURVE",
"32 255 CURVE SMOOTH",
"32 107 OFFCURVE",
"149 -12 OFFCURVE",
"309 -12 CURVE SMOOTH",
"471 -12 OFFCURVE",
"589 110 OFFCURVE",
"589 257 CURVE SMOOTH"
);
},
{
closed = 1;
nodes = (
"455 174 OFFCURVE",
"396 104 OFFCURVE",
"311 104 CURVE SMOOTH",
"228 104 OFFCURVE",
"166 172 OFFCURVE",
"166 257 CURVE SMOOTH",
"166 340 OFFCURVE",
"223 409 OFFCURVE",
"309 409 CURVE SMOOTH",
"395 409 OFFCURVE",
"455 339 OFFCURVE",
"455 256 CURVE SMOOTH"
);
}
);
width = 622;
}
);
unicode = 00F2;
},
{
glyphname = oacute;
layers = (
{
hints = (
{
horizontal = 1;
place = "{-12, 116}";
type = Stem;
},
{
horizontal = 1;
place = "{409, 115}";
type = Stem;
},
{
place = "{32, 134}";
type = Stem;
},
{
place = "{455, 134}";
type = Stem;
}
);
layerId = "05A2C769-842B-415C-86A7-244CC7525BC2";
paths = (
{
closed = 1;
nodes = (
"589 405 OFFCURVE",
"472 524 OFFCURVE",
"311 524 CURVE SMOOTH",
"150 524 OFFCURVE",
"32 404 OFFCURVE",
"32 255 CURVE SMOOTH",
"32 107 OFFCURVE",
"149 -12 OFFCURVE",
"309 -12 CURVE SMOOTH",
"471 -12 OFFCURVE",
"589 110 OFFCURVE",
"589 257 CURVE SMOOTH"
);
},
{
closed = 1;
nodes = (
"455 174 OFFCURVE",
"396 104 OFFCURVE",
"311 104 CURVE SMOOTH",
"228 104 OFFCURVE",
"166 172 OFFCURVE",
"166 257 CURVE SMOOTH",
"166 340 OFFCURVE",
"223 409 OFFCURVE",
"309 409 CURVE SMOOTH",
"395 409 OFFCURVE",
"455 339 OFFCURVE",
"455 256 CURVE SMOOTH"
);
}
);
width = 622;
}
);
unicode = 00F3;
},
{
glyphname = ocircumflex;
layers = (
{
hints = (
{
horizontal = 1;
place = "{-12, 116}";
type = Stem;
},
{
horizontal = 1;
place = "{409, 115}";
type = Stem;
},
{
horizontal = 1;
place = "{619, 164}";
type = Stem;
},
{
place = "{32, 134}";
type = Stem;
},
{
place = "{455, 134}";
type = Stem;
}
);
layerId = "05A2C769-842B-415C-86A7-244CC7525BC2";
paths = (
{
closed = 1;
nodes = (
"355 783 LINE",
"269 783 LINE",
"146 619 LINE",
"244 619 LINE",
"312 691 LINE",
"380 619 LINE",
"478 619 LINE"
);
},
{
closed = 1;
nodes = (
"589 405 OFFCURVE",
"472 524 OFFCURVE",
"311 524 CURVE SMOOTH",
"150 524 OFFCURVE",
"32 404 OFFCURVE",
"32 255 CURVE SMOOTH",
"32 107 OFFCURVE",
"149 -12 OFFCURVE",
"309 -12 CURVE SMOOTH",
"471 -12 OFFCURVE",
"589 110 OFFCURVE",
"589 257 CURVE SMOOTH"
);
},
{
closed = 1;
nodes = (
"455 174 OFFCURVE",
"396 104 OFFCURVE",
"311 104 CURVE SMOOTH",
"228 104 OFFCURVE",
"166 172 OFFCURVE",
"166 257 CURVE SMOOTH",
"166 340 OFFCURVE",
"223 409 OFFCURVE",
"309 409 CURVE SMOOTH",
"395 409 OFFCURVE",
"455 339 OFFCURVE",
"455 256 CURVE SMOOTH"
);
}
);
width = 622;
}
);
unicode = 00F4;
},
{
glyphname = otilde;
layers = (
{
hints = (
{
horizontal = 1;
place = "{-12, 116}";
type = Stem;
},
{
horizontal = 1;
place = "{409, 115}";
type = Stem;
},
{
place = "{32, 134}";
type = Stem;
},
{
place = "{455, 134}";
type = Stem;
}
);
layerId = "05A2C769-842B-415C-86A7-244CC7525BC2";
paths = (
{
closed = 1;
nodes = (
"589 405 OFFCURVE",
"472 524 OFFCURVE",
"311 524 CURVE SMOOTH",
"150 524 OFFCURVE",
"32 404 OFFCURVE",
"32 255 CURVE SMOOTH",
"32 107 OFFCURVE",
"149 -12 OFFCURVE",
"309 -12 CURVE SMOOTH",
"471 -12 OFFCURVE",
"589 110 OFFCURVE",
"589 257 CURVE SMOOTH"
);
},
{
closed = 1;
nodes = (
"455 174 OFFCURVE",
"396 104 OFFCURVE",
"311 104 CURVE SMOOTH",
"228 104 OFFCURVE",
"166 172 OFFCURVE",
"166 257 CURVE SMOOTH",
"166 340 OFFCURVE",
"223 409 OFFCURVE",
"309 409 CURVE SMOOTH",
"395 409 OFFCURVE",
"455 339 OFFCURVE",
"455 256 CURVE SMOOTH"
);
}
);
width = 622;
}
);
unicode = 00F5;
},
{
glyphname = odieresis;
layers = (
{
hints = (
{
horizontal = 1;
place = "{-12, 116}";
type = Stem;
},
{
horizontal = 1;
place = "{409, 115}";
type = Stem;
},
{
place = "{32, 134}";
type = Stem;
},
{
place = "{455, 134}";
type = Stem;
}
);
layerId = "05A2C769-842B-415C-86A7-244CC7525BC2";
paths = (
{
closed = 1;
nodes = (
"589 405 OFFCURVE",
"472 524 OFFCURVE",
"311 524 CURVE SMOOTH",
"150 524 OFFCURVE",
"32 404 OFFCURVE",
"32 255 CURVE SMOOTH",
"32 107 OFFCURVE",
"149 -12 OFFCURVE",
"309 -12 CURVE SMOOTH",
"471 -12 OFFCURVE",
"589 110 OFFCURVE",
"589 257 CURVE SMOOTH"
);
},
{
closed = 1;
nodes = (
"455 174 OFFCURVE",
"396 104 OFFCURVE",
"311 104 CURVE SMOOTH",
"228 104 OFFCURVE",
"166 172 OFFCURVE",
"166 257 CURVE SMOOTH",
"166 340 OFFCURVE",
"223 409 OFFCURVE",
"309 409 CURVE SMOOTH",
"395 409 OFFCURVE",
"455 339 OFFCURVE",
"455 256 CURVE SMOOTH"
);
}
);
width = 622;
}
);
unicode = 00F6;
},
{
glyphname = divide;
layers = (
{
hints = (
{
horizontal = 1;
place = "{132, 130}";
type = Stem;
},
{
horizontal = 1;
place = "{311, 83}";
type = Stem;
},
{
horizontal = 1;
place = "{445, 129}";
type = Stem;
},
{
place = "{256, 133}";
type = Stem;
}
);
layerId = "05A2C769-842B-415C-86A7-244CC7525BC2";
paths = (
{
closed = 1;
nodes = (
"389 544 OFFCURVE",
"362 574 OFFCURVE",
"322 574 CURVE SMOOTH",
"283 574 OFFCURVE",
"256 544 OFFCURVE",
"256 509 CURVE SMOOTH",
"256 474 OFFCURVE",
"283 445 OFFCURVE",
"322 445 CURVE SMOOTH",
"362 445 OFFCURVE",
"389 474 OFFCURVE",
"389 509 CURVE SMOOTH"
);
},
{
closed = 1;
nodes = (
"581 394 LINE",
"64 394 LINE",
"64 311 LINE",
"581 311 LINE"
);
},
{
closed = 1;
nodes = (
"389 234 OFFCURVE",
"362 262 OFFCURVE",
"322 262 CURVE SMOOTH",
"283 262 OFFCURVE",
"256 234 OFFCURVE",
"256 198 CURVE SMOOTH",
"256 163 OFFCURVE",
"283 132 OFFCURVE",
"322 132 CURVE SMOOTH",
"362 132 OFFCURVE",
"389 163 OFFCURVE",
"389 198 CURVE SMOOTH"
);
}
);
width = 645;
}
);
unicode = 00F7;
},
{
glyphname = oslash;
layers = (
{
hints = (
{
place = "{37, 129}";
type = Stem;
},
{
place = "{459, 129}";
type = Stem;
},
{
horizontal = 1;
place = "{-13, 110}";
type = Stem;
},
{
horizontal = 1;
place = "{-1, 21}";
target = up;
type = BottomGhost;
},
{
horizontal = 1;
place = "{409, 109}";
type = Stem;
}
);
layerId = "05A2C769-842B-415C-86A7-244CC7525BC2";
paths = (
{
closed = 1;
nodes = (
"24 -1 LINE",
"78 -53 LINE",
"158 32 LINE",
"202 3 OFFCURVE",
"251 -13 OFFCURVE",
"311 -13 CURVE SMOOTH",
"471 -13 OFFCURVE",
"588 105 OFFCURVE",
"588 253 CURVE SMOOTH",
"588 323 OFFCURVE",
"564 380 OFFCURVE",
"525 426 CURVE",
"591 499 LINE",
"532 549 LINE",
"466 475 LINE",
"423 505 OFFCURVE",
"370 518 OFFCURVE",
"312 518 CURVE SMOOTH",
"152 518 OFFCURVE",
"37 401 OFFCURVE",
"37 253 CURVE SMOOTH",
"37 186 OFFCURVE",
"59 129 OFFCURVE",
"100 81 CURVE"
);
},
{
closed = 1;
nodes = (
"186 173 LINE",
"171 196 OFFCURVE",
"166 221 OFFCURVE",
"166 253 CURVE SMOOTH",
"166 339 OFFCURVE",
"222 409 OFFCURVE",
"312 409 CURVE SMOOTH",
"342 409 OFFCURVE",
"367 402 OFFCURVE",
"387 387 CURVE"
);
},
{
closed = 1;
nodes = (
"439 333 LINE",
"452 310 OFFCURVE",
"459 284 OFFCURVE",
"459 253 CURVE SMOOTH",
"459 166 OFFCURVE",
"401 97 OFFCURVE",
"311 97 CURVE SMOOTH",
"282 97 OFFCURVE",
"258 104 OFFCURVE",
"237 118 CURVE"
);
}
);
width = 619;
}
);
unicode = 00F8;
},
{
glyphname = ugrave;
layers = (
{
hints = (
{
place = "{54, 136}";
type = Stem;
},
{
place = "{393, 136}";
type = Stem;
},
{
horizontal = 1;
place = "{-11, 121}";
type = Stem;
},
{
horizontal = 1;
place = "{-6, 21}";
target = up;
type = BottomGhost;
},
{
horizontal = 1;
place = "{512, -20}";
target = down;
type = TopGhost;
}
);
layerId = "05A2C769-842B-415C-86A7-244CC7525BC2";
paths = (
{
closed = 1;
nodes = (
"307 -11 OFFCURVE",
"359 20 OFFCURVE",
"392 62 CURVE",
"529 -6 LINE",
"529 512 LINE",
"393 512 LINE",
"393 226 LINE SMOOTH",
"393 141 OFFCURVE",
"339 110 OFFCURVE",
"288 110 CURVE SMOOTH",
"236 110 OFFCURVE",
"190 142 OFFCURVE",
"190 226 CURVE SMOOTH",
"190 512 LINE",
"54 512 LINE",
"54 184 LINE SMOOTH",
"54 58 OFFCURVE",
"122 -11 OFFCURVE",
"233 -11 CURVE SMOOTH"
);
}
);
width = 583;
}
);
unicode = 00F9;
},
{
glyphname = uacute;
layers = (
{
hints = (
{
place = "{54, 136}";
type = Stem;
},
{
place = "{393, 136}";
type = Stem;
},
{
horizontal = 1;
place = "{-11, 121}";
type = Stem;
},
{
horizontal = 1;
place = "{-6, 21}";
target = up;
type = BottomGhost;
},
{
horizontal = 1;
place = "{512, -20}";
target = down;
type = TopGhost;
}
);
layerId = "05A2C769-842B-415C-86A7-244CC7525BC2";
paths = (
{
closed = 1;
nodes = (
"307 -11 OFFCURVE",
"359 20 OFFCURVE",
"392 62 CURVE",
"529 -6 LINE",
"529 512 LINE",
"393 512 LINE",
"393 226 LINE SMOOTH",
"393 141 OFFCURVE",
"339 110 OFFCURVE",
"288 110 CURVE SMOOTH",
"236 110 OFFCURVE",
"190 142 OFFCURVE",
"190 226 CURVE SMOOTH",
"190 512 LINE",
"54 512 LINE",
"54 184 LINE SMOOTH",
"54 58 OFFCURVE",
"122 -11 OFFCURVE",
"233 -11 CURVE SMOOTH"
);
}
);
width = 583;
}
);
unicode = 00FA;
},
{
glyphname = ucircumflex;
layers = (
{
hints = (
{
place = "{54, 136}";
type = Stem;
},
{
place = "{393, 136}";
type = Stem;
},
{
horizontal = 1;
place = "{-11, 121}";
type = Stem;
},
{
horizontal = 1;
place = "{-6, 21}";
target = up;
type = BottomGhost;
},
{
horizontal = 1;
place = "{512, -20}";
target = down;
type = TopGhost;
},
{
horizontal = 1;
place = "{619, 164}";
type = Stem;
}
);
layerId = "05A2C769-842B-415C-86A7-244CC7525BC2";
paths = (
{
closed = 1;
nodes = (
"334 783 LINE",
"248 783 LINE",
"125 619 LINE",
"223 619 LINE",
"291 691 LINE",
"359 619 LINE",
"457 619 LINE"
);
},
{
closed = 1;
nodes = (
"307 -11 OFFCURVE",
"359 20 OFFCURVE",
"392 62 CURVE",
"529 -6 LINE",
"529 512 LINE",
"393 512 LINE",
"393 226 LINE SMOOTH",
"393 141 OFFCURVE",
"339 110 OFFCURVE",
"288 110 CURVE SMOOTH",
"236 110 OFFCURVE",
"190 142 OFFCURVE",
"190 226 CURVE SMOOTH",
"190 512 LINE",
"54 512 LINE",
"54 184 LINE SMOOTH",
"54 58 OFFCURVE",
"122 -11 OFFCURVE",
"233 -11 CURVE SMOOTH"
);
}
);
width = 583;
}
);
unicode = 00FB;
},
{
glyphname = udieresis;
layers = (
{
hints = (
{
place = "{54, 136}";
type = Stem;
},
{
place = "{393, 136}";
type = Stem;
},
{
horizontal = 1;
place = "{-11, 121}";
type = Stem;
},
{
horizontal = 1;
place = "{-6, 21}";
target = up;
type = BottomGhost;
},
{
horizontal = 1;
place = "{512, -20}";
target = down;
type = TopGhost;
}
);
layerId = "05A2C769-842B-415C-86A7-244CC7525BC2";
paths = (
{
closed = 1;
nodes = (
"307 -11 OFFCURVE",
"359 20 OFFCURVE",
"392 62 CURVE",
"529 -6 LINE",
"529 512 LINE",
"393 512 LINE",
"393 226 LINE SMOOTH",
"393 141 OFFCURVE",
"339 110 OFFCURVE",
"288 110 CURVE SMOOTH",
"236 110 OFFCURVE",
"190 142 OFFCURVE",
"190 226 CURVE SMOOTH",
"190 512 LINE",
"54 512 LINE",
"54 184 LINE SMOOTH",
"54 58 OFFCURVE",
"122 -11 OFFCURVE",
"233 -11 CURVE SMOOTH"
);
}
);
width = 583;
}
);
unicode = 00FC;
},
{
glyphname = yacute;
layers = (
{
hints = (
{
horizontal = 1;
place = "{-174, 21}";
target = up;
type = BottomGhost;
},
{
place = "{-6, 547}";
type = Stem;
}
);
layerId = "05A2C769-842B-415C-86A7-244CC7525BC2";
paths = (
{
closed = 1;
nodes = (
"218 -3 LINE",
"156 -174 LINE",
"275 -174 LINE",
"541 511 LINE",
"401 511 LINE",
"275 147 LINE",
"139 511 LINE",
"-6 511 LINE"
);
}
);
width = 537;
}
);
unicode = 00FD;
},
{
glyphname = thorn;
layers = (
{
hints = (
{
horizontal = 1;
place = "{-10, 109}";
type = Stem;
},
{
horizontal = 1;
place = "{361, 109}";
type = Stem;
},
{
place = "{60, 130}";
type = Stem;
},
{
place = "{414, 131}";
type = Stem;
}
);
layerId = "05A2C769-842B-415C-86A7-244CC7525BC2";
paths = (
{
closed = 1;
nodes = (
"60 -236 LINE",
"190 -236 LINE",
"190 -16 LINE",
"188 59 LINE",
"191 59 LINE",
"218 19 OFFCURVE",
"266 -6 OFFCURVE",
"315 -10 CURVE",
"330 -12 OFFCURVE",
"344 -12 OFFCURVE",
"357 -10 CURVE",
"477 1 OFFCURVE",
"545 116 OFFCURVE",
"545 231 CURVE SMOOTH",
"545 347 OFFCURVE",
"477 458 OFFCURVE",
"358 470 CURVE SMOOTH",
"343 471 OFFCURVE",
"329 471 OFFCURVE",
"313 469 CURVE SMOOTH",
"261 461 OFFCURVE",
"216 434 OFFCURVE",
"188 398 CURVE",
"187 398 LINE",
"188 425 OFFCURVE",
"188 454 OFFCURVE",
"189 482 CURVE",
"189 511 OFFCURVE",
"189 540 OFFCURVE",
"190 569 CURVE",
"190 774 LINE",
"60 774 LINE"
);
},
{
closed = 1;
nodes = (
"225 99 OFFCURVE",
"183 164 OFFCURVE",
"183 233 CURVE SMOOTH",
"183 298 OFFCURVE",
"227 361 OFFCURVE",
"297 361 CURVE SMOOTH",
"370 361 OFFCURVE",
"414 301 OFFCURVE",
"414 233 CURVE SMOOTH",
"414 164 OFFCURVE",
"372 99 OFFCURVE",
"297 99 CURVE SMOOTH"
);
}
);
width = 577;
}
);
unicode = 00FE;
},
{
glyphname = ydieresis;
layers = (
{
hints = (
{
horizontal = 1;
place = "{-174, 21}";
target = up;
type = BottomGhost;
},
{
place = "{-6, 547}";
type = Stem;
}
);
layerId = "05A2C769-842B-415C-86A7-244CC7525BC2";
paths = (
{
closed = 1;
nodes = (
"218 -3 LINE",
"156 -174 LINE",
"275 -174 LINE",
"541 511 LINE",
"401 511 LINE",
"275 147 LINE",
"139 511 LINE",
"-6 511 LINE"
);
}
);
width = 537;
}
);
unicode = 00FF;
},
{
glyphname = Amacron;
layers = (
{
hints = (
{
horizontal = 1;
place = "{0, 21}";
target = up;
type = BottomGhost;
},
{
horizontal = 1;
place = "{161, 113}";
type = Stem;
},
{
horizontal = 1;
place = "{705, -20}";
target = down;
type = TopGhost;
},
{
horizontal = 1;
place = "{760, 87}";
type = Stem;
},
{
place = "{-7, 736}";
type = Stem;
}
);
layerId = "05A2C769-842B-415C-86A7-244CC7525BC2";
paths = (
{
closed = 1;
nodes = (
"528 847 LINE",
"192 847 LINE",
"192 760 LINE",
"528 760 LINE"
);
},
{
closed = 1;
nodes = (
"511 161 LINE",
"578 0 LINE",
"729 0 LINE",
"425 705 LINE",
"297 705 LINE",
"-7 0 LINE",
"141 0 LINE",
"209 161 LINE"
);
},
{
closed = 1;
nodes = (
"360 541 LINE",
"467 274 LINE",
"253 274 LINE"
);
}
);
width = 722;
}
);
unicode = 0100;
},
{
glyphname = amacron;
layers = (
{
hints = (
{
place = "{32, 134}";
type = Stem;
},
{
place = "{386, 133}";
type = Stem;
},
{
horizontal = 1;
place = "{-12, 94}";
type = Stem;
},
{
horizontal = 1;
place = "{-6, 21}";
target = up;
type = BottomGhost;
},
{
horizontal = 1;
place = "{251, 79}";
type = Stem;
},
{
horizontal = 1;
place = "{413, 108}";
type = Stem;
},
{
horizontal = 1;
place = "{595, 87}";
type = Stem;
}
);
layerId = "05A2C769-842B-415C-86A7-244CC7525BC2";
paths = (
{
closed = 1;
nodes = (
"447 682 LINE",
"111 682 LINE",
"111 595 LINE",
"447 595 LINE"
);
},
{
closed = 1;
nodes = (
"519 -6 LINE",
"519 310 LINE SMOOTH",
"519 449 OFFCURVE",
"426 521 OFFCURVE",
"274 521 CURVE SMOOTH",
"192 521 OFFCURVE",
"126 501 OFFCURVE",
"72 479 CURVE",
"72 373 LINE",
"131 402 OFFCURVE",
"189 413 OFFCURVE",
"247 413 CURVE SMOOTH",
"334 413 OFFCURVE",
"386 386 OFFCURVE",
"386 317 CURVE SMOOTH",
"386 303 LINE",
"349 321 OFFCURVE",
"298 330 OFFCURVE",
"244 330 CURVE SMOOTH",
"131 330 OFFCURVE",
"32 283 OFFCURVE",
"32 164 CURVE SMOOTH",
"32 52 OFFCURVE",
"125 -12 OFFCURVE",
"225 -12 CURVE SMOOTH",
"294 -12 OFFCURVE",
"343 12 OFFCURVE",
"384 53 CURVE"
);
},
{
closed = 1;
nodes = (
"386 131 LINE",
"356 99 OFFCURVE",
"318 82 OFFCURVE",
"270 82 CURVE SMOOTH",
"214 82 OFFCURVE",
"166 112 OFFCURVE",
"166 166 CURVE SMOOTH",
"166 222 OFFCURVE",
"220 251 OFFCURVE",
"280 251 CURVE SMOOTH",
"326 251 OFFCURVE",
"361 238 OFFCURVE",
"386 225 CURVE"
);
}
);
width = 580;
}
);
unicode = 0101;
},
{
glyphname = Abreve;
layers = (
{
hints = (
{
horizontal = 1;
place = "{0, 21}";
target = up;
type = BottomGhost;
},
{
horizontal = 1;
place = "{161, 113}";
type = Stem;
},
{
horizontal = 1;
place = "{705, -20}";
target = down;
type = TopGhost;
},
{
horizontal = 1;
place = "{763, 92}";
type = Stem;
},
{
place = "{-7, 736}";
type = Stem;
}
);
layerId = "05A2C769-842B-415C-86A7-244CC7525BC2";
paths = (
{
closed = 1;
nodes = (
"441 924 LINE",
"429 880 OFFCURVE",
"400 855 OFFCURVE",
"362 855 CURVE SMOOTH",
"323 855 OFFCURVE",
"292 880 OFFCURVE",
"280 924 CURVE",
"201 924 LINE",
"210 828 OFFCURVE",
"272 763 OFFCURVE",
"359 763 CURVE SMOOTH",
"447 763 OFFCURVE",
"512 828 OFFCURVE",
"520 924 CURVE"
);
},
{
closed = 1;
nodes = (
"511 161 LINE",
"578 0 LINE",
"729 0 LINE",
"425 705 LINE",
"297 705 LINE",
"-7 0 LINE",
"141 0 LINE",
"209 161 LINE"
);
},
{
closed = 1;
nodes = (
"360 541 LINE",
"467 274 LINE",
"253 274 LINE"
);
}
);
width = 722;
}
);
unicode = 0102;
},
{
glyphname = abreve;
layers = (
{
hints = (
{
place = "{32, 134}";
type = Stem;
},
{
place = "{386, 133}";
type = Stem;
},
{
horizontal = 1;
place = "{-12, 94}";
type = Stem;
},
{
horizontal = 1;
place = "{-6, 21}";
target = up;
type = BottomGhost;
},
{
horizontal = 1;
place = "{251, 79}";
type = Stem;
},
{
horizontal = 1;
place = "{413, 108}";
type = Stem;
},
{
horizontal = 1;
place = "{588, 92}";
type = Stem;
}
);
layerId = "05A2C769-842B-415C-86A7-244CC7525BC2";
paths = (
{
closed = 1;
nodes = (
"375 749 LINE",
"363 705 OFFCURVE",
"334 680 OFFCURVE",
"296 680 CURVE SMOOTH",
"257 680 OFFCURVE",
"226 705 OFFCURVE",
"214 749 CURVE",
"135 749 LINE",
"144 653 OFFCURVE",
"206 588 OFFCURVE",
"293 588 CURVE SMOOTH",
"381 588 OFFCURVE",
"446 653 OFFCURVE",
"454 749 CURVE"
);
},
{
closed = 1;
nodes = (
"519 -6 LINE",
"519 310 LINE SMOOTH",
"519 449 OFFCURVE",
"426 521 OFFCURVE",
"274 521 CURVE SMOOTH",
"192 521 OFFCURVE",
"126 501 OFFCURVE",
"72 479 CURVE",
"72 373 LINE",
"131 402 OFFCURVE",
"189 413 OFFCURVE",
"247 413 CURVE SMOOTH",
"334 413 OFFCURVE",
"386 386 OFFCURVE",
"386 317 CURVE SMOOTH",
"386 303 LINE",
"349 321 OFFCURVE",
"298 330 OFFCURVE",
"244 330 CURVE SMOOTH",
"131 330 OFFCURVE",
"32 283 OFFCURVE",
"32 164 CURVE SMOOTH",
"32 52 OFFCURVE",
"125 -12 OFFCURVE",
"225 -12 CURVE SMOOTH",
"294 -12 OFFCURVE",
"343 12 OFFCURVE",
"384 53 CURVE"
);
},
{
closed = 1;
nodes = (
"386 131 LINE",
"356 99 OFFCURVE",
"318 82 OFFCURVE",
"270 82 CURVE SMOOTH",
"214 82 OFFCURVE",
"166 112 OFFCURVE",
"166 166 CURVE SMOOTH",
"166 222 OFFCURVE",
"220 251 OFFCURVE",
"280 251 CURVE SMOOTH",
"326 251 OFFCURVE",
"361 238 OFFCURVE",
"386 225 CURVE"
);
}
);
width = 580;
}
);
unicode = 0103;
},
{
glyphname = Aogonek;
layers = (
{
hints = (
{
horizontal = 1;
place = "{-218, 78}";
type = Stem;
},
{
horizontal = 1;
place = "{0, 21}";
target = up;
type = BottomGhost;
},
{
horizontal = 1;
place = "{161, 113}";
type = Stem;
},
{
horizontal = 1;
place = "{705, -20}";
target = down;
type = TopGhost;
},
{
place = "{522, 96}";
type = Stem;
}
);
layerId = "05A2C769-842B-415C-86A7-244CC7525BC2";
paths = (
{
closed = 1;
nodes = (
"511 161 LINE",
"578 0 LINE",
"551 -32 OFFCURVE",
"522 -71 OFFCURVE",
"522 -116 CURVE SMOOTH",
"522 -180 OFFCURVE",
"574 -218 OFFCURVE",
"642 -218 CURVE SMOOTH",
"669 -218 OFFCURVE",
"698 -212 OFFCURVE",
"728 -197 CURVE",
"712 -129 LINE",
"688 -137 OFFCURVE",
"674 -140 OFFCURVE",
"662 -140 CURVE SMOOTH",
"636 -140 OFFCURVE",
"618 -125 OFFCURVE",
"618 -101 CURVE SMOOTH",
"618 -78 OFFCURVE",
"631 -52 OFFCURVE",
"671 0 CURVE",
"729 0 LINE",
"425 705 LINE",
"297 705 LINE",
"-7 0 LINE",
"141 0 LINE",
"209 161 LINE"
);
},
{
closed = 1;
nodes = (
"360 541 LINE",
"467 274 LINE",
"253 274 LINE"
);
}
);
width = 731;
}
);
unicode = 0104;
},
{
glyphname = aogonek;
layers = (
{
hints = (
{
place = "{32, 134}";
type = Stem;
},
{
place = "{370, 96}";
type = Stem;
},
{
place = "{386, 133}";
type = Stem;
},
{
horizontal = 1;
place = "{-218, 78}";
type = Stem;
},
{
horizontal = 1;
place = "{-12, 94}";
type = Stem;
},
{
horizontal = 1;
place = "{251, 79}";
type = Stem;
},
{
horizontal = 1;
place = "{413, 108}";
type = Stem;
}
);
layerId = "05A2C769-842B-415C-86A7-244CC7525BC2";
paths = (
{
closed = 1;
nodes = (
"519 310 LINE SMOOTH",
"519 449 OFFCURVE",
"426 521 OFFCURVE",
"274 521 CURVE SMOOTH",
"192 521 OFFCURVE",
"126 501 OFFCURVE",
"72 479 CURVE",
"72 373 LINE",
"131 402 OFFCURVE",
"189 413 OFFCURVE",
"247 413 CURVE SMOOTH",
"334 413 OFFCURVE",
"386 386 OFFCURVE",
"386 317 CURVE SMOOTH",
"386 303 LINE",
"349 321 OFFCURVE",
"298 330 OFFCURVE",
"244 330 CURVE SMOOTH",
"131 330 OFFCURVE",
"32 283 OFFCURVE",
"32 164 CURVE SMOOTH",
"32 52 OFFCURVE",
"125 -12 OFFCURVE",
"225 -12 CURVE SMOOTH",
"294 -12 OFFCURVE",
"343 12 OFFCURVE",
"384 53 CURVE",
"447 25 LINE",
"395 -30 OFFCURVE",
"370 -70 OFFCURVE",
"370 -114 CURVE SMOOTH",
"370 -178 OFFCURVE",
"422 -218 OFFCURVE",
"490 -218 CURVE SMOOTH",
"517 -218 OFFCURVE",
"546 -212 OFFCURVE",
"576 -197 CURVE",
"560 -129 LINE",
"536 -137 OFFCURVE",
"522 -140 OFFCURVE",
"510 -140 CURVE SMOOTH",
"483 -140 OFFCURVE",
"466 -123 OFFCURVE",
"466 -99 CURVE SMOOTH",
"466 -78 OFFCURVE",
"479 -51 OFFCURVE",
"519 -6 CURVE"
);
},
{
closed = 1;
nodes = (
"386 131 LINE",
"356 99 OFFCURVE",
"318 82 OFFCURVE",
"270 82 CURVE SMOOTH",
"214 82 OFFCURVE",
"166 112 OFFCURVE",
"166 166 CURVE SMOOTH",
"166 222 OFFCURVE",
"220 251 OFFCURVE",
"280 251 CURVE SMOOTH",
"326 251 OFFCURVE",
"361 238 OFFCURVE",
"386 225 CURVE"
);
}
);
width = 614;
}
);
unicode = 0105;
},
{
glyphname = Cacute;
layers = (
{
hints = (
{
horizontal = 1;
place = "{-14, 127}";
type = Stem;
},
{
horizontal = 1;
place = "{590, 127}";
type = Stem;
},
{
place = "{44, 144}";
type = Stem;
}
);
layerId = "05A2C769-842B-415C-86A7-244CC7525BC2";
paths = (
{
closed = 1;
nodes = (
"342 781 LINE",
"439 781 LINE",
"576 910 LINE",
"440 948 LINE"
);
},
{
closed = 1;
nodes = (
"635 212 LINE",
"571 154 OFFCURVE",
"505 113 OFFCURVE",
"417 113 CURVE SMOOTH",
"278 113 OFFCURVE",
"188 219 OFFCURVE",
"188 352 CURVE SMOOTH",
"188 483 OFFCURVE",
"278 590 OFFCURVE",
"417 590 CURVE SMOOTH",
"511 590 OFFCURVE",
"577 553 OFFCURVE",
"625 501 CURVE",
"625 648 LINE",
"569 689 OFFCURVE",
"502 717 OFFCURVE",
"411 717 CURVE SMOOTH",
"200 717 OFFCURVE",
"44 556 OFFCURVE",
"44 351 CURVE SMOOTH",
"44 143 OFFCURVE",
"203 -14 OFFCURVE",
"405 -14 CURVE SMOOTH",
"499 -14 OFFCURVE",
"570 16 OFFCURVE",
"635 66 CURVE"
);
}
);
width = 686;
}
);
unicode = 0106;
},
{
glyphname = cacute;
layers = (
{
hints = (
{
horizontal = 1;
place = "{-11, 115}";
type = Stem;
},
{
horizontal = 1;
place = "{408, 114}";
type = Stem;
},
{
place = "{32, 134}";
type = Stem;
}
);
layerId = "05A2C769-842B-415C-86A7-244CC7525BC2";
paths = (
{
closed = 1;
nodes = (
"426 495 LINE",
"392 514 OFFCURVE",
"344 522 OFFCURVE",
"302 522 CURVE SMOOTH",
"142 522 OFFCURVE",
"32 401 OFFCURVE",
"32 255 CURVE SMOOTH",
"32 107 OFFCURVE",
"147 -11 OFFCURVE",
"297 -11 CURVE SMOOTH",
"347 -11 OFFCURVE",
"395 3 OFFCURVE",
"431 21 CURVE",
"431 154 LINE",
"396 121 OFFCURVE",
"355 104 OFFCURVE",
"312 104 CURVE SMOOTH",
"230 104 OFFCURVE",
"166 174 OFFCURVE",
"166 258 CURVE SMOOTH",
"166 343 OFFCURVE",
"225 408 OFFCURVE",
"309 408 CURVE SMOOTH",
"355 408 OFFCURVE",
"393 389 OFFCURVE",
"426 357 CURVE"
);
}
);
width = 494;
}
);
unicode = 0107;
},
{
glyphname = Ccircumflex;
layers = (
{
hints = (
{
horizontal = 1;
place = "{-14, 127}";
type = Stem;
},
{
horizontal = 1;
place = "{590, 127}";
type = Stem;
},
{
horizontal = 1;
place = "{784, 164}";
type = Stem;
},
{
place = "{44, 144}";
type = Stem;
}
);
layerId = "05A2C769-842B-415C-86A7-244CC7525BC2";
paths = (
{
closed = 1;
nodes = (
"436 948 LINE",
"350 948 LINE",
"227 784 LINE",
"325 784 LINE",
"393 856 LINE",
"461 784 LINE",
"559 784 LINE"
);
},
{
closed = 1;
nodes = (
"635 212 LINE",
"571 154 OFFCURVE",
"505 113 OFFCURVE",
"417 113 CURVE SMOOTH",
"278 113 OFFCURVE",
"188 219 OFFCURVE",
"188 352 CURVE SMOOTH",
"188 483 OFFCURVE",
"278 590 OFFCURVE",
"417 590 CURVE SMOOTH",
"511 590 OFFCURVE",
"577 553 OFFCURVE",
"625 501 CURVE",
"625 648 LINE",
"569 689 OFFCURVE",
"502 717 OFFCURVE",
"411 717 CURVE SMOOTH",
"200 717 OFFCURVE",
"44 556 OFFCURVE",
"44 351 CURVE SMOOTH",
"44 143 OFFCURVE",
"203 -14 OFFCURVE",
"405 -14 CURVE SMOOTH",
"499 -14 OFFCURVE",
"570 16 OFFCURVE",
"635 66 CURVE"
);
}
);
width = 686;
}
);
unicode = 0108;
},
{
glyphname = ccircumflex;
layers = (
{
hints = (
{
horizontal = 1;
place = "{-11, 115}";
type = Stem;
},
{
horizontal = 1;
place = "{408, 114}";
type = Stem;
},
{
horizontal = 1;
place = "{619, 164}";
type = Stem;
},
{
place = "{32, 134}";
type = Stem;
}
);
layerId = "05A2C769-842B-415C-86A7-244CC7525BC2";
paths = (
{
closed = 1;
nodes = (
"323 783 LINE",
"237 783 LINE",
"114 619 LINE",
"212 619 LINE",
"280 691 LINE",
"348 619 LINE",
"446 619 LINE"
);
},
{
closed = 1;
nodes = (
"426 495 LINE",
"392 514 OFFCURVE",
"344 522 OFFCURVE",
"302 522 CURVE SMOOTH",
"142 522 OFFCURVE",
"32 401 OFFCURVE",
"32 255 CURVE SMOOTH",
"32 107 OFFCURVE",
"147 -11 OFFCURVE",
"297 -11 CURVE SMOOTH",
"347 -11 OFFCURVE",
"395 3 OFFCURVE",
"431 21 CURVE",
"431 154 LINE",
"396 121 OFFCURVE",
"355 104 OFFCURVE",
"312 104 CURVE SMOOTH",
"230 104 OFFCURVE",
"166 174 OFFCURVE",
"166 258 CURVE SMOOTH",
"166 343 OFFCURVE",
"225 408 OFFCURVE",
"309 408 CURVE SMOOTH",
"355 408 OFFCURVE",
"393 389 OFFCURVE",
"426 357 CURVE"
);
}
);
width = 459;
}
);
unicode = 0109;
},
{
glyphname = Cdotaccent;
layers = (
{
hints = (
{
horizontal = 1;
place = "{-14, 127}";
type = Stem;
},
{
horizontal = 1;
place = "{590, 127}";
type = Stem;
},
{
horizontal = 1;
place = "{767, 156}";
type = Stem;
},
{
place = "{37, 144}";
type = Stem;
},
{
place = "{314, 168}";
type = Stem;
}
);
layerId = "05A2C769-842B-415C-86A7-244CC7525BC2";
paths = (
{
closed = 1;
nodes = (
"314 797 OFFCURVE",
"352 767 OFFCURVE",
"398 767 CURVE SMOOTH",
"445 767 OFFCURVE",
"482 797 OFFCURVE",
"482 845 CURVE SMOOTH",
"482 895 OFFCURVE",
"445 923 OFFCURVE",
"398 923 CURVE SMOOTH",
"352 923 OFFCURVE",
"314 895 OFFCURVE",
"314 845 CURVE SMOOTH"
);
},
{
closed = 1;
nodes = (
"628 212 LINE",
"564 154 OFFCURVE",
"498 113 OFFCURVE",
"410 113 CURVE SMOOTH",
"271 113 OFFCURVE",
"181 219 OFFCURVE",
"181 352 CURVE SMOOTH",
"181 483 OFFCURVE",
"271 590 OFFCURVE",
"410 590 CURVE SMOOTH",
"504 590 OFFCURVE",
"570 553 OFFCURVE",
"618 501 CURVE",
"618 648 LINE",
"562 689 OFFCURVE",
"495 717 OFFCURVE",
"404 717 CURVE SMOOTH",
"193 717 OFFCURVE",
"37 556 OFFCURVE",
"37 351 CURVE SMOOTH",
"37 143 OFFCURVE",
"196 -14 OFFCURVE",
"398 -14 CURVE SMOOTH",
"492 -14 OFFCURVE",
"563 16 OFFCURVE",
"628 66 CURVE"
);
}
);
width = 640;
}
);
unicode = 010A;
},
{
glyphname = cdotaccent;
layers = (
{
hints = (
{
horizontal = 1;
place = "{-11, 115}";
type = Stem;
},
{
horizontal = 1;
place = "{408, 114}";
type = Stem;
},
{
horizontal = 1;
place = "{602, 156}";
type = Stem;
},
{
place = "{31, 134}";
type = Stem;
},
{
place = "{203, 168}";
type = Stem;
}
);
layerId = "05A2C769-842B-415C-86A7-244CC7525BC2";
paths = (
{
closed = 1;
nodes = (
"203 632 OFFCURVE",
"241 602 OFFCURVE",
"287 602 CURVE SMOOTH",
"334 602 OFFCURVE",
"371 632 OFFCURVE",
"371 680 CURVE SMOOTH",
"371 730 OFFCURVE",
"334 758 OFFCURVE",
"287 758 CURVE SMOOTH",
"241 758 OFFCURVE",
"203 730 OFFCURVE",
"203 680 CURVE SMOOTH"
);
},
{
closed = 1;
nodes = (
"425 495 LINE",
"391 514 OFFCURVE",
"343 522 OFFCURVE",
"301 522 CURVE SMOOTH",
"141 522 OFFCURVE",
"31 401 OFFCURVE",
"31 255 CURVE SMOOTH",
"31 107 OFFCURVE",
"146 -11 OFFCURVE",
"296 -11 CURVE SMOOTH",
"346 -11 OFFCURVE",
"394 3 OFFCURVE",
"430 21 CURVE",
"430 154 LINE",
"395 121 OFFCURVE",
"354 104 OFFCURVE",
"311 104 CURVE SMOOTH",
"229 104 OFFCURVE",
"165 174 OFFCURVE",
"165 258 CURVE SMOOTH",
"165 343 OFFCURVE",
"224 408 OFFCURVE",
"308 408 CURVE SMOOTH",
"354 408 OFFCURVE",
"392 389 OFFCURVE",
"425 357 CURVE"
);
}
);
width = 450;
}
);
unicode = 010B;
},
{
glyphname = Ccaron;
layers = (
{
hints = (
{
horizontal = 1;
place = "{-14, 127}";
type = Stem;
},
{
horizontal = 1;
place = "{590, 127}";
type = Stem;
},
{
horizontal = 1;
place = "{763, 165}";
type = Stem;
},
{
place = "{44, 144}";
type = Stem;
}
);
layerId = "05A2C769-842B-415C-86A7-244CC7525BC2";
paths = (
{
closed = 1;
nodes = (
"483 928 LINE",
"416 854 LINE",
"348 928 LINE",
"242 928 LINE",
"371 763 LINE",
"459 763 LINE",
"587 928 LINE"
);
},
{
closed = 1;
nodes = (
"635 212 LINE",
"571 154 OFFCURVE",
"505 113 OFFCURVE",
"417 113 CURVE SMOOTH",
"278 113 OFFCURVE",
"188 219 OFFCURVE",
"188 352 CURVE SMOOTH",
"188 483 OFFCURVE",
"278 590 OFFCURVE",
"417 590 CURVE SMOOTH",
"511 590 OFFCURVE",
"577 553 OFFCURVE",
"625 501 CURVE",
"625 648 LINE",
"569 689 OFFCURVE",
"502 717 OFFCURVE",
"411 717 CURVE SMOOTH",
"200 717 OFFCURVE",
"44 556 OFFCURVE",
"44 351 CURVE SMOOTH",
"44 143 OFFCURVE",
"203 -14 OFFCURVE",
"405 -14 CURVE SMOOTH",
"499 -14 OFFCURVE",
"570 16 OFFCURVE",
"635 66 CURVE"
);
}
);
width = 686;
}
);
unicode = 010C;
},
{
glyphname = ccaron;
layers = (
{
hints = (
{
horizontal = 1;
place = "{-11, 115}";
type = Stem;
},
{
horizontal = 1;
place = "{408, 114}";
type = Stem;
},
{
horizontal = 1;
place = "{598, 165}";
type = Stem;
},
{
place = "{32, 134}";
type = Stem;
}
);
layerId = "05A2C769-842B-415C-86A7-244CC7525BC2";
paths = (
{
closed = 1;
nodes = (
"348 763 LINE",
"281 689 LINE",
"213 763 LINE",
"107 763 LINE",
"236 598 LINE",
"324 598 LINE",
"452 763 LINE"
);
},
{
closed = 1;
nodes = (
"426 495 LINE",
"392 514 OFFCURVE",
"344 522 OFFCURVE",
"302 522 CURVE SMOOTH",
"142 522 OFFCURVE",
"32 401 OFFCURVE",
"32 255 CURVE SMOOTH",
"32 107 OFFCURVE",
"147 -11 OFFCURVE",
"297 -11 CURVE SMOOTH",
"347 -11 OFFCURVE",
"395 3 OFFCURVE",
"431 21 CURVE",
"431 154 LINE",
"396 121 OFFCURVE",
"355 104 OFFCURVE",
"312 104 CURVE SMOOTH",
"230 104 OFFCURVE",
"166 174 OFFCURVE",
"166 258 CURVE SMOOTH",
"166 343 OFFCURVE",
"225 408 OFFCURVE",
"309 408 CURVE SMOOTH",
"355 408 OFFCURVE",
"393 389 OFFCURVE",
"426 357 CURVE"
);
}
);
width = 467;
}
);
unicode = 010D;
},
{
glyphname = Dcaron;
layers = (
{
hints = (
{
horizontal = 1;
place = "{0, 124}";
type = Stem;
},
{
horizontal = 1;
place = "{578, 125}";
type = Stem;
},
{
horizontal = 1;
place = "{763, 165}";
type = Stem;
},
{
place = "{69, 139}";
type = Stem;
},
{
place = "{555, 145}";
type = Stem;
}
);
layerId = "05A2C769-842B-415C-86A7-244CC7525BC2";
paths = (
{
closed = 1;
nodes = (
"417 928 LINE",
"350 854 LINE",
"282 928 LINE",
"176 928 LINE",
"305 763 LINE",
"393 763 LINE",
"521 928 LINE"
);
},
{
closed = 1;
nodes = (
"69 0 LINE",
"312 0 LINE SMOOTH",
"551 0 OFFCURVE",
"700 149 OFFCURVE",
"700 354 CURVE SMOOTH",
"700 562 OFFCURVE",
"547 703 OFFCURVE",
"314 703 CURVE SMOOTH",
"69 703 LINE"
);
},
{
closed = 1;
nodes = (
"208 578 LINE",
"337 578 LINE SMOOTH",
"474 578 OFFCURVE",
"555 473 OFFCURVE",
"555 351 CURVE SMOOTH",
"555 215 OFFCURVE",
"465 124 OFFCURVE",
"313 124 CURVE SMOOTH",
"208 124 LINE"
);
}
);
width = 745;
}
);
unicode = 010E;
},
{
glyphname = dcaron;
layers = (
{
hints = (
{
place = "{32, 135}";
type = Stem;
},
{
place = "{445, 136}";
type = Stem;
},
{
horizontal = 1;
place = "{-11, 115}";
type = Stem;
},
{
horizontal = 1;
place = "{-6, 21}";
target = up;
type = BottomGhost;
},
{
horizontal = 1;
place = "{409, 115}";
type = Stem;
},
{
horizontal = 1;
place = "{589, 142}";
type = Stem;
}
);
layerId = "05A2C769-842B-415C-86A7-244CC7525BC2";
paths = (
{
closed = 1;
nodes = (
"754 790 LINE",
"650 790 LINE",
"615 589 LINE",
"696 589 LINE"
);
},
{
closed = 1;
nodes = (
"581 -6 LINE",
"581 731 LINE",
"445 731 LINE",
"445 437 LINE",
"406 487 OFFCURVE",
"351 524 OFFCURVE",
"270 524 CURVE SMOOTH",
"142 524 OFFCURVE",
"32 420 OFFCURVE",
"32 256 CURVE SMOOTH",
"32 92 OFFCURVE",
"142 -11 OFFCURVE",
"272 -11 CURVE SMOOTH",
"351 -11 OFFCURVE",
"399 26 OFFCURVE",
"440 75 CURVE"
);
},
{
closed = 1;
nodes = (
"167 348 OFFCURVE",
"230 409 OFFCURVE",
"305 409 CURVE SMOOTH",
"382 409 OFFCURVE",
"448 345 OFFCURVE",
"448 257 CURVE SMOOTH",
"448 167 OFFCURVE",
"383 104 OFFCURVE",
"305 104 CURVE SMOOTH",
"228 104 OFFCURVE",
"167 167 OFFCURVE",
"167 256 CURVE SMOOTH"
);
}
);
width = 619;
}
);
unicode = 010F;
},
{
glyphname = Dcroat;
layers = (
{
hints = (
{
horizontal = 1;
place = "{0, 124}";
type = Stem;
},
{
horizontal = 1;
place = "{284, 122}";
type = Stem;
},
{
horizontal = 1;
place = "{578, 125}";
type = Stem;
},
{
place = "{97, 140}";
type = Stem;
},
{
place = "{584, 144}";
type = Stem;
}
);
layerId = "05A2C769-842B-415C-86A7-244CC7525BC2";
paths = (
{
closed = 1;
nodes = (
"97 0 LINE",
"340 0 LINE SMOOTH",
"580 0 OFFCURVE",
"728 149 OFFCURVE",
"728 354 CURVE SMOOTH",
"728 562 OFFCURVE",
"575 703 OFFCURVE",
"343 703 CURVE SMOOTH",
"97 703 LINE",
"97 406 LINE",
"12 406 LINE",
"12 284 LINE",
"97 284 LINE"
);
},
{
closed = 1;
nodes = (
"237 578 LINE",
"366 578 LINE SMOOTH",
"502 578 OFFCURVE",
"584 473 OFFCURVE",
"584 351 CURVE SMOOTH",
"584 215 OFFCURVE",
"494 124 OFFCURVE",
"342 124 CURVE SMOOTH",
"237 124 LINE",
"237 284 LINE",
"312 284 LINE",
"312 406 LINE",
"237 406 LINE"
);
}
);
width = 773;
}
);
unicode = 0110;
},
{
glyphname = dcroat;
layers = (
{
hints = (
{
place = "{32, 135}";
type = Stem;
},
{
place = "{445, 136}";
type = Stem;
},
{
horizontal = 1;
place = "{-11, 115}";
type = Stem;
},
{
horizontal = 1;
place = "{-6, 21}";
target = up;
type = BottomGhost;
},
{
horizontal = 1;
place = "{409, 115}";
type = Stem;
},
{
horizontal = 1;
place = "{564, 122}";
type = Stem;
}
);
layerId = "05A2C769-842B-415C-86A7-244CC7525BC2";
paths = (
{
closed = 1;
nodes = (
"581 -6 LINE",
"581 564 LINE",
"636 564 LINE",
"636 686 LINE",
"581 686 LINE",
"581 731 LINE",
"445 731 LINE",
"445 686 LINE",
"337 686 LINE",
"337 564 LINE",
"445 564 LINE",
"445 437 LINE",
"406 487 OFFCURVE",
"351 524 OFFCURVE",
"270 524 CURVE SMOOTH",
"142 524 OFFCURVE",
"32 420 OFFCURVE",
"32 256 CURVE SMOOTH",
"32 92 OFFCURVE",
"142 -11 OFFCURVE",
"272 -11 CURVE SMOOTH",
"351 -11 OFFCURVE",
"399 26 OFFCURVE",
"440 75 CURVE"
);
},
{
closed = 1;
nodes = (
"167 348 OFFCURVE",
"230 409 OFFCURVE",
"305 409 CURVE SMOOTH",
"382 409 OFFCURVE",
"448 345 OFFCURVE",
"448 257 CURVE SMOOTH",
"448 167 OFFCURVE",
"383 104 OFFCURVE",
"305 104 CURVE SMOOTH",
"228 104 OFFCURVE",
"167 167 OFFCURVE",
"167 256 CURVE SMOOTH"
);
}
);
width = 632;
}
);
unicode = 0111;
},
{
glyphname = Emacron;
layers = (
{
hints = (
{
horizontal = 1;
place = "{0, 121}";
type = Stem;
},
{
horizontal = 1;
place = "{299, 114}";
type = Stem;
},
{
horizontal = 1;
place = "{582, 121}";
type = Stem;
},
{
horizontal = 1;
place = "{760, 87}";
type = Stem;
},
{
place = "{69, 139}";
type = Stem;
}
);
layerId = "05A2C769-842B-415C-86A7-244CC7525BC2";
paths = (
{
closed = 1;
nodes = (
"506 847 LINE",
"170 847 LINE",
"170 760 LINE",
"506 760 LINE"
);
},
{
closed = 1;
nodes = (
"208 299 LINE",
"548 299 LINE",
"548 413 LINE",
"208 413 LINE",
"208 582 LINE",
"580 582 LINE",
"580 703 LINE",
"69 703 LINE",
"69 0 LINE",
"588 0 LINE",
"588 121 LINE",
"208 121 LINE"
);
}
);
width = 647;
}
);
unicode = 0112;
},
{
glyphname = emacron;
layers = (
{
hints = (
{
horizontal = 1;
place = "{-14, 104}";
type = Stem;
},
{
horizontal = 1;
place = "{416, 106}";
type = Stem;
},
{
horizontal = 1;
place = "{595, 87}";
type = Stem;
},
{
place = "{32, 130}";
type = Stem;
}
);
layerId = "05A2C769-842B-415C-86A7-244CC7525BC2";
paths = (
{
closed = 1;
nodes = (
"452 682 LINE",
"116 682 LINE",
"116 595 LINE",
"452 595 LINE"
);
},
{
closed = 1;
nodes = (
"240 90 OFFCURVE",
"198 118 OFFCURVE",
"174 162 CURVE",
"539 253 LINE",
"531 396 OFFCURVE",
"446 522 OFFCURVE",
"289 522 CURVE SMOOTH",
"137 522 OFFCURVE",
"32 406 OFFCURVE",
"32 254 CURVE SMOOTH",
"32 98 OFFCURVE",
"143 -14 OFFCURVE",
"298 -14 CURVE SMOOTH",
"363 -14 OFFCURVE",
"436 5 OFFCURVE",
"491 43 CURVE",
"491 161 LINE",
"447 120 OFFCURVE",
"373 90 OFFCURVE",
"302 90 CURVE SMOOTH"
);
},
{
closed = 1;
nodes = (
"162 261 LINE",
"162 336 OFFCURVE",
"200 416 OFFCURVE",
"285 416 CURVE SMOOTH",
"346 416 OFFCURVE",
"390 376 OFFCURVE",
"405 318 CURVE",
"164 256 LINE"
);
}
);
width = 571;
}
);
unicode = 0113;
},
{
glyphname = Ebreve;
layers = (
{
hints = (
{
horizontal = 1;
place = "{0, 121}";
type = Stem;
},
{
horizontal = 1;
place = "{299, 114}";
type = Stem;
},
{
horizontal = 1;
place = "{582, 121}";
type = Stem;
},
{
horizontal = 1;
place = "{753, 92}";
type = Stem;
},
{
place = "{69, 139}";
type = Stem;
}
);
layerId = "05A2C769-842B-415C-86A7-244CC7525BC2";
paths = (
{
closed = 1;
nodes = (
"417 914 LINE",
"405 870 OFFCURVE",
"376 845 OFFCURVE",
"338 845 CURVE SMOOTH",
"299 845 OFFCURVE",
"268 870 OFFCURVE",
"256 914 CURVE",
"177 914 LINE",
"186 818 OFFCURVE",
"248 753 OFFCURVE",
"335 753 CURVE SMOOTH",
"423 753 OFFCURVE",
"488 818 OFFCURVE",
"496 914 CURVE"
);
},
{
closed = 1;
nodes = (
"208 299 LINE",
"548 299 LINE",
"548 413 LINE",
"208 413 LINE",
"208 582 LINE",
"580 582 LINE",
"580 703 LINE",
"69 703 LINE",
"69 0 LINE",
"588 0 LINE",
"588 121 LINE",
"208 121 LINE"
);
}
);
width = 647;
}
);
unicode = 0114;
},
{
glyphname = ebreve;
layers = (
{
hints = (
{
horizontal = 1;
place = "{-14, 104}";
type = Stem;
},
{
horizontal = 1;
place = "{416, 106}";
type = Stem;
},
{
horizontal = 1;
place = "{588, 92}";
type = Stem;
},
{
place = "{32, 130}";
type = Stem;
}
);
layerId = "05A2C769-842B-415C-86A7-244CC7525BC2";
paths = (
{
closed = 1;
nodes = (
"377 749 LINE",
"365 705 OFFCURVE",
"336 680 OFFCURVE",
"298 680 CURVE SMOOTH",
"259 680 OFFCURVE",
"228 705 OFFCURVE",
"216 749 CURVE",
"137 749 LINE",
"146 653 OFFCURVE",
"208 588 OFFCURVE",
"295 588 CURVE SMOOTH",
"383 588 OFFCURVE",
"448 653 OFFCURVE",
"456 749 CURVE"
);
},
{
closed = 1;
nodes = (
"240 90 OFFCURVE",
"198 118 OFFCURVE",
"174 162 CURVE",
"539 253 LINE",
"531 396 OFFCURVE",
"446 522 OFFCURVE",
"289 522 CURVE SMOOTH",
"137 522 OFFCURVE",
"32 406 OFFCURVE",
"32 254 CURVE SMOOTH",
"32 98 OFFCURVE",
"143 -14 OFFCURVE",
"298 -14 CURVE SMOOTH",
"363 -14 OFFCURVE",
"436 5 OFFCURVE",
"491 43 CURVE",
"491 161 LINE",
"447 120 OFFCURVE",
"373 90 OFFCURVE",
"302 90 CURVE SMOOTH"
);
},
{
closed = 1;
nodes = (
"162 261 LINE",
"162 336 OFFCURVE",
"200 416 OFFCURVE",
"285 416 CURVE SMOOTH",
"346 416 OFFCURVE",
"390 376 OFFCURVE",
"405 318 CURVE",
"164 256 LINE"
);
}
);
width = 571;
}
);
unicode = 0115;
},
{
glyphname = Edotaccent;
layers = (
{
hints = (
{
horizontal = 1;
place = "{0, 121}";
type = Stem;
},
{
horizontal = 1;
place = "{299, 114}";
type = Stem;
},
{
horizontal = 1;
place = "{582, 121}";
type = Stem;
},
{
horizontal = 1;
place = "{767, 156}";
type = Stem;
},
{
place = "{69, 139}";
type = Stem;
},
{
place = "{249, 168}";
type = Stem;
}
);
layerId = "05A2C769-842B-415C-86A7-244CC7525BC2";
paths = (
{
closed = 1;
nodes = (
"249 797 OFFCURVE",
"287 767 OFFCURVE",
"333 767 CURVE SMOOTH",
"380 767 OFFCURVE",
"417 797 OFFCURVE",
"417 845 CURVE SMOOTH",
"417 895 OFFCURVE",
"380 923 OFFCURVE",
"333 923 CURVE SMOOTH",
"287 923 OFFCURVE",
"249 895 OFFCURVE",
"249 845 CURVE SMOOTH"
);
},
{
closed = 1;
nodes = (
"208 299 LINE",
"548 299 LINE",
"548 413 LINE",
"208 413 LINE",
"208 582 LINE",
"580 582 LINE",
"580 703 LINE",
"69 703 LINE",
"69 0 LINE",
"588 0 LINE",
"588 121 LINE",
"208 121 LINE"
);
}
);
width = 647;
}
);
unicode = 0116;
},
{
glyphname = edotaccent;
layers = (
{
hints = (
{
horizontal = 1;
place = "{-14, 104}";
type = Stem;
},
{
horizontal = 1;
place = "{416, 106}";
type = Stem;
},
{
horizontal = 1;
place = "{602, 156}";
type = Stem;
},
{
place = "{32, 130}";
type = Stem;
},
{
place = "{199, 168}";
type = Stem;
}
);
layerId = "05A2C769-842B-415C-86A7-244CC7525BC2";
paths = (
{
closed = 1;
nodes = (
"199 632 OFFCURVE",
"237 602 OFFCURVE",
"283 602 CURVE SMOOTH",
"330 602 OFFCURVE",
"367 632 OFFCURVE",
"367 680 CURVE SMOOTH",
"367 730 OFFCURVE",
"330 758 OFFCURVE",
"283 758 CURVE SMOOTH",
"237 758 OFFCURVE",
"199 730 OFFCURVE",
"199 680 CURVE SMOOTH"
);
},
{
closed = 1;
nodes = (
"240 90 OFFCURVE",
"198 118 OFFCURVE",
"174 162 CURVE",
"539 253 LINE",
"531 396 OFFCURVE",
"446 522 OFFCURVE",
"289 522 CURVE SMOOTH",
"137 522 OFFCURVE",
"32 406 OFFCURVE",
"32 254 CURVE SMOOTH",
"32 98 OFFCURVE",
"143 -14 OFFCURVE",
"298 -14 CURVE SMOOTH",
"363 -14 OFFCURVE",
"436 5 OFFCURVE",
"491 43 CURVE",
"491 161 LINE",
"447 120 OFFCURVE",
"373 90 OFFCURVE",
"302 90 CURVE SMOOTH"
);
},
{
closed = 1;
nodes = (
"162 261 LINE",
"162 336 OFFCURVE",
"200 416 OFFCURVE",
"285 416 CURVE SMOOTH",
"346 416 OFFCURVE",
"390 376 OFFCURVE",
"405 318 CURVE",
"164 256 LINE"
);
}
);
width = 571;
}
);
unicode = 0117;
},
{
glyphname = Eogonek;
layers = (
{
hints = (
{
horizontal = 1;
place = "{-218, 78}";
type = Stem;
},
{
horizontal = 1;
place = "{0, 121}";
type = Stem;
},
{
horizontal = 1;
place = "{299, 114}";
type = Stem;
},
{
horizontal = 1;
place = "{582, 121}";
type = Stem;
},
{
place = "{69, 139}";
type = Stem;
},
{
place = "{440, 96}";
type = Stem;
}
);
layerId = "05A2C769-842B-415C-86A7-244CC7525BC2";
paths = (
{
closed = 1;
nodes = (
"208 299 LINE",
"548 299 LINE",
"548 413 LINE",
"208 413 LINE",
"208 582 LINE",
"580 582 LINE",
"580 703 LINE",
"69 703 LINE",
"69 0 LINE",
"496 0 LINE",
"469 -32 OFFCURVE",
"440 -71 OFFCURVE",
"440 -116 CURVE SMOOTH",
"440 -180 OFFCURVE",
"492 -218 OFFCURVE",
"560 -218 CURVE SMOOTH",
"587 -218 OFFCURVE",
"616 -212 OFFCURVE",
"646 -197 CURVE",
"630 -129 LINE",
"606 -137 OFFCURVE",
"592 -140 OFFCURVE",
"580 -140 CURVE SMOOTH",
"554 -140 OFFCURVE",
"536 -125 OFFCURVE",
"536 -101 CURVE SMOOTH",
"536 -78 OFFCURVE",
"549 -52 OFFCURVE",
"589 0 CURVE",
"588 0 LINE",
"588 121 LINE",
"208 121 LINE"
);
}
);
width = 704;
}
);
unicode = 0118;
},
{
glyphname = eogonek;
layers = (
{
hints = (
{
horizontal = 1;
place = "{-217, 78}";
type = Stem;
},
{
horizontal = 1;
place = "{-14, 104}";
type = Stem;
},
{
horizontal = 1;
place = "{416, 106}";
type = Stem;
},
{
place = "{32, 130}";
type = Stem;
},
{
place = "{298, 96}";
type = Stem;
}
);
layerId = "05A2C769-842B-415C-86A7-244CC7525BC2";
paths = (
{
closed = 1;
nodes = (
"488 -128 LINE",
"464 -136 OFFCURVE",
"450 -139 OFFCURVE",
"438 -139 CURVE SMOOTH",
"412 -139 OFFCURVE",
"394 -124 OFFCURVE",
"394 -98 CURVE SMOOTH",
"394 -74 OFFCURVE",
"406 -35 OFFCURVE",
"489 42 CURVE",
"490 42 OFFCURVE",
"490 43 OFFCURVE",
"491 43 CURVE",
"491 44 LINE",
"491 44 OFFCURVE",
"491 44 OFFCURVE",
"492 44 CURVE",
"491 44 LINE",
"491 161 LINE",
"447 120 OFFCURVE",
"373 90 OFFCURVE",
"302 90 CURVE SMOOTH",
"240 90 OFFCURVE",
"198 118 OFFCURVE",
"174 162 CURVE",
"539 253 LINE",
"531 396 OFFCURVE",
"446 522 OFFCURVE",
"289 522 CURVE SMOOTH",
"137 522 OFFCURVE",
"32 406 OFFCURVE",
"32 254 CURVE SMOOTH",
"32 98 OFFCURVE",
"143 -14 OFFCURVE",
"298 -14 CURVE SMOOTH",
"313 -14 OFFCURVE",
"328 -13 OFFCURVE",
"343 -11 CURVE",
"319 -40 OFFCURVE",
"298 -75 OFFCURVE",
"298 -115 CURVE SMOOTH",
"298 -179 OFFCURVE",
"350 -217 OFFCURVE",
"418 -217 CURVE SMOOTH",
"445 -217 OFFCURVE",
"474 -211 OFFCURVE",
"504 -196 CURVE"
);
},
{
closed = 1;
nodes = (
"162 261 LINE",
"162 336 OFFCURVE",
"200 416 OFFCURVE",
"285 416 CURVE SMOOTH",
"346 416 OFFCURVE",
"390 376 OFFCURVE",
"405 318 CURVE",
"164 256 LINE"
);
}
);
width = 571;
}
);
unicode = 0119;
},
{
glyphname = Ecaron;
layers = (
{
hints = (
{
horizontal = 1;
place = "{0, 121}";
type = Stem;
},
{
horizontal = 1;
place = "{299, 114}";
type = Stem;
},
{
horizontal = 1;
place = "{582, 121}";
type = Stem;
},
{
horizontal = 1;
place = "{763, 165}";
type = Stem;
},
{
place = "{69, 139}";
type = Stem;
}
);
layerId = "05A2C769-842B-415C-86A7-244CC7525BC2";
paths = (
{
closed = 1;
nodes = (
"407 928 LINE",
"340 854 LINE",
"272 928 LINE",
"166 928 LINE",
"295 763 LINE",
"383 763 LINE",
"511 928 LINE"
);
},
{
closed = 1;
nodes = (
"208 299 LINE",
"548 299 LINE",
"548 413 LINE",
"208 413 LINE",
"208 582 LINE",
"580 582 LINE",
"580 703 LINE",
"69 703 LINE",
"69 0 LINE",
"588 0 LINE",
"588 121 LINE",
"208 121 LINE"
);
}
);
width = 647;
}
);
unicode = 011A;
},
{
glyphname = ecaron;
layers = (
{
hints = (
{
horizontal = 1;
place = "{-14, 104}";
type = Stem;
},
{
horizontal = 1;
place = "{416, 106}";
type = Stem;
},
{
place = "{32, 130}";
type = Stem;
}
);
layerId = "05A2C769-842B-415C-86A7-244CC7525BC2";
paths = (
{
closed = 1;
nodes = (
"240 90 OFFCURVE",
"198 118 OFFCURVE",
"174 162 CURVE",
"539 253 LINE",
"531 396 OFFCURVE",
"446 522 OFFCURVE",
"289 522 CURVE SMOOTH",
"137 522 OFFCURVE",
"32 406 OFFCURVE",
"32 254 CURVE SMOOTH",
"32 98 OFFCURVE",
"143 -14 OFFCURVE",
"298 -14 CURVE SMOOTH",
"363 -14 OFFCURVE",
"436 5 OFFCURVE",
"491 43 CURVE",
"491 161 LINE",
"447 120 OFFCURVE",
"373 90 OFFCURVE",
"302 90 CURVE SMOOTH"
);
},
{
closed = 1;
nodes = (
"162 261 LINE",
"162 336 OFFCURVE",
"200 416 OFFCURVE",
"285 416 CURVE SMOOTH",
"346 416 OFFCURVE",
"390 376 OFFCURVE",
"405 318 CURVE",
"164 256 LINE"
);
}
);
width = 571;
}
);
unicode = 011B;
},
{
glyphname = Gcircumflex;
layers = (
{
hints = (
{
place = "{44, 142}";
type = Stem;
},
{
place = "{445, 189}";
type = Stem;
},
{
place = "{619, 132}";
type = Stem;
},
{
horizontal = 1;
place = "{-15, 123}";
type = Stem;
},
{
horizontal = 1;
place = "{294, 110}";
type = Stem;
},
{
horizontal = 1;
place = "{592, 125}";
type = Stem;
},
{
horizontal = 1;
place = "{784, 164}";
type = Stem;
}
);
layerId = "05A2C769-842B-415C-86A7-244CC7525BC2";
paths = (
{
closed = 1;
nodes = (
"471 948 LINE",
"385 948 LINE",
"262 784 LINE",
"360 784 LINE",
"428 856 LINE",
"496 784 LINE",
"594 784 LINE"
);
},
{
closed = 1;
nodes = (
"619 294 LINE",
"619 174 OFFCURVE",
"522 108 OFFCURVE",
"417 108 CURVE SMOOTH",
"287 108 OFFCURVE",
"186 211 OFFCURVE",
"186 351 CURVE SMOOTH",
"186 483 OFFCURVE",
"295 592 OFFCURVE",
"432 592 CURVE SMOOTH",
"513 592 OFFCURVE",
"583 561 OFFCURVE",
"634 514 CURVE",
"634 664 LINE",
"573 700 OFFCURVE",
"497 717 OFFCURVE",
"424 717 CURVE SMOOTH",
"210 717 OFFCURVE",
"44 556 OFFCURVE",
"44 351 CURVE SMOOTH",
"44 144 OFFCURVE",
"203 -15 OFFCURVE",
"409 -15 CURVE SMOOTH",
"610 -15 OFFCURVE",
"751 116 OFFCURVE",
"751 371 CURVE SMOOTH",
"751 404 LINE",
"445 404 LINE",
"445 294 LINE"
);
}
);
width = 795;
}
);
unicode = 011C;
},
{
glyphname = gcircumflex;
layers = (
{
hints = (
{
place = "{37, 136}";
type = Stem;
},
{
place = "{452, 134}";
type = Stem;
},
{
horizontal = 1;
place = "{-178, 103}";
type = Stem;
},
{
horizontal = 1;
place = "{34, 109}";
type = Stem;
},
{
horizontal = 1;
place = "{415, 109}";
type = Stem;
},
{
horizontal = 1;
place = "{512, -20}";
target = down;
type = TopGhost;
},
{
horizontal = 1;
place = "{619, 164}";
type = Stem;
}
);
layerId = "05A2C769-842B-415C-86A7-244CC7525BC2";
paths = (
{
closed = 1;
nodes = (
"355 783 LINE",
"269 783 LINE",
"146 619 LINE",
"244 619 LINE",
"312 691 LINE",
"380 619 LINE",
"478 619 LINE"
);
},
{
closed = 1;
nodes = (
"199 -75 OFFCURVE",
"121 -43 OFFCURVE",
"65 -4 CURVE",
"65 -124 LINE",
"129 -157 OFFCURVE",
"194 -178 OFFCURVE",
"281 -178 CURVE SMOOTH",
"459 -178 OFFCURVE",
"586 -87 OFFCURVE",
"586 94 CURVE SMOOTH",
"586 512 LINE",
"445 445 LINE",
"404 491 OFFCURVE",
"353 524 OFFCURVE",
"275 524 CURVE SMOOTH",
"145 524 OFFCURVE",
"37 427 OFFCURVE",
"37 277 CURVE SMOOTH",
"37 131 OFFCURVE",
"142 34 OFFCURVE",
"274 34 CURVE SMOOTH",
"355 34 OFFCURVE",
"409 71 OFFCURVE",
"452 123 CURVE",
"452 82 LINE SMOOTH",
"452 -26 OFFCURVE",
"389 -75 OFFCURVE",
"280 -75 CURVE SMOOTH"
);
},
{
closed = 1;
nodes = (
"173 359 OFFCURVE",
"230 415 OFFCURVE",
"311 415 CURVE SMOOTH",
"391 415 OFFCURVE",
"452 358 OFFCURVE",
"452 279 CURVE SMOOTH",
"452 200 OFFCURVE",
"390 143 OFFCURVE",
"311 143 CURVE SMOOTH",
"231 143 OFFCURVE",
"173 200 OFFCURVE",
"173 279 CURVE SMOOTH"
);
}
);
width = 646;
}
);
unicode = 011D;
},
{
glyphname = Gbreve;
layers = (
{
hints = (
{
place = "{44, 142}";
type = Stem;
},
{
place = "{445, 189}";
type = Stem;
},
{
place = "{619, 132}";
type = Stem;
},
{
horizontal = 1;
place = "{-15, 123}";
type = Stem;
},
{
horizontal = 1;
place = "{294, 110}";
type = Stem;
},
{
horizontal = 1;
place = "{592, 125}";
type = Stem;
},
{
horizontal = 1;
place = "{753, 92}";
type = Stem;
}
);
layerId = "05A2C769-842B-415C-86A7-244CC7525BC2";
paths = (
{
closed = 1;
nodes = (
"495 914 LINE",
"483 870 OFFCURVE",
"454 845 OFFCURVE",
"416 845 CURVE SMOOTH",
"377 845 OFFCURVE",
"346 870 OFFCURVE",
"334 914 CURVE",
"255 914 LINE",
"264 818 OFFCURVE",
"326 753 OFFCURVE",
"413 753 CURVE SMOOTH",
"501 753 OFFCURVE",
"566 818 OFFCURVE",
"574 914 CURVE"
);
},
{
closed = 1;
nodes = (
"619 294 LINE",
"619 174 OFFCURVE",
"522 108 OFFCURVE",
"417 108 CURVE SMOOTH",
"287 108 OFFCURVE",
"186 211 OFFCURVE",
"186 351 CURVE SMOOTH",
"186 483 OFFCURVE",
"295 592 OFFCURVE",
"432 592 CURVE SMOOTH",
"513 592 OFFCURVE",
"583 561 OFFCURVE",
"634 514 CURVE",
"634 664 LINE",
"573 700 OFFCURVE",
"497 717 OFFCURVE",
"424 717 CURVE SMOOTH",
"210 717 OFFCURVE",
"44 556 OFFCURVE",
"44 351 CURVE SMOOTH",
"44 144 OFFCURVE",
"203 -15 OFFCURVE",
"409 -15 CURVE SMOOTH",
"610 -15 OFFCURVE",
"751 116 OFFCURVE",
"751 371 CURVE SMOOTH",
"751 404 LINE",
"445 404 LINE",
"445 294 LINE"
);
}
);
width = 795;
}
);
unicode = 011E;
},
